<?xml version="1.0" encoding="UTF-8" standalone="no"?>
<svg
   xmlns:dc="http://purl.org/dc/elements/1.1/"
   xmlns:cc="http://creativecommons.org/ns#"
   xmlns:rdf="http://www.w3.org/1999/02/22-rdf-syntax-ns#"
   xmlns:svg="http://www.w3.org/2000/svg"
   xmlns="http://www.w3.org/2000/svg"
   xmlns:xlink="http://www.w3.org/1999/xlink"
   xmlns:sodipodi="http://sodipodi.sourceforge.net/DTD/sodipodi-0.dtd"
   xmlns:inkscape="http://www.inkscape.org/namespaces/inkscape"
   height="10.0mm"
   width="10.0mm"
   version="1.1"
   x="0px"
   y="0px"
   viewBox="0 0 10.0 10.0"
   style="enable-background:new 0 0 28.4 28.4;"
   xml:space="preserve"
   id="svg17"
   sodipodi:docname="escargot_design.svg"
   inkscape:version="1.0 (4035a4fb49, 2020-05-01)"><metadata
   id="metadata23"><rdf:RDF><cc:Work
       rdf:about=""><dc:format>image/svg+xml</dc:format><dc:type
         rdf:resource="http://purl.org/dc/dcmitype/StillImage" /></cc:Work></rdf:RDF></metadata><defs
   id="defs21" /><sodipodi:namedview
   inkscape:document-rotation="0"
   inkscape:document-units="mm"
   inkscape:current-layer="g915"
   inkscape:window-maximized="1"
   inkscape:window-y="445"
   inkscape:window-x="-8"
   inkscape:cy="20.058893"
   inkscape:cx="17.297327"
   inkscape:zoom="7.4501555"
   showgrid="false"
   id="namedview19"
   inkscape:window-height="1017"
   inkscape:window-width="1920"
   inkscape:pageshadow="2"
   inkscape:pageopacity="0"
   guidetolerance="10"
   gridtolerance="10"
   objecttolerance="10"
   borderopacity="1"
   bordercolor="#666666"
   pagecolor="#ffffff" />
<style
   id="style2"
   type="text/css">
	.st0{display:none;}
	.st1{fill:none;stroke:#000000;stroke-linecap:round;stroke-miterlimit:10;}
	.st2{fill:#231F20;stroke:#000000;stroke-linecap:round;stroke-miterlimit:10;}
	.st3{fill:none;stroke:#000000;stroke-width:0.5;stroke-linecap:round;stroke-miterlimit:10;}
</style>
<g
   class="st0"
   id="Layer_1">
	
		<image
   sodipodi:absref="G:\Utilisateurs\antoine.andre\Documents\webDev\alpha_dre\pcb\D134E919.jpg"
   xlink:href="D134E919.jpg"
   id="image4"
   transform="matrix(1 0 0 1 -636 -635.65)"
   height="1300"
   width="1300"
   style="display:inline;overflow:visible;">
	</image>
</g>
<g
   id="Layer_2">
	
	
	
	
	
	
	
	
	
</g>
<g
   inkscape:label="[fixed] BG"
   inkscape:groupmode="layer"
   sodipodi:insensitive="true"
   id="g913"><rect
     x="0"
     y="0"
     width="10.0"
     height="10.0"
     style="fill:#FFFFFF;fill-opacity:1;stroke:none"
     id="rect911" /></g><g
   inkscape:label="F.SilkS"
   inkscape:groupmode="layer"
   id="g915"><g
     transform="matrix(0.34055982,0,0,0.34055982,0.19519338,0.19349617)"
     id="g874"><path
       style="stroke-width:0.58726834;stroke-miterlimit:10;stroke-dasharray:none"
       sodipodi:nodetypes="ccccccccsscccc"
       d="m 7.7,15.4 c 0.4,0 0.7,0.2 0.8,0.5 C 8.6,16.3 8.2,16.6 8,16.8 7.5,17.1 6.8,16.9 6.5,16.5 6,15.9 6.2,14.9 6.6,14.4 c 0.6,-0.9 1.8,-1.1 2.8,-0.9 1.7,0.5 2.1,2.7 2.1,2.8 0.2,1.2 -0.3,2.2 -0.5,2.5 -0.2,0.4 -1,1.7 -2.6,2.1 C 8,21 6.6,21.4 5.4,20.8 3.4,19.8 3.2,17.1 3.1,16.4 2.9,14.1 3.9,11.5 6,10 8.5,8.2 11.3,8.6 11.7,8.7 c 2.8,0.5 5.6,3.298662 6.6,6.298662"
       class="st1"
       id="XMLID_2_" /><path
       style="stroke-width:0.58726834;stroke-miterlimit:10;stroke-dasharray:none"
       d="m 4.3,20.5 c -2.4,1.2 -3.2,2.2 -2.8,2.2 0.5,0 9.1,0.3 14.7,-0.4 0.2,0 0.6,-0.1 1.1,-0.2 0.2,0 1.4,-0.4 2.4,-1.1 0.4,-0.3 0.8,-0.7 2.1,-2.8 0.4,-0.6 0.9,-1.6 2.1,-3.7 0.6,-1.1 1.4,-2.4 2.3,-2.5 0.1,0 0.4,0 0.5,-0.2 0.4,-0.4 -0.3,-1.5 -0.4,-1.7 C 26,9.6 25.6,8.9 24.8,8.6 23.6,8.2 22.5,8.9 22.3,9 c -0.7,0.5 -1.1,1.2 -1.9,2.7 -0.6,1.2 -0.6,1.3 -1.1,2.1 -0.8,1.1 -1.6,1.8 -1.8,1.9 -1.1,0.8 -2.2,1.1 -2.9,1.2"
       class="st1"
       id="XMLID_3_" /><circle
       style="stroke-width:0.58726834;stroke-miterlimit:10;stroke-dasharray:none"
       r="0.60000002"
       cy="2"
       cx="17.1"
       class="st2"
       id="XMLID_4_" /><circle
       style="stroke-width:0.58726834;stroke-miterlimit:10;stroke-dasharray:none"
       r="0.60000002"
       cy="2.5"
       cx="22.9"
       class="st2"
       id="XMLID_5_" /><line
       style="stroke-width:0.58726834;stroke-miterlimit:10;stroke-dasharray:none"
       y2="8.1999998"
       x2="21.299999"
       y1="2"
       x1="17.1"
       class="st1"
       id="XMLID_6_" /><line
       style="stroke-width:0.58726834;stroke-miterlimit:10;stroke-dasharray:none"
       y2="7.5999999"
       x2="22.9"
       y1="2.5"
       x1="22.9"
       class="st1"
       id="XMLID_7_" /><path
       style="stroke-width:0.58726834;stroke-miterlimit:10;stroke-dasharray:none"
       d="m 13.2,13.6 c 0,-0.2 -0.1,-0.7 -0.5,-1.2 -0.6,-0.8 -1.6,-0.9 -1.7,-0.9"
       class="st1"
       id="XMLID_8_" /><circle
       r="0.2"
       cy="11.2"
       cx="22.700001"
       class="st3"
       id="XMLID_9_" /><circle
       r="0.2"
       cy="10.3"
       cx="24.6"
       class="st3"
       id="XMLID_10_" /></g></g></svg>
