<?xml version="1.0" encoding="utf-8"?>
<!-- Generator: Adobe Illustrator 19.0.0, SVG Export Plug-In . SVG Version: 6.00 Build 0)  -->
<svg version="1.1" xmlns="http://www.w3.org/2000/svg" xmlns:xlink="http://www.w3.org/1999/xlink" x="0px" y="0px"
	 viewBox="0 0 28.4 28.4" style="enable-background:new 0 0 28.4 28.4;" xml:space="preserve">
<style type="text/css">
	.st0{display:none;}
	.st1{fill:none;stroke:#000000;stroke-linecap:round;stroke-miterlimit:10;}
	.st2{fill:#231F20;stroke:#000000;stroke-linecap:round;stroke-miterlimit:10;}
	.st3{fill:none;stroke:#000000;stroke-width:0.5;stroke-linecap:round;stroke-miterlimit:10;}
</style>
<g id="Layer_1" class="st0">
	
		<image style="display:inline;overflow:visible;" width="1300" height="1300" xlink:href="D134E919.jpg"  transform="matrix(1 0 0 1 -636 -635.65)">
	</image>
</g>
<g id="Layer_2">
	<path id="XMLID_2_" class="st1" d="M7.7,15.4c0.4,0,0.7,0.2,0.8,0.5c0.1,0.4-0.3,0.7-0.5,0.9c-0.5,0.3-1.2,0.1-1.5-0.3
		c-0.5-0.6-0.3-1.6,0.1-2.1c0.6-0.9,1.8-1.1,2.8-0.9c1.7,0.5,2.1,2.7,2.1,2.8c0.2,1.2-0.3,2.2-0.5,2.5c-0.2,0.4-1,1.7-2.6,2.1
		C8,21,6.6,21.4,5.4,20.8c-2-1-2.2-3.7-2.3-4.4C2.9,14.1,3.9,11.5,6,10c2.5-1.8,5.3-1.4,5.7-1.3c2.8,0.5,5.6,3.5,6.6,6.5"/>
	<path id="XMLID_3_" class="st1" d="M4.3,20.5c-2.4,1.2-3.2,2.2-2.8,2.2c0.5,0,9.1,0.3,14.7-0.4c0.2,0,0.6-0.1,1.1-0.2
		c0.2,0,1.4-0.4,2.4-1.1c0.4-0.3,0.8-0.7,2.1-2.8c0.4-0.6,0.9-1.6,2.1-3.7c0.6-1.1,1.4-2.4,2.3-2.5c0.1,0,0.4,0,0.5-0.2
		c0.4-0.4-0.3-1.5-0.4-1.7c-0.3-0.5-0.7-1.2-1.5-1.5c-1.2-0.4-2.3,0.3-2.5,0.4c-0.7,0.5-1.1,1.2-1.9,2.7c-0.6,1.2-0.6,1.3-1.1,2.1
		c-0.8,1.1-1.6,1.8-1.8,1.9c-1.1,0.8-2.2,1.1-2.9,1.2"/>
	<circle id="XMLID_4_" class="st2" cx="17.1" cy="2" r="0.6"/>
	<circle id="XMLID_5_" class="st2" cx="22.9" cy="2.5" r="0.6"/>
	<line id="XMLID_6_" class="st1" x1="17.1" y1="2" x2="21.3" y2="8.2"/>
	<line id="XMLID_7_" class="st1" x1="22.9" y1="2.5" x2="22.9" y2="7.6"/>
	<path id="XMLID_8_" class="st1" d="M13.2,13.6c0-0.2-0.1-0.7-0.5-1.2c-0.6-0.8-1.6-0.9-1.7-0.9"/>
	<circle id="XMLID_9_" class="st3" cx="22.7" cy="11.2" r="0.2"/>
	<circle id="XMLID_10_" class="st3" cx="24.6" cy="10.3" r="0.2"/>
</g>
</svg>
