<?xml version="1.0"?>
<!-- Generated by SVGo -->
<svg width="258.889mm" height="92.201mm"
     viewBox="0.000 0.000 258.889 92.201"
     xmlns="http://www.w3.org/2000/svg" 
     xmlns:xlink="http://www.w3.org/1999/xlink">
<polygon points="253.889,87.201 5.000,87.201 5.000,5.000 253.889,5.000" style="fill:none;stroke-width:0.050000mm;stroke:black"/>
<polygon points="122.444,67.675 122.444,72.375 82.819,72.375 82.819,69.145 76.069,69.145 76.069,72.375 75.244,72.375 75.244,75.175 76.069,75.175 76.069,81.445 77.794,81.445 77.794,82.645 81.094,82.645 81.094,81.445 82.819,81.445 82.819,76.975 122.444,76.975 122.444,81.675 136.444,81.675 136.444,76.975 176.069,76.975 176.069,81.445 177.794,81.445 177.794,82.645 181.094,82.645 181.094,81.445 182.819,81.445 182.819,75.175 183.644,75.175 183.644,72.375 182.819,72.375 182.819,69.145 176.069,69.145 176.069,72.375 136.444,72.375 136.444,67.675" style="fill:none;stroke-width:0.050000mm;stroke:black"/>
<polygon points="231.982,67.675 231.982,81.675 245.982,81.675 245.982,67.675" style="fill:none;stroke-width:0.050000mm;stroke:black"/>
<polygon points="210.551,67.675 210.551,81.675 224.551,81.675 224.551,67.675" style="fill:none;stroke-width:0.050000mm;stroke:black"/>
<polygon points="191.501,67.675 191.501,81.675 205.501,81.675 205.501,67.675" style="fill:none;stroke-width:0.050000mm;stroke:black"/>
<polygon points="53.388,67.675 53.388,81.675 67.388,81.675 67.388,67.675" style="fill:none;stroke-width:0.050000mm;stroke:black"/>
<polygon points="34.338,67.675 34.338,81.675 48.338,81.675 48.338,67.675" style="fill:none;stroke-width:0.050000mm;stroke:black"/>
<polygon points="12.907,67.675 12.907,81.675 26.907,81.675 26.907,67.675" style="fill:none;stroke-width:0.050000mm;stroke:black"/>
<polygon points="227.219,48.625 227.219,62.625 241.219,62.625 241.219,48.625" style="fill:none;stroke-width:0.050000mm;stroke:black"/>
<polygon points="201.026,48.625 201.026,62.625 215.026,62.625 215.026,48.625" style="fill:none;stroke-width:0.050000mm;stroke:black"/>
<polygon points="181.976,48.625 181.976,62.625 195.976,62.625 195.976,48.625" style="fill:none;stroke-width:0.050000mm;stroke:black"/>
<polygon points="162.926,48.625 162.926,62.625 176.926,62.625 176.926,48.625" style="fill:none;stroke-width:0.050000mm;stroke:black"/>
<polygon points="143.876,48.625 143.876,62.625 157.876,62.625 157.876,48.625" style="fill:none;stroke-width:0.050000mm;stroke:black"/>
<polygon points="124.825,48.625 124.825,62.625 138.826,62.625 138.826,48.625" style="fill:none;stroke-width:0.050000mm;stroke:black"/>
<polygon points="105.775,48.625 105.775,62.625 119.775,62.625 119.775,48.625" style="fill:none;stroke-width:0.050000mm;stroke:black"/>
<polygon points="86.726,48.625 86.726,62.625 100.726,62.625 100.726,48.625" style="fill:none;stroke-width:0.050000mm;stroke:black"/>
<polygon points="67.676,48.625 67.676,62.625 81.676,62.625 81.676,48.625" style="fill:none;stroke-width:0.050000mm;stroke:black"/>
<polygon points="48.626,48.625 48.626,62.625 62.626,62.625 62.626,48.625" style="fill:none;stroke-width:0.050000mm;stroke:black"/>
<polygon points="29.576,48.625 29.576,62.625 43.576,62.625 43.576,48.625" style="fill:none;stroke-width:0.050000mm;stroke:black"/>
<polygon points="10.525,48.625 10.525,62.625 24.526,62.625 24.526,48.625" style="fill:none;stroke-width:0.050000mm;stroke:black"/>
<polygon points="210.551,29.574 210.551,43.574 224.551,43.574 224.551,29.574" style="fill:none;stroke-width:0.050000mm;stroke:black"/>
<polygon points="191.501,29.574 191.501,43.574 205.501,43.574 205.501,29.574" style="fill:none;stroke-width:0.050000mm;stroke:black"/>
<polygon points="172.451,29.574 172.451,43.574 186.451,43.574 186.451,29.574" style="fill:none;stroke-width:0.050000mm;stroke:black"/>
<polygon points="153.401,29.574 153.401,43.574 167.401,43.574 167.401,29.574" style="fill:none;stroke-width:0.050000mm;stroke:black"/>
<polygon points="134.351,29.574 134.351,43.574 148.351,43.574 148.351,29.574" style="fill:none;stroke-width:0.050000mm;stroke:black"/>
<polygon points="115.301,29.574 115.301,43.574 129.301,43.574 129.301,29.574" style="fill:none;stroke-width:0.050000mm;stroke:black"/>
<polygon points="96.251,29.574 96.251,43.574 110.251,43.574 110.251,29.574" style="fill:none;stroke-width:0.050000mm;stroke:black"/>
<polygon points="77.201,29.574 77.201,43.574 91.201,43.574 91.201,29.574" style="fill:none;stroke-width:0.050000mm;stroke:black"/>
<polygon points="58.151,29.574 58.151,43.574 72.151,43.574 72.151,29.574" style="fill:none;stroke-width:0.050000mm;stroke:black"/>
<polygon points="39.101,29.574 39.101,43.574 53.101,43.574 53.101,29.574" style="fill:none;stroke-width:0.050000mm;stroke:black"/>
<polygon points="15.288,29.574 15.288,43.574 29.288,43.574 29.288,29.574" style="fill:none;stroke-width:0.050000mm;stroke:black"/>
<polygon points="238.482,10.949 238.482,11.774 232.212,11.774 232.212,13.499 231.012,13.499 231.012,16.799 232.212,16.799 232.212,18.525 236.682,18.525 236.682,20.049 231.982,20.049 231.982,34.050 236.682,34.050 236.682,35.574 232.212,35.574 232.212,37.300 231.012,37.300 231.012,40.599 232.212,40.599 232.212,42.324 238.482,42.324 238.482,43.150 241.282,43.150 241.282,42.324 244.512,42.324 244.512,35.574 241.282,35.574 241.282,34.050 245.982,34.050 245.982,20.049 241.282,20.049 241.282,18.525 244.512,18.525 244.512,11.774 241.282,11.774 241.282,10.949" style="fill:none;stroke-width:0.050000mm;stroke:black"/>
<polygon points="205.788,10.524 205.788,24.525 219.788,24.525 219.788,10.524" style="fill:none;stroke-width:0.050000mm;stroke:black"/>
<polygon points="186.738,10.524 186.738,24.525 200.738,24.525 200.738,10.524" style="fill:none;stroke-width:0.050000mm;stroke:black"/>
<polygon points="167.688,10.524 167.688,24.525 181.688,24.525 181.688,10.524" style="fill:none;stroke-width:0.050000mm;stroke:black"/>
<polygon points="148.638,10.524 148.638,24.525 162.638,24.525 162.638,10.524" style="fill:none;stroke-width:0.050000mm;stroke:black"/>
<polygon points="129.587,10.524 129.587,24.525 143.588,24.525 143.588,10.524" style="fill:none;stroke-width:0.050000mm;stroke:black"/>
<polygon points="110.538,10.524 110.538,24.525 124.538,24.525 124.538,10.524" style="fill:none;stroke-width:0.050000mm;stroke:black"/>
<polygon points="91.488,10.524 91.488,24.525 105.488,24.525 105.488,10.524" style="fill:none;stroke-width:0.050000mm;stroke:black"/>
<polygon points="72.438,10.524 72.438,24.525 86.438,24.525 86.438,10.524" style="fill:none;stroke-width:0.050000mm;stroke:black"/>
<polygon points="53.388,10.524 53.388,24.525 67.388,24.525 67.388,10.524" style="fill:none;stroke-width:0.050000mm;stroke:black"/>
<polygon points="34.338,10.524 34.338,24.525 48.338,24.525 48.338,10.524" style="fill:none;stroke-width:0.050000mm;stroke:black"/>
<polygon points="10.525,10.524 10.525,24.525 24.526,24.525 24.526,10.524" style="fill:none;stroke-width:0.050000mm;stroke:black"/>
</svg>
