  0
SECTION
  2
HEADER
  9
$ACADVER
  1
AC1009
  9
$EXTMIN
 10
0.0
 20
0.0
 30
0.0
  9
$EXTMAX
 10
1000.0
 20
1000.0
 30
0.0
  9
$FILLMODE
 70
 0
  9
$SPLFRAME
 70
 1
  0
ENDSEC
  0
SECTION
  2
TABLES
  0
TABLE
  2
LAYER
 70
1
  0
LAYER
  2
0
 70
     0
 62
     7
  6
CONTINUOUS
  0
ENDTAB
  0
ENDSEC
  0
SECTION
  2
ENTITIES
  0
LINE
  8
0
 62
     0
 10
0.0950846
 20
76.4575
 30
0.0
 11
242.983
 21
76.4575
 31
0.0
  0
LINE
  8
0
 62
     0
 10
242.983
 20
76.4575
 30
0.0
 11
242.983
 21
0.257693
 31
0.0
  0
LINE
  8
0
 62
     0
 10
242.983
 20
0.257693
 30
0.0
 11
0.0950846
 21
0.257693
 31
0.0
  0
LINE
  8
0
 62
     0
 10
0.0950846
 20
0.257693
 30
0.0
 11
0.0950846
 21
76.4575
 31
0.0
  0
LINE
  8
0
 62
     0
 10
114.537
 20
16.7831
 30
0.0
 11
114.537
 21
12.0826
 31
0.0
  0
LINE
  8
0
 62
     0
 10
114.537
 20
12.0826
 30
0.0
 11
74.9131
 21
12.0826
 31
0.0
  0
LINE
  8
0
 62
     0
 10
74.9131
 20
12.0826
 30
0.0
 11
74.9131
 21
15.3128
 31
0.0
  0
LINE
  8
0
 62
     0
 10
74.9131
 20
15.3128
 30
0.0
 11
73.1876
 21
15.3128
 31
0.0
  0
LINE
  8
0
 62
     0
 10
73.1876
 20
15.3128
 30
0.0
 11
73.1876
 21
16.2347
 31
0.0
  0
LINE
  8
0
 62
     0
 10
73.1876
 20
16.2347
 30
0.0
 11
69.887
 21
16.2347
 31
0.0
  0
LINE
  8
0
 62
     0
 10
69.887
 20
16.2347
 30
0.0
 11
69.887
 21
15.3128
 31
0.0
  0
LINE
  8
0
 62
     0
 10
69.887
 20
15.3128
 30
0.0
 11
68.162
 21
15.3128
 31
0.0
  0
LINE
  8
0
 62
     0
 10
68.162
 20
15.3128
 30
0.0
 11
68.162
 21
12.0826
 31
0.0
  0
LINE
  8
0
 62
     0
 10
68.162
 20
12.0826
 30
0.0
 11
67.3379
 21
12.0826
 31
0.0
  0
LINE
  8
0
 62
     0
 10
67.3379
 20
12.0826
 30
0.0
 11
67.3379
 21
9.28384
 31
0.0
  0
LINE
  8
0
 62
     0
 10
67.3379
 20
9.28384
 30
0.0
 11
68.162
 21
9.28384
 31
0.0
  0
LINE
  8
0
 62
     0
 10
68.162
 20
9.28384
 30
0.0
 11
68.162
 21
3.01377
 31
0.0
  0
LINE
  8
0
 62
     0
 10
68.162
 20
3.01377
 30
0.0
 11
69.887
 21
3.01377
 31
0.0
  0
LINE
  8
0
 62
     0
 10
69.887
 20
3.01377
 30
0.0
 11
69.887
 21
2.03261
 31
0.0
  0
LINE
  8
0
 62
     0
 10
69.887
 20
2.03261
 30
0.0
 11
73.1876
 21
2.03261
 31
0.0
  0
LINE
  8
0
 62
     0
 10
73.1876
 20
2.03261
 30
0.0
 11
73.1876
 21
3.01377
 31
0.0
  0
LINE
  8
0
 62
     0
 10
73.1876
 20
3.01377
 30
0.0
 11
74.9131
 21
3.01377
 31
0.0
  0
LINE
  8
0
 62
     0
 10
74.9131
 20
3.01377
 30
0.0
 11
74.9131
 21
7.48273
 31
0.0
  0
LINE
  8
0
 62
     0
 10
74.9131
 20
7.48273
 30
0.0
 11
114.537
 21
7.48273
 31
0.0
  0
LINE
  8
0
 62
     0
 10
114.537
 20
7.48273
 30
0.0
 11
114.537
 21
2.78364
 31
0.0
  0
LINE
  8
0
 62
     0
 10
114.537
 20
2.78364
 30
0.0
 11
128.538
 21
2.78364
 31
0.0
  0
LINE
  8
0
 62
     0
 10
128.538
 20
2.78364
 30
0.0
 11
128.538
 21
7.48273
 31
0.0
  0
LINE
  8
0
 62
     0
 10
128.538
 20
7.48273
 30
0.0
 11
168.162
 21
7.48273
 31
0.0
  0
LINE
  8
0
 62
     0
 10
168.162
 20
7.48273
 30
0.0
 11
168.162
 21
3.01377
 31
0.0
  0
LINE
  8
0
 62
     0
 10
168.162
 20
3.01377
 30
0.0
 11
169.887
 21
3.01377
 31
0.0
  0
LINE
  8
0
 62
     0
 10
169.887
 20
3.01377
 30
0.0
 11
169.887
 21
2.03261
 31
0.0
  0
LINE
  8
0
 62
     0
 10
169.887
 20
2.03261
 30
0.0
 11
173.188
 21
2.03261
 31
0.0
  0
LINE
  8
0
 62
     0
 10
173.188
 20
2.03261
 30
0.0
 11
173.188
 21
3.01377
 31
0.0
  0
LINE
  8
0
 62
     0
 10
173.188
 20
3.01377
 30
0.0
 11
174.913
 21
3.01377
 31
0.0
  0
LINE
  8
0
 62
     0
 10
174.913
 20
3.01377
 30
0.0
 11
174.913
 21
9.28384
 31
0.0
  0
LINE
  8
0
 62
     0
 10
174.913
 20
9.28384
 30
0.0
 11
175.737
 21
9.28384
 31
0.0
  0
LINE
  8
0
 62
     0
 10
175.737
 20
9.28384
 30
0.0
 11
175.737
 21
12.0826
 31
0.0
  0
LINE
  8
0
 62
     0
 10
175.737
 20
12.0826
 30
0.0
 11
174.913
 21
12.0826
 31
0.0
  0
LINE
  8
0
 62
     0
 10
174.913
 20
12.0826
 30
0.0
 11
174.913
 21
15.3128
 31
0.0
  0
LINE
  8
0
 62
     0
 10
174.913
 20
15.3128
 30
0.0
 11
173.188
 21
15.3128
 31
0.0
  0
LINE
  8
0
 62
     0
 10
173.188
 20
15.3128
 30
0.0
 11
173.188
 21
16.2347
 31
0.0
  0
LINE
  8
0
 62
     0
 10
173.188
 20
16.2347
 30
0.0
 11
169.887
 21
16.2347
 31
0.0
  0
LINE
  8
0
 62
     0
 10
169.887
 20
16.2347
 30
0.0
 11
169.887
 21
15.3128
 31
0.0
  0
LINE
  8
0
 62
     0
 10
169.887
 20
15.3128
 30
0.0
 11
168.162
 21
15.3128
 31
0.0
  0
LINE
  8
0
 62
     0
 10
168.162
 20
15.3128
 30
0.0
 11
168.162
 21
12.0826
 31
0.0
  0
LINE
  8
0
 62
     0
 10
168.162
 20
12.0826
 30
0.0
 11
128.538
 21
12.0826
 31
0.0
  0
LINE
  8
0
 62
     0
 10
128.538
 20
12.0826
 30
0.0
 11
128.538
 21
16.7831
 31
0.0
  0
LINE
  8
0
 62
     0
 10
128.538
 20
16.7831
 30
0.0
 11
114.537
 21
16.7831
 31
0.0
  0
LINE
  8
0
 62
     0
 10
224.076
 20
16.7831
 30
0.0
 11
238.075
 21
16.7831
 31
0.0
  0
LINE
  8
0
 62
     0
 10
238.075
 20
16.7831
 30
0.0
 11
238.075
 21
2.78364
 31
0.0
  0
LINE
  8
0
 62
     0
 10
238.075
 20
2.78364
 30
0.0
 11
224.076
 21
2.78364
 31
0.0
  0
LINE
  8
0
 62
     0
 10
224.076
 20
2.78364
 30
0.0
 11
224.076
 21
16.7831
 31
0.0
  0
LINE
  8
0
 62
     0
 10
202.645
 20
16.7831
 30
0.0
 11
216.644
 21
16.7831
 31
0.0
  0
LINE
  8
0
 62
     0
 10
216.644
 20
16.7831
 30
0.0
 11
216.644
 21
2.78364
 31
0.0
  0
LINE
  8
0
 62
     0
 10
216.644
 20
2.78364
 30
0.0
 11
202.645
 21
2.78364
 31
0.0
  0
LINE
  8
0
 62
     0
 10
202.645
 20
2.78364
 30
0.0
 11
202.645
 21
16.7831
 31
0.0
  0
LINE
  8
0
 62
     0
 10
183.595
 20
16.7831
 30
0.0
 11
197.594
 21
16.7831
 31
0.0
  0
LINE
  8
0
 62
     0
 10
197.594
 20
16.7831
 30
0.0
 11
197.594
 21
2.78364
 31
0.0
  0
LINE
  8
0
 62
     0
 10
197.594
 20
2.78364
 30
0.0
 11
183.595
 21
2.78364
 31
0.0
  0
LINE
  8
0
 62
     0
 10
183.595
 20
2.78364
 30
0.0
 11
183.595
 21
16.7831
 31
0.0
  0
LINE
  8
0
 62
     0
 10
45.4822
 20
16.7831
 30
0.0
 11
59.4815
 21
16.7831
 31
0.0
  0
LINE
  8
0
 62
     0
 10
59.4815
 20
16.7831
 30
0.0
 11
59.4815
 21
2.78364
 31
0.0
  0
LINE
  8
0
 62
     0
 10
59.4815
 20
2.78364
 30
0.0
 11
45.4822
 21
2.78364
 31
0.0
  0
LINE
  8
0
 62
     0
 10
45.4822
 20
2.78364
 30
0.0
 11
45.4822
 21
16.7831
 31
0.0
  0
LINE
  8
0
 62
     0
 10
26.4322
 20
16.7831
 30
0.0
 11
40.4315
 21
16.7831
 31
0.0
  0
LINE
  8
0
 62
     0
 10
40.4315
 20
16.7831
 30
0.0
 11
40.4315
 21
2.78364
 31
0.0
  0
LINE
  8
0
 62
     0
 10
40.4315
 20
2.78364
 30
0.0
 11
26.4322
 21
2.78364
 31
0.0
  0
LINE
  8
0
 62
     0
 10
26.4322
 20
2.78364
 30
0.0
 11
26.4322
 21
16.7831
 31
0.0
  0
LINE
  8
0
 62
     0
 10
5.00091
 20
16.7831
 30
0.0
 11
19.0004
 21
16.7831
 31
0.0
  0
LINE
  8
0
 62
     0
 10
19.0004
 20
16.7831
 30
0.0
 11
19.0004
 21
2.78364
 31
0.0
  0
LINE
  8
0
 62
     0
 10
19.0004
 20
2.78364
 30
0.0
 11
5.00091
 21
2.78364
 31
0.0
  0
LINE
  8
0
 62
     0
 10
5.00091
 20
2.78364
 30
0.0
 11
5.00091
 21
16.7831
 31
0.0
  0
LINE
  8
0
 62
     0
 10
219.312
 20
35.833
 30
0.0
 11
233.313
 21
35.833
 31
0.0
  0
LINE
  8
0
 62
     0
 10
233.313
 20
35.833
 30
0.0
 11
233.313
 21
21.8336
 31
0.0
  0
LINE
  8
0
 62
     0
 10
233.313
 20
21.8336
 30
0.0
 11
219.312
 21
21.8336
 31
0.0
  0
LINE
  8
0
 62
     0
 10
219.312
 20
21.8336
 30
0.0
 11
219.312
 21
35.833
 31
0.0
  0
LINE
  8
0
 62
     0
 10
193.12
 20
35.833
 30
0.0
 11
207.119
 21
35.833
 31
0.0
  0
LINE
  8
0
 62
     0
 10
207.119
 20
35.833
 30
0.0
 11
207.119
 21
21.8336
 31
0.0
  0
LINE
  8
0
 62
     0
 10
207.119
 20
21.8336
 30
0.0
 11
193.12
 21
21.8336
 31
0.0
  0
LINE
  8
0
 62
     0
 10
193.12
 20
21.8336
 30
0.0
 11
193.12
 21
35.833
 31
0.0
  0
LINE
  8
0
 62
     0
 10
174.07
 20
35.833
 30
0.0
 11
188.069
 21
35.833
 31
0.0
  0
LINE
  8
0
 62
     0
 10
188.069
 20
35.833
 30
0.0
 11
188.069
 21
21.8336
 31
0.0
  0
LINE
  8
0
 62
     0
 10
188.069
 20
21.8336
 30
0.0
 11
174.07
 21
21.8336
 31
0.0
  0
LINE
  8
0
 62
     0
 10
174.07
 20
21.8336
 30
0.0
 11
174.07
 21
35.833
 31
0.0
  0
LINE
  8
0
 62
     0
 10
155.02
 20
35.833
 30
0.0
 11
169.019
 21
35.833
 31
0.0
  0
LINE
  8
0
 62
     0
 10
169.019
 20
35.833
 30
0.0
 11
169.019
 21
21.8336
 31
0.0
  0
LINE
  8
0
 62
     0
 10
169.019
 20
21.8336
 30
0.0
 11
155.02
 21
21.8336
 31
0.0
  0
LINE
  8
0
 62
     0
 10
155.02
 20
21.8336
 30
0.0
 11
155.02
 21
35.833
 31
0.0
  0
LINE
  8
0
 62
     0
 10
135.97
 20
35.833
 30
0.0
 11
149.969
 21
35.833
 31
0.0
  0
LINE
  8
0
 62
     0
 10
149.969
 20
35.833
 30
0.0
 11
149.969
 21
21.8336
 31
0.0
  0
LINE
  8
0
 62
     0
 10
149.969
 20
21.8336
 30
0.0
 11
135.97
 21
21.8336
 31
0.0
  0
LINE
  8
0
 62
     0
 10
135.97
 20
21.8336
 30
0.0
 11
135.97
 21
35.833
 31
0.0
  0
LINE
  8
0
 62
     0
 10
116.918
 20
35.833
 30
0.0
 11
130.919
 21
35.833
 31
0.0
  0
LINE
  8
0
 62
     0
 10
130.919
 20
35.833
 30
0.0
 11
130.919
 21
21.8336
 31
0.0
  0
LINE
  8
0
 62
     0
 10
130.919
 20
21.8336
 30
0.0
 11
116.918
 21
21.8336
 31
0.0
  0
LINE
  8
0
 62
     0
 10
116.918
 20
21.8336
 30
0.0
 11
116.918
 21
35.833
 31
0.0
  0
LINE
  8
0
 62
     0
 10
97.8683
 20
35.833
 30
0.0
 11
111.869
 21
35.833
 31
0.0
  0
LINE
  8
0
 62
     0
 10
111.869
 20
35.833
 30
0.0
 11
111.869
 21
21.8336
 31
0.0
  0
LINE
  8
0
 62
     0
 10
111.869
 20
21.8336
 30
0.0
 11
97.8683
 21
21.8336
 31
0.0
  0
LINE
  8
0
 62
     0
 10
97.8683
 20
21.8336
 30
0.0
 11
97.8683
 21
35.833
 31
0.0
  0
LINE
  8
0
 62
     0
 10
78.8197
 20
35.833
 30
0.0
 11
92.819
 21
35.833
 31
0.0
  0
LINE
  8
0
 62
     0
 10
92.819
 20
35.833
 30
0.0
 11
92.819
 21
21.8336
 31
0.0
  0
LINE
  8
0
 62
     0
 10
92.819
 20
21.8336
 30
0.0
 11
78.8197
 21
21.8336
 31
0.0
  0
LINE
  8
0
 62
     0
 10
78.8197
 20
21.8336
 30
0.0
 11
78.8197
 21
35.833
 31
0.0
  0
LINE
  8
0
 62
     0
 10
59.7697
 20
35.833
 30
0.0
 11
73.769
 21
35.833
 31
0.0
  0
LINE
  8
0
 62
     0
 10
73.769
 20
35.833
 30
0.0
 11
73.769
 21
21.8336
 31
0.0
  0
LINE
  8
0
 62
     0
 10
73.769
 20
21.8336
 30
0.0
 11
59.7697
 21
21.8336
 31
0.0
  0
LINE
  8
0
 62
     0
 10
59.7697
 20
21.8336
 30
0.0
 11
59.7697
 21
35.833
 31
0.0
  0
LINE
  8
0
 62
     0
 10
40.7197
 20
35.833
 30
0.0
 11
54.719
 21
35.833
 31
0.0
  0
LINE
  8
0
 62
     0
 10
54.719
 20
35.833
 30
0.0
 11
54.719
 21
21.8336
 31
0.0
  0
LINE
  8
0
 62
     0
 10
54.719
 20
21.8336
 30
0.0
 11
40.7197
 21
21.8336
 31
0.0
  0
LINE
  8
0
 62
     0
 10
40.7197
 20
21.8336
 30
0.0
 11
40.7197
 21
35.833
 31
0.0
  0
LINE
  8
0
 62
     0
 10
21.6697
 20
35.833
 30
0.0
 11
35.669
 21
35.833
 31
0.0
  0
LINE
  8
0
 62
     0
 10
35.669
 20
35.833
 30
0.0
 11
35.669
 21
21.8336
 31
0.0
  0
LINE
  8
0
 62
     0
 10
35.669
 20
21.8336
 30
0.0
 11
21.6697
 21
21.8336
 31
0.0
  0
LINE
  8
0
 62
     0
 10
21.6697
 20
21.8336
 30
0.0
 11
21.6697
 21
35.833
 31
0.0
  0
LINE
  8
0
 62
     0
 10
2.61965
 20
35.833
 30
0.0
 11
16.6192
 21
35.833
 31
0.0
  0
LINE
  8
0
 62
     0
 10
16.6192
 20
35.833
 30
0.0
 11
16.6192
 21
21.8336
 31
0.0
  0
LINE
  8
0
 62
     0
 10
16.6192
 20
21.8336
 30
0.0
 11
2.61965
 21
21.8336
 31
0.0
  0
LINE
  8
0
 62
     0
 10
2.61965
 20
21.8336
 30
0.0
 11
2.61965
 21
35.833
 31
0.0
  0
LINE
  8
0
 62
     0
 10
202.645
 20
54.8831
 30
0.0
 11
216.644
 21
54.8831
 31
0.0
  0
LINE
  8
0
 62
     0
 10
216.644
 20
54.8831
 30
0.0
 11
216.644
 21
40.8838
 31
0.0
  0
LINE
  8
0
 62
     0
 10
216.644
 20
40.8838
 30
0.0
 11
202.645
 21
40.8838
 31
0.0
  0
LINE
  8
0
 62
     0
 10
202.645
 20
40.8838
 30
0.0
 11
202.645
 21
54.8831
 31
0.0
  0
LINE
  8
0
 62
     0
 10
183.595
 20
54.8831
 30
0.0
 11
197.594
 21
54.8831
 31
0.0
  0
LINE
  8
0
 62
     0
 10
197.594
 20
54.8831
 30
0.0
 11
197.594
 21
40.8838
 31
0.0
  0
LINE
  8
0
 62
     0
 10
197.594
 20
40.8838
 30
0.0
 11
183.595
 21
40.8838
 31
0.0
  0
LINE
  8
0
 62
     0
 10
183.595
 20
40.8838
 30
0.0
 11
183.595
 21
54.8831
 31
0.0
  0
LINE
  8
0
 62
     0
 10
164.545
 20
54.8831
 30
0.0
 11
178.544
 21
54.8831
 31
0.0
  0
LINE
  8
0
 62
     0
 10
178.544
 20
54.8831
 30
0.0
 11
178.544
 21
40.8838
 31
0.0
  0
LINE
  8
0
 62
     0
 10
178.544
 20
40.8838
 30
0.0
 11
164.545
 21
40.8838
 31
0.0
  0
LINE
  8
0
 62
     0
 10
164.545
 20
40.8838
 30
0.0
 11
164.545
 21
54.8831
 31
0.0
  0
LINE
  8
0
 62
     0
 10
145.495
 20
54.8831
 30
0.0
 11
159.494
 21
54.8831
 31
0.0
  0
LINE
  8
0
 62
     0
 10
159.494
 20
54.8831
 30
0.0
 11
159.494
 21
40.8838
 31
0.0
  0
LINE
  8
0
 62
     0
 10
159.494
 20
40.8838
 30
0.0
 11
145.495
 21
40.8838
 31
0.0
  0
LINE
  8
0
 62
     0
 10
145.495
 20
40.8838
 30
0.0
 11
145.495
 21
54.8831
 31
0.0
  0
LINE
  8
0
 62
     0
 10
126.445
 20
54.8831
 30
0.0
 11
140.444
 21
54.8831
 31
0.0
  0
LINE
  8
0
 62
     0
 10
140.444
 20
54.8831
 30
0.0
 11
140.444
 21
40.8838
 31
0.0
  0
LINE
  8
0
 62
     0
 10
140.444
 20
40.8838
 30
0.0
 11
126.445
 21
40.8838
 31
0.0
  0
LINE
  8
0
 62
     0
 10
126.445
 20
40.8838
 30
0.0
 11
126.445
 21
54.8831
 31
0.0
  0
LINE
  8
0
 62
     0
 10
107.395
 20
54.8831
 30
0.0
 11
121.394
 21
54.8831
 31
0.0
  0
LINE
  8
0
 62
     0
 10
121.394
 20
54.8831
 30
0.0
 11
121.394
 21
40.8838
 31
0.0
  0
LINE
  8
0
 62
     0
 10
121.394
 20
40.8838
 30
0.0
 11
107.395
 21
40.8838
 31
0.0
  0
LINE
  8
0
 62
     0
 10
107.395
 20
40.8838
 30
0.0
 11
107.395
 21
54.8831
 31
0.0
  0
LINE
  8
0
 62
     0
 10
88.3447
 20
54.8831
 30
0.0
 11
102.344
 21
54.8831
 31
0.0
  0
LINE
  8
0
 62
     0
 10
102.344
 20
54.8831
 30
0.0
 11
102.344
 21
40.8838
 31
0.0
  0
LINE
  8
0
 62
     0
 10
102.344
 20
40.8838
 30
0.0
 11
88.3447
 21
40.8838
 31
0.0
  0
LINE
  8
0
 62
     0
 10
88.3447
 20
40.8838
 30
0.0
 11
88.3447
 21
54.8831
 31
0.0
  0
LINE
  8
0
 62
     0
 10
69.2947
 20
54.8831
 30
0.0
 11
83.294
 21
54.8831
 31
0.0
  0
LINE
  8
0
 62
     0
 10
83.294
 20
54.8831
 30
0.0
 11
83.294
 21
40.8838
 31
0.0
  0
LINE
  8
0
 62
     0
 10
83.294
 20
40.8838
 30
0.0
 11
69.2947
 21
40.8838
 31
0.0
  0
LINE
  8
0
 62
     0
 10
69.2947
 20
40.8838
 30
0.0
 11
69.2947
 21
54.8831
 31
0.0
  0
LINE
  8
0
 62
     0
 10
50.2447
 20
54.8831
 30
0.0
 11
64.244
 21
54.8831
 31
0.0
  0
LINE
  8
0
 62
     0
 10
64.244
 20
54.8831
 30
0.0
 11
64.244
 21
40.8838
 31
0.0
  0
LINE
  8
0
 62
     0
 10
64.244
 20
40.8838
 30
0.0
 11
50.2447
 21
40.8838
 31
0.0
  0
LINE
  8
0
 62
     0
 10
50.2447
 20
40.8838
 30
0.0
 11
50.2447
 21
54.8831
 31
0.0
  0
LINE
  8
0
 62
     0
 10
31.1947
 20
54.8831
 30
0.0
 11
45.194
 21
54.8831
 31
0.0
  0
LINE
  8
0
 62
     0
 10
45.194
 20
54.8831
 30
0.0
 11
45.194
 21
40.8838
 31
0.0
  0
LINE
  8
0
 62
     0
 10
45.194
 20
40.8838
 30
0.0
 11
31.1947
 21
40.8838
 31
0.0
  0
LINE
  8
0
 62
     0
 10
31.1947
 20
40.8838
 30
0.0
 11
31.1947
 21
54.8831
 31
0.0
  0
LINE
  8
0
 62
     0
 10
7.38216
 20
54.8831
 30
0.0
 11
21.3817
 21
54.8831
 31
0.0
  0
LINE
  8
0
 62
     0
 10
21.3817
 20
54.8831
 30
0.0
 11
21.3817
 21
40.8838
 31
0.0
  0
LINE
  8
0
 62
     0
 10
21.3817
 20
40.8838
 30
0.0
 11
7.38216
 21
40.8838
 31
0.0
  0
LINE
  8
0
 62
     0
 10
7.38216
 20
40.8838
 30
0.0
 11
7.38216
 21
54.8831
 31
0.0
  0
LINE
  8
0
 62
     0
 10
230.576
 20
73.5087
 30
0.0
 11
230.576
 21
72.6832
 31
0.0
  0
LINE
  8
0
 62
     0
 10
230.576
 20
72.6832
 30
0.0
 11
224.306
 21
72.6832
 31
0.0
  0
LINE
  8
0
 62
     0
 10
224.306
 20
72.6832
 30
0.0
 11
224.306
 21
70.9581
 31
0.0
  0
LINE
  8
0
 62
     0
 10
224.306
 20
70.9581
 30
0.0
 11
223.325
 21
70.9581
 31
0.0
  0
LINE
  8
0
 62
     0
 10
223.325
 20
70.9581
 30
0.0
 11
223.325
 21
67.6589
 31
0.0
  0
LINE
  8
0
 62
     0
 10
223.325
 20
67.6589
 30
0.0
 11
224.306
 21
67.6589
 31
0.0
  0
LINE
  8
0
 62
     0
 10
224.306
 20
67.6589
 30
0.0
 11
224.306
 21
65.9335
 31
0.0
  0
LINE
  8
0
 62
     0
 10
224.306
 20
65.9335
 30
0.0
 11
228.775
 21
65.9335
 31
0.0
  0
LINE
  8
0
 62
     0
 10
228.775
 20
65.9335
 30
0.0
 11
228.775
 21
64.4081
 31
0.0
  0
LINE
  8
0
 62
     0
 10
228.775
 20
64.4081
 30
0.0
 11
224.076
 21
64.4081
 31
0.0
  0
LINE
  8
0
 62
     0
 10
224.076
 20
64.4081
 30
0.0
 11
224.076
 21
50.4088
 31
0.0
  0
LINE
  8
0
 62
     0
 10
224.076
 20
50.4088
 30
0.0
 11
228.775
 21
50.4088
 31
0.0
  0
LINE
  8
0
 62
     0
 10
228.775
 20
50.4088
 30
0.0
 11
228.775
 21
48.883
 31
0.0
  0
LINE
  8
0
 62
     0
 10
228.775
 20
48.883
 30
0.0
 11
224.306
 21
48.883
 31
0.0
  0
LINE
  8
0
 62
     0
 10
224.306
 20
48.883
 30
0.0
 11
224.306
 21
47.1579
 31
0.0
  0
LINE
  8
0
 62
     0
 10
224.306
 20
47.1579
 30
0.0
 11
223.325
 21
47.1579
 31
0.0
  0
LINE
  8
0
 62
     0
 10
223.325
 20
47.1579
 30
0.0
 11
223.325
 21
43.8587
 31
0.0
  0
LINE
  8
0
 62
     0
 10
223.325
 20
43.8587
 30
0.0
 11
224.306
 21
43.8587
 31
0.0
  0
LINE
  8
0
 62
     0
 10
224.306
 20
43.8587
 30
0.0
 11
224.306
 21
42.1337
 31
0.0
  0
LINE
  8
0
 62
     0
 10
224.306
 20
42.1337
 30
0.0
 11
230.576
 21
42.1337
 31
0.0
  0
LINE
  8
0
 62
     0
 10
230.576
 20
42.1337
 30
0.0
 11
230.576
 21
41.3082
 31
0.0
  0
LINE
  8
0
 62
     0
 10
230.576
 20
41.3082
 30
0.0
 11
233.375
 21
41.3082
 31
0.0
  0
LINE
  8
0
 62
     0
 10
233.375
 20
41.3082
 30
0.0
 11
233.375
 21
42.1337
 31
0.0
  0
LINE
  8
0
 62
     0
 10
233.375
 20
42.1337
 30
0.0
 11
236.605
 21
42.1337
 31
0.0
  0
LINE
  8
0
 62
     0
 10
236.605
 20
42.1337
 30
0.0
 11
236.605
 21
43.8587
 31
0.0
  0
LINE
  8
0
 62
     0
 10
236.605
 20
43.8587
 30
0.0
 11
237.526
 21
43.8587
 31
0.0
  0
LINE
  8
0
 62
     0
 10
237.526
 20
43.8587
 30
0.0
 11
237.526
 21
47.1579
 31
0.0
  0
LINE
  8
0
 62
     0
 10
237.526
 20
47.1579
 30
0.0
 11
236.605
 21
47.1579
 31
0.0
  0
LINE
  8
0
 62
     0
 10
236.605
 20
47.1579
 30
0.0
 11
236.605
 21
48.883
 31
0.0
  0
LINE
  8
0
 62
     0
 10
236.605
 20
48.883
 30
0.0
 11
233.375
 21
48.883
 31
0.0
  0
LINE
  8
0
 62
     0
 10
233.375
 20
48.883
 30
0.0
 11
233.375
 21
50.4088
 31
0.0
  0
LINE
  8
0
 62
     0
 10
233.375
 20
50.4088
 30
0.0
 11
238.075
 21
50.4088
 31
0.0
  0
LINE
  8
0
 62
     0
 10
238.075
 20
50.4088
 30
0.0
 11
238.075
 21
64.4081
 31
0.0
  0
LINE
  8
0
 62
     0
 10
238.075
 20
64.4081
 30
0.0
 11
233.375
 21
64.4081
 31
0.0
  0
LINE
  8
0
 62
     0
 10
233.375
 20
64.4081
 30
0.0
 11
233.375
 21
65.9335
 31
0.0
  0
LINE
  8
0
 62
     0
 10
233.375
 20
65.9335
 30
0.0
 11
236.605
 21
65.9335
 31
0.0
  0
LINE
  8
0
 62
     0
 10
236.605
 20
65.9335
 30
0.0
 11
236.605
 21
67.6589
 31
0.0
  0
LINE
  8
0
 62
     0
 10
236.605
 20
67.6589
 30
0.0
 11
237.526
 21
67.6589
 31
0.0
  0
LINE
  8
0
 62
     0
 10
237.526
 20
67.6589
 30
0.0
 11
237.526
 21
70.9581
 31
0.0
  0
LINE
  8
0
 62
     0
 10
237.526
 20
70.9581
 30
0.0
 11
236.605
 21
70.9581
 31
0.0
  0
LINE
  8
0
 62
     0
 10
236.605
 20
70.9581
 30
0.0
 11
236.605
 21
72.6832
 31
0.0
  0
LINE
  8
0
 62
     0
 10
236.605
 20
72.6832
 30
0.0
 11
233.375
 21
72.6832
 31
0.0
  0
LINE
  8
0
 62
     0
 10
233.375
 20
72.6832
 30
0.0
 11
233.375
 21
73.5087
 31
0.0
  0
LINE
  8
0
 62
     0
 10
233.375
 20
73.5087
 30
0.0
 11
230.576
 21
73.5087
 31
0.0
  0
LINE
  8
0
 62
     0
 10
197.882
 20
73.9331
 30
0.0
 11
211.882
 21
73.9331
 31
0.0
  0
LINE
  8
0
 62
     0
 10
211.882
 20
73.9331
 30
0.0
 11
211.882
 21
59.9338
 31
0.0
  0
LINE
  8
0
 62
     0
 10
211.882
 20
59.9338
 30
0.0
 11
197.882
 21
59.9338
 31
0.0
  0
LINE
  8
0
 62
     0
 10
197.882
 20
59.9338
 30
0.0
 11
197.882
 21
73.9331
 31
0.0
  0
LINE
  8
0
 62
     0
 10
178.832
 20
73.9331
 30
0.0
 11
192.832
 21
73.9331
 31
0.0
  0
LINE
  8
0
 62
     0
 10
192.832
 20
73.9331
 30
0.0
 11
192.832
 21
59.9338
 31
0.0
  0
LINE
  8
0
 62
     0
 10
192.832
 20
59.9338
 30
0.0
 11
178.832
 21
59.9338
 31
0.0
  0
LINE
  8
0
 62
     0
 10
178.832
 20
59.9338
 30
0.0
 11
178.832
 21
73.9331
 31
0.0
  0
LINE
  8
0
 62
     0
 10
159.782
 20
73.9331
 30
0.0
 11
173.782
 21
73.9331
 31
0.0
  0
LINE
  8
0
 62
     0
 10
173.782
 20
73.9331
 30
0.0
 11
173.782
 21
59.9338
 31
0.0
  0
LINE
  8
0
 62
     0
 10
173.782
 20
59.9338
 30
0.0
 11
159.782
 21
59.9338
 31
0.0
  0
LINE
  8
0
 62
     0
 10
159.782
 20
59.9338
 30
0.0
 11
159.782
 21
73.9331
 31
0.0
  0
LINE
  8
0
 62
     0
 10
140.732
 20
73.9331
 30
0.0
 11
154.732
 21
73.9331
 31
0.0
  0
LINE
  8
0
 62
     0
 10
154.732
 20
73.9331
 30
0.0
 11
154.732
 21
59.9338
 31
0.0
  0
LINE
  8
0
 62
     0
 10
154.732
 20
59.9338
 30
0.0
 11
140.732
 21
59.9338
 31
0.0
  0
LINE
  8
0
 62
     0
 10
140.732
 20
59.9338
 30
0.0
 11
140.732
 21
73.9331
 31
0.0
  0
LINE
  8
0
 62
     0
 10
121.682
 20
73.9331
 30
0.0
 11
135.682
 21
73.9331
 31
0.0
  0
LINE
  8
0
 62
     0
 10
135.682
 20
73.9331
 30
0.0
 11
135.682
 21
59.9338
 31
0.0
  0
LINE
  8
0
 62
     0
 10
135.682
 20
59.9338
 30
0.0
 11
121.682
 21
59.9338
 31
0.0
  0
LINE
  8
0
 62
     0
 10
121.682
 20
59.9338
 30
0.0
 11
121.682
 21
73.9331
 31
0.0
  0
LINE
  8
0
 62
     0
 10
102.632
 20
73.9331
 30
0.0
 11
116.632
 21
73.9331
 31
0.0
  0
LINE
  8
0
 62
     0
 10
116.632
 20
73.9331
 30
0.0
 11
116.632
 21
59.9338
 31
0.0
  0
LINE
  8
0
 62
     0
 10
116.632
 20
59.9338
 30
0.0
 11
102.632
 21
59.9338
 31
0.0
  0
LINE
  8
0
 62
     0
 10
102.632
 20
59.9338
 30
0.0
 11
102.632
 21
73.9331
 31
0.0
  0
LINE
  8
0
 62
     0
 10
83.5822
 20
73.9331
 30
0.0
 11
97.5815
 21
73.9331
 31
0.0
  0
LINE
  8
0
 62
     0
 10
97.5815
 20
73.9331
 30
0.0
 11
97.5815
 21
59.9338
 31
0.0
  0
LINE
  8
0
 62
     0
 10
97.5815
 20
59.9338
 30
0.0
 11
83.5822
 21
59.9338
 31
0.0
  0
LINE
  8
0
 62
     0
 10
83.5822
 20
59.9338
 30
0.0
 11
83.5822
 21
73.9331
 31
0.0
  0
LINE
  8
0
 62
     0
 10
64.5322
 20
73.9331
 30
0.0
 11
78.5315
 21
73.9331
 31
0.0
  0
LINE
  8
0
 62
     0
 10
78.5315
 20
73.9331
 30
0.0
 11
78.5315
 21
59.9338
 31
0.0
  0
LINE
  8
0
 62
     0
 10
78.5315
 20
59.9338
 30
0.0
 11
64.5322
 21
59.9338
 31
0.0
  0
LINE
  8
0
 62
     0
 10
64.5322
 20
59.9338
 30
0.0
 11
64.5322
 21
73.9331
 31
0.0
  0
LINE
  8
0
 62
     0
 10
45.4822
 20
73.9331
 30
0.0
 11
59.4815
 21
73.9331
 31
0.0
  0
LINE
  8
0
 62
     0
 10
59.4815
 20
73.9331
 30
0.0
 11
59.4815
 21
59.9338
 31
0.0
  0
LINE
  8
0
 62
     0
 10
59.4815
 20
59.9338
 30
0.0
 11
45.4822
 21
59.9338
 31
0.0
  0
LINE
  8
0
 62
     0
 10
45.4822
 20
59.9338
 30
0.0
 11
45.4822
 21
73.9331
 31
0.0
  0
LINE
  8
0
 62
     0
 10
26.4322
 20
73.9331
 30
0.0
 11
40.4315
 21
73.9331
 31
0.0
  0
LINE
  8
0
 62
     0
 10
40.4315
 20
73.9331
 30
0.0
 11
40.4315
 21
59.9338
 31
0.0
  0
LINE
  8
0
 62
     0
 10
40.4315
 20
59.9338
 30
0.0
 11
26.4322
 21
59.9338
 31
0.0
  0
LINE
  8
0
 62
     0
 10
26.4322
 20
59.9338
 30
0.0
 11
26.4322
 21
73.9331
 31
0.0
  0
LINE
  8
0
 62
     0
 10
2.61965
 20
73.9331
 30
0.0
 11
16.6192
 21
73.9331
 31
0.0
  0
LINE
  8
0
 62
     0
 10
16.6192
 20
73.9331
 30
0.0
 11
16.6192
 21
59.9338
 31
0.0
  0
LINE
  8
0
 62
     0
 10
16.6192
 20
59.9338
 30
0.0
 11
2.61965
 21
59.9338
 31
0.0
  0
LINE
  8
0
 62
     0
 10
2.61965
 20
59.9338
 30
0.0
 11
2.61965
 21
73.9331
 31
0.0
  0
ENDSEC
  0
EOF
