G04 #@! TF.GenerationSoftware,KiCad,Pcbnew,(5.1.9)-1*
G04 #@! TF.CreationDate,2021-04-17T19:28:57+02:00*
G04 #@! TF.ProjectId,isio42_pcb,6973696f-3432-45f7-9063-622e6b696361,rev?*
G04 #@! TF.SameCoordinates,Original*
G04 #@! TF.FileFunction,Legend,Top*
G04 #@! TF.FilePolarity,Positive*
%FSLAX46Y46*%
G04 Gerber Fmt 4.6, Leading zero omitted, Abs format (unit mm)*
G04 Created by KiCad (PCBNEW (5.1.9)-1) date 2021-04-17 19:28:57*
%MOMM*%
%LPD*%
G01*
G04 APERTURE LIST*
%ADD10C,0.120000*%
%ADD11C,0.010000*%
%ADD12C,0.100000*%
G04 APERTURE END LIST*
D10*
X246249879Y-90487500D02*
G75*
G03*
X246249879Y-90487500I-1774879J0D01*
G01*
X243074879Y-41275000D02*
G75*
G03*
X243074879Y-41275000I-1774879J0D01*
G01*
X152587379Y-50800000D02*
G75*
G03*
X152587379Y-50800000I-1774879J0D01*
G01*
X47812379Y-90487500D02*
G75*
G03*
X47812379Y-90487500I-1774879J0D01*
G01*
X38287379Y-51593750D02*
G75*
G03*
X38287379Y-51593750I-1774879J0D01*
G01*
D11*
G36*
X236570981Y-102766061D02*
G01*
X236688253Y-102772027D01*
X236777330Y-102783036D01*
X236842877Y-102799597D01*
X236889557Y-102822215D01*
X236912611Y-102841021D01*
X236945285Y-102880871D01*
X236955572Y-102922474D01*
X236949283Y-102981893D01*
X236928342Y-103072218D01*
X236891016Y-103196125D01*
X236839192Y-103349011D01*
X236774759Y-103526272D01*
X236699607Y-103723304D01*
X236615623Y-103935505D01*
X236524696Y-104158270D01*
X236428715Y-104386996D01*
X236329568Y-104617080D01*
X236229144Y-104843918D01*
X236129332Y-105062906D01*
X236032019Y-105269441D01*
X235939095Y-105458919D01*
X235907624Y-105521008D01*
X235836618Y-105664563D01*
X235786220Y-105777297D01*
X235757151Y-105857484D01*
X235749756Y-105898923D01*
X235769781Y-105976761D01*
X235824463Y-106071749D01*
X235911519Y-106180360D01*
X235975708Y-106247969D01*
X236136802Y-106384430D01*
X236306828Y-106481261D01*
X236483823Y-106537563D01*
X236639927Y-106552882D01*
X236753992Y-106547587D01*
X236844128Y-106528129D01*
X236923086Y-106488760D01*
X237003617Y-106423734D01*
X237067412Y-106360228D01*
X237207078Y-106214333D01*
X237336775Y-106214333D01*
X237417416Y-106217650D01*
X237471764Y-106230436D01*
X237515539Y-106256948D01*
X237525861Y-106265518D01*
X237556669Y-106295312D01*
X237574271Y-106326467D01*
X237582105Y-106371333D01*
X237583612Y-106442263D01*
X237583327Y-106471893D01*
X237565598Y-106664320D01*
X237515629Y-106857880D01*
X237431000Y-107061739D01*
X237423627Y-107076810D01*
X237320473Y-107252464D01*
X237201856Y-107390191D01*
X237064473Y-107492611D01*
X236905017Y-107562347D01*
X236771223Y-107594390D01*
X236577494Y-107606975D01*
X236388410Y-107577848D01*
X236204572Y-107507436D01*
X236026585Y-107396165D01*
X235855052Y-107244464D01*
X235690576Y-107052759D01*
X235533762Y-106821479D01*
X235435227Y-106648250D01*
X235394611Y-106572467D01*
X235361671Y-106511955D01*
X235341304Y-106475668D01*
X235337454Y-106469512D01*
X235321190Y-106478928D01*
X235287809Y-106513267D01*
X235262113Y-106543595D01*
X235118717Y-106706862D01*
X234955278Y-106869930D01*
X234779549Y-107026468D01*
X234599282Y-107170145D01*
X234422228Y-107294628D01*
X234256138Y-107393585D01*
X234169520Y-107436065D01*
X233998717Y-107498253D01*
X233800231Y-107548022D01*
X233587099Y-107583659D01*
X233372356Y-107603449D01*
X233169039Y-107605679D01*
X232998729Y-107590031D01*
X232744971Y-107532731D01*
X232494480Y-107444251D01*
X232259189Y-107329585D01*
X232051031Y-107193729D01*
X232050167Y-107193072D01*
X231839337Y-107011422D01*
X231660766Y-106810742D01*
X231513399Y-106588701D01*
X231396184Y-106342971D01*
X231308067Y-106071223D01*
X231247994Y-105771128D01*
X231214911Y-105440356D01*
X231210131Y-105335917D01*
X231210719Y-105194903D01*
X231733034Y-105194903D01*
X231740541Y-105399208D01*
X231763889Y-105574584D01*
X231805314Y-105732192D01*
X231867053Y-105883190D01*
X231873680Y-105896833D01*
X231983696Y-106074077D01*
X232125869Y-106223850D01*
X232300082Y-106346080D01*
X232506219Y-106440691D01*
X232744164Y-106507611D01*
X232871729Y-106530182D01*
X233013035Y-106544757D01*
X233161998Y-106549658D01*
X233304668Y-106545103D01*
X233427100Y-106531312D01*
X233477809Y-106520649D01*
X233672315Y-106449202D01*
X233866803Y-106336714D01*
X234059462Y-106184436D01*
X234248482Y-105993623D01*
X234263300Y-105976837D01*
X234350605Y-105870520D01*
X234439320Y-105750772D01*
X234525504Y-105624159D01*
X234605219Y-105497249D01*
X234674524Y-105376607D01*
X234729481Y-105268801D01*
X234766149Y-105180398D01*
X234780589Y-105117964D01*
X234780667Y-105114444D01*
X234769711Y-105062645D01*
X234739775Y-104984129D01*
X234695257Y-104887471D01*
X234640554Y-104781246D01*
X234580063Y-104674029D01*
X234518182Y-104574397D01*
X234464240Y-104497380D01*
X234299864Y-104305559D01*
X234123335Y-104150225D01*
X233928286Y-104025927D01*
X233890427Y-104006282D01*
X233696559Y-103923428D01*
X233499640Y-103870118D01*
X233291878Y-103845380D01*
X233065482Y-103848245D01*
X232833333Y-103874531D01*
X232635082Y-103913040D01*
X232461138Y-103966403D01*
X232294535Y-104040055D01*
X232258880Y-104058615D01*
X232102171Y-104162543D01*
X231974083Y-104292769D01*
X231873930Y-104450772D01*
X231801026Y-104638034D01*
X231754687Y-104856036D01*
X231734226Y-105106260D01*
X231733034Y-105194903D01*
X231210719Y-105194903D01*
X231211666Y-104968400D01*
X231242919Y-104630409D01*
X231304333Y-104320889D01*
X231396351Y-104038786D01*
X231519418Y-103783043D01*
X231673976Y-103552607D01*
X231860471Y-103346423D01*
X232079345Y-103163435D01*
X232142901Y-103118649D01*
X232381157Y-102979550D01*
X232631925Y-102875936D01*
X232890453Y-102808204D01*
X233151989Y-102776748D01*
X233411781Y-102781964D01*
X233665079Y-102824249D01*
X233907131Y-102903996D01*
X234029250Y-102961596D01*
X234168477Y-103052738D01*
X234313783Y-103181388D01*
X234462120Y-103343717D01*
X234610440Y-103535895D01*
X234755694Y-103754092D01*
X234894833Y-103994479D01*
X234975125Y-104149814D01*
X235025637Y-104251534D01*
X235069430Y-104338968D01*
X235103153Y-104405484D01*
X235123453Y-104444448D01*
X235127739Y-104451795D01*
X235139178Y-104436936D01*
X235163783Y-104386359D01*
X235199941Y-104304017D01*
X235246035Y-104193861D01*
X235300450Y-104059841D01*
X235361572Y-103905910D01*
X235427784Y-103736018D01*
X235497472Y-103554118D01*
X235532072Y-103462667D01*
X235596208Y-103293901D01*
X235648445Y-103160257D01*
X235690952Y-103056927D01*
X235725893Y-102979104D01*
X235755437Y-102921979D01*
X235781750Y-102880746D01*
X235806998Y-102850598D01*
X235808727Y-102848833D01*
X235882018Y-102774750D01*
X236233199Y-102767236D01*
X236420852Y-102764633D01*
X236570981Y-102766061D01*
G37*
X236570981Y-102766061D02*
X236688253Y-102772027D01*
X236777330Y-102783036D01*
X236842877Y-102799597D01*
X236889557Y-102822215D01*
X236912611Y-102841021D01*
X236945285Y-102880871D01*
X236955572Y-102922474D01*
X236949283Y-102981893D01*
X236928342Y-103072218D01*
X236891016Y-103196125D01*
X236839192Y-103349011D01*
X236774759Y-103526272D01*
X236699607Y-103723304D01*
X236615623Y-103935505D01*
X236524696Y-104158270D01*
X236428715Y-104386996D01*
X236329568Y-104617080D01*
X236229144Y-104843918D01*
X236129332Y-105062906D01*
X236032019Y-105269441D01*
X235939095Y-105458919D01*
X235907624Y-105521008D01*
X235836618Y-105664563D01*
X235786220Y-105777297D01*
X235757151Y-105857484D01*
X235749756Y-105898923D01*
X235769781Y-105976761D01*
X235824463Y-106071749D01*
X235911519Y-106180360D01*
X235975708Y-106247969D01*
X236136802Y-106384430D01*
X236306828Y-106481261D01*
X236483823Y-106537563D01*
X236639927Y-106552882D01*
X236753992Y-106547587D01*
X236844128Y-106528129D01*
X236923086Y-106488760D01*
X237003617Y-106423734D01*
X237067412Y-106360228D01*
X237207078Y-106214333D01*
X237336775Y-106214333D01*
X237417416Y-106217650D01*
X237471764Y-106230436D01*
X237515539Y-106256948D01*
X237525861Y-106265518D01*
X237556669Y-106295312D01*
X237574271Y-106326467D01*
X237582105Y-106371333D01*
X237583612Y-106442263D01*
X237583327Y-106471893D01*
X237565598Y-106664320D01*
X237515629Y-106857880D01*
X237431000Y-107061739D01*
X237423627Y-107076810D01*
X237320473Y-107252464D01*
X237201856Y-107390191D01*
X237064473Y-107492611D01*
X236905017Y-107562347D01*
X236771223Y-107594390D01*
X236577494Y-107606975D01*
X236388410Y-107577848D01*
X236204572Y-107507436D01*
X236026585Y-107396165D01*
X235855052Y-107244464D01*
X235690576Y-107052759D01*
X235533762Y-106821479D01*
X235435227Y-106648250D01*
X235394611Y-106572467D01*
X235361671Y-106511955D01*
X235341304Y-106475668D01*
X235337454Y-106469512D01*
X235321190Y-106478928D01*
X235287809Y-106513267D01*
X235262113Y-106543595D01*
X235118717Y-106706862D01*
X234955278Y-106869930D01*
X234779549Y-107026468D01*
X234599282Y-107170145D01*
X234422228Y-107294628D01*
X234256138Y-107393585D01*
X234169520Y-107436065D01*
X233998717Y-107498253D01*
X233800231Y-107548022D01*
X233587099Y-107583659D01*
X233372356Y-107603449D01*
X233169039Y-107605679D01*
X232998729Y-107590031D01*
X232744971Y-107532731D01*
X232494480Y-107444251D01*
X232259189Y-107329585D01*
X232051031Y-107193729D01*
X232050167Y-107193072D01*
X231839337Y-107011422D01*
X231660766Y-106810742D01*
X231513399Y-106588701D01*
X231396184Y-106342971D01*
X231308067Y-106071223D01*
X231247994Y-105771128D01*
X231214911Y-105440356D01*
X231210131Y-105335917D01*
X231210719Y-105194903D01*
X231733034Y-105194903D01*
X231740541Y-105399208D01*
X231763889Y-105574584D01*
X231805314Y-105732192D01*
X231867053Y-105883190D01*
X231873680Y-105896833D01*
X231983696Y-106074077D01*
X232125869Y-106223850D01*
X232300082Y-106346080D01*
X232506219Y-106440691D01*
X232744164Y-106507611D01*
X232871729Y-106530182D01*
X233013035Y-106544757D01*
X233161998Y-106549658D01*
X233304668Y-106545103D01*
X233427100Y-106531312D01*
X233477809Y-106520649D01*
X233672315Y-106449202D01*
X233866803Y-106336714D01*
X234059462Y-106184436D01*
X234248482Y-105993623D01*
X234263300Y-105976837D01*
X234350605Y-105870520D01*
X234439320Y-105750772D01*
X234525504Y-105624159D01*
X234605219Y-105497249D01*
X234674524Y-105376607D01*
X234729481Y-105268801D01*
X234766149Y-105180398D01*
X234780589Y-105117964D01*
X234780667Y-105114444D01*
X234769711Y-105062645D01*
X234739775Y-104984129D01*
X234695257Y-104887471D01*
X234640554Y-104781246D01*
X234580063Y-104674029D01*
X234518182Y-104574397D01*
X234464240Y-104497380D01*
X234299864Y-104305559D01*
X234123335Y-104150225D01*
X233928286Y-104025927D01*
X233890427Y-104006282D01*
X233696559Y-103923428D01*
X233499640Y-103870118D01*
X233291878Y-103845380D01*
X233065482Y-103848245D01*
X232833333Y-103874531D01*
X232635082Y-103913040D01*
X232461138Y-103966403D01*
X232294535Y-104040055D01*
X232258880Y-104058615D01*
X232102171Y-104162543D01*
X231974083Y-104292769D01*
X231873930Y-104450772D01*
X231801026Y-104638034D01*
X231754687Y-104856036D01*
X231734226Y-105106260D01*
X231733034Y-105194903D01*
X231210719Y-105194903D01*
X231211666Y-104968400D01*
X231242919Y-104630409D01*
X231304333Y-104320889D01*
X231396351Y-104038786D01*
X231519418Y-103783043D01*
X231673976Y-103552607D01*
X231860471Y-103346423D01*
X232079345Y-103163435D01*
X232142901Y-103118649D01*
X232381157Y-102979550D01*
X232631925Y-102875936D01*
X232890453Y-102808204D01*
X233151989Y-102776748D01*
X233411781Y-102781964D01*
X233665079Y-102824249D01*
X233907131Y-102903996D01*
X234029250Y-102961596D01*
X234168477Y-103052738D01*
X234313783Y-103181388D01*
X234462120Y-103343717D01*
X234610440Y-103535895D01*
X234755694Y-103754092D01*
X234894833Y-103994479D01*
X234975125Y-104149814D01*
X235025637Y-104251534D01*
X235069430Y-104338968D01*
X235103153Y-104405484D01*
X235123453Y-104444448D01*
X235127739Y-104451795D01*
X235139178Y-104436936D01*
X235163783Y-104386359D01*
X235199941Y-104304017D01*
X235246035Y-104193861D01*
X235300450Y-104059841D01*
X235361572Y-103905910D01*
X235427784Y-103736018D01*
X235497472Y-103554118D01*
X235532072Y-103462667D01*
X235596208Y-103293901D01*
X235648445Y-103160257D01*
X235690952Y-103056927D01*
X235725893Y-102979104D01*
X235755437Y-102921979D01*
X235781750Y-102880746D01*
X235806998Y-102850598D01*
X235808727Y-102848833D01*
X235882018Y-102774750D01*
X236233199Y-102767236D01*
X236420852Y-102764633D01*
X236570981Y-102766061D01*
G36*
X262276167Y-102750578D02*
G01*
X262507936Y-102763768D01*
X262709819Y-102786907D01*
X262893515Y-102822038D01*
X263070728Y-102871206D01*
X263178554Y-102908201D01*
X263435121Y-103023178D01*
X263664788Y-103170120D01*
X263866508Y-103347470D01*
X264039232Y-103553669D01*
X264181912Y-103787159D01*
X264293498Y-104046381D01*
X264372942Y-104329778D01*
X264419195Y-104635790D01*
X264428226Y-104765383D01*
X264432674Y-104916620D01*
X264429058Y-105031452D01*
X264416265Y-105115236D01*
X264393183Y-105173326D01*
X264358700Y-105211076D01*
X264332550Y-105225981D01*
X264309010Y-105230966D01*
X264260722Y-105235438D01*
X264185838Y-105239430D01*
X264082505Y-105242977D01*
X263948874Y-105246111D01*
X263783094Y-105248866D01*
X263583314Y-105251275D01*
X263347685Y-105253372D01*
X263074356Y-105255189D01*
X262761476Y-105256761D01*
X262588375Y-105257470D01*
X260900333Y-105263938D01*
X260900351Y-105321094D01*
X260904170Y-105414579D01*
X260914464Y-105535896D01*
X260929560Y-105671336D01*
X260947784Y-105807191D01*
X260967462Y-105929751D01*
X260985708Y-106020238D01*
X261061553Y-106278923D01*
X261159186Y-106502046D01*
X261279965Y-106691121D01*
X261425251Y-106847667D01*
X261596405Y-106973198D01*
X261794786Y-107069232D01*
X261978498Y-107126974D01*
X262057584Y-107145280D01*
X262129250Y-107157214D01*
X262204869Y-107163571D01*
X262295818Y-107165146D01*
X262413472Y-107162735D01*
X262465331Y-107161017D01*
X262642608Y-107151182D01*
X262790457Y-107133614D01*
X262921491Y-107105544D01*
X263048321Y-107064200D01*
X263183562Y-107006812D01*
X263198138Y-107000035D01*
X263416654Y-106879310D01*
X263600135Y-106737100D01*
X263751527Y-106570622D01*
X263873778Y-106377087D01*
X263889397Y-106346337D01*
X263943457Y-106243695D01*
X263991028Y-106174964D01*
X264040214Y-106134321D01*
X264099122Y-106115938D01*
X264175857Y-106113992D01*
X264209607Y-106116208D01*
X264317774Y-106138128D01*
X264391152Y-106183666D01*
X264429761Y-106252341D01*
X264433620Y-106343675D01*
X264402746Y-106457188D01*
X264337158Y-106592403D01*
X264236875Y-106748839D01*
X264182192Y-106823703D01*
X264008595Y-107023257D01*
X263810766Y-107192794D01*
X263586139Y-107333847D01*
X263332149Y-107447952D01*
X263046231Y-107536641D01*
X262953500Y-107558598D01*
X262883764Y-107569387D01*
X262780615Y-107579368D01*
X262652969Y-107588223D01*
X262509742Y-107595635D01*
X262359852Y-107601284D01*
X262212215Y-107604853D01*
X262075748Y-107606024D01*
X261959367Y-107604477D01*
X261871990Y-107599894D01*
X261852833Y-107597889D01*
X261497667Y-107537340D01*
X261171508Y-107447088D01*
X260872393Y-107326288D01*
X260598355Y-107174096D01*
X260347432Y-106989667D01*
X260260575Y-106913565D01*
X260057351Y-106698962D01*
X259885187Y-106457953D01*
X259745429Y-106194288D01*
X259639427Y-105911717D01*
X259568529Y-105613990D01*
X259534082Y-105304856D01*
X259537434Y-104988066D01*
X259543309Y-104918429D01*
X259548812Y-104880833D01*
X260900982Y-104880833D01*
X263412066Y-104880833D01*
X263404317Y-104759125D01*
X263372015Y-104444936D01*
X263317380Y-104164126D01*
X263240659Y-103917449D01*
X263142100Y-103705656D01*
X263021952Y-103529501D01*
X262984293Y-103486468D01*
X262836213Y-103351519D01*
X262673285Y-103252688D01*
X262490284Y-103187581D01*
X262281985Y-103153801D01*
X262253727Y-103151650D01*
X262019660Y-103154113D01*
X261804455Y-103194280D01*
X261608433Y-103272040D01*
X261431918Y-103387280D01*
X261339956Y-103469896D01*
X261245972Y-103574114D01*
X261166774Y-103686258D01*
X261100675Y-103811377D01*
X261045987Y-103954521D01*
X261001025Y-104120739D01*
X260964102Y-104315081D01*
X260933530Y-104542596D01*
X260912810Y-104748542D01*
X260900982Y-104880833D01*
X259548812Y-104880833D01*
X259588062Y-104612695D01*
X259661272Y-104333914D01*
X259765507Y-104075541D01*
X259903338Y-103831033D01*
X260050271Y-103627396D01*
X260236095Y-103421082D01*
X260444093Y-103243989D01*
X260680814Y-103090988D01*
X260841613Y-103007536D01*
X261105561Y-102899072D01*
X261384106Y-102820363D01*
X261682130Y-102770535D01*
X262004514Y-102748714D01*
X262276167Y-102750578D01*
G37*
X262276167Y-102750578D02*
X262507936Y-102763768D01*
X262709819Y-102786907D01*
X262893515Y-102822038D01*
X263070728Y-102871206D01*
X263178554Y-102908201D01*
X263435121Y-103023178D01*
X263664788Y-103170120D01*
X263866508Y-103347470D01*
X264039232Y-103553669D01*
X264181912Y-103787159D01*
X264293498Y-104046381D01*
X264372942Y-104329778D01*
X264419195Y-104635790D01*
X264428226Y-104765383D01*
X264432674Y-104916620D01*
X264429058Y-105031452D01*
X264416265Y-105115236D01*
X264393183Y-105173326D01*
X264358700Y-105211076D01*
X264332550Y-105225981D01*
X264309010Y-105230966D01*
X264260722Y-105235438D01*
X264185838Y-105239430D01*
X264082505Y-105242977D01*
X263948874Y-105246111D01*
X263783094Y-105248866D01*
X263583314Y-105251275D01*
X263347685Y-105253372D01*
X263074356Y-105255189D01*
X262761476Y-105256761D01*
X262588375Y-105257470D01*
X260900333Y-105263938D01*
X260900351Y-105321094D01*
X260904170Y-105414579D01*
X260914464Y-105535896D01*
X260929560Y-105671336D01*
X260947784Y-105807191D01*
X260967462Y-105929751D01*
X260985708Y-106020238D01*
X261061553Y-106278923D01*
X261159186Y-106502046D01*
X261279965Y-106691121D01*
X261425251Y-106847667D01*
X261596405Y-106973198D01*
X261794786Y-107069232D01*
X261978498Y-107126974D01*
X262057584Y-107145280D01*
X262129250Y-107157214D01*
X262204869Y-107163571D01*
X262295818Y-107165146D01*
X262413472Y-107162735D01*
X262465331Y-107161017D01*
X262642608Y-107151182D01*
X262790457Y-107133614D01*
X262921491Y-107105544D01*
X263048321Y-107064200D01*
X263183562Y-107006812D01*
X263198138Y-107000035D01*
X263416654Y-106879310D01*
X263600135Y-106737100D01*
X263751527Y-106570622D01*
X263873778Y-106377087D01*
X263889397Y-106346337D01*
X263943457Y-106243695D01*
X263991028Y-106174964D01*
X264040214Y-106134321D01*
X264099122Y-106115938D01*
X264175857Y-106113992D01*
X264209607Y-106116208D01*
X264317774Y-106138128D01*
X264391152Y-106183666D01*
X264429761Y-106252341D01*
X264433620Y-106343675D01*
X264402746Y-106457188D01*
X264337158Y-106592403D01*
X264236875Y-106748839D01*
X264182192Y-106823703D01*
X264008595Y-107023257D01*
X263810766Y-107192794D01*
X263586139Y-107333847D01*
X263332149Y-107447952D01*
X263046231Y-107536641D01*
X262953500Y-107558598D01*
X262883764Y-107569387D01*
X262780615Y-107579368D01*
X262652969Y-107588223D01*
X262509742Y-107595635D01*
X262359852Y-107601284D01*
X262212215Y-107604853D01*
X262075748Y-107606024D01*
X261959367Y-107604477D01*
X261871990Y-107599894D01*
X261852833Y-107597889D01*
X261497667Y-107537340D01*
X261171508Y-107447088D01*
X260872393Y-107326288D01*
X260598355Y-107174096D01*
X260347432Y-106989667D01*
X260260575Y-106913565D01*
X260057351Y-106698962D01*
X259885187Y-106457953D01*
X259745429Y-106194288D01*
X259639427Y-105911717D01*
X259568529Y-105613990D01*
X259534082Y-105304856D01*
X259537434Y-104988066D01*
X259543309Y-104918429D01*
X259548812Y-104880833D01*
X260900982Y-104880833D01*
X263412066Y-104880833D01*
X263404317Y-104759125D01*
X263372015Y-104444936D01*
X263317380Y-104164126D01*
X263240659Y-103917449D01*
X263142100Y-103705656D01*
X263021952Y-103529501D01*
X262984293Y-103486468D01*
X262836213Y-103351519D01*
X262673285Y-103252688D01*
X262490284Y-103187581D01*
X262281985Y-103153801D01*
X262253727Y-103151650D01*
X262019660Y-103154113D01*
X261804455Y-103194280D01*
X261608433Y-103272040D01*
X261431918Y-103387280D01*
X261339956Y-103469896D01*
X261245972Y-103574114D01*
X261166774Y-103686258D01*
X261100675Y-103811377D01*
X261045987Y-103954521D01*
X261001025Y-104120739D01*
X260964102Y-104315081D01*
X260933530Y-104542596D01*
X260912810Y-104748542D01*
X260900982Y-104880833D01*
X259548812Y-104880833D01*
X259588062Y-104612695D01*
X259661272Y-104333914D01*
X259765507Y-104075541D01*
X259903338Y-103831033D01*
X260050271Y-103627396D01*
X260236095Y-103421082D01*
X260444093Y-103243989D01*
X260680814Y-103090988D01*
X260841613Y-103007536D01*
X261105561Y-102899072D01*
X261384106Y-102820363D01*
X261682130Y-102770535D01*
X262004514Y-102748714D01*
X262276167Y-102750578D01*
G36*
X239246802Y-105908664D02*
G01*
X239323412Y-105913769D01*
X239382927Y-105924774D01*
X239437948Y-105943720D01*
X239479667Y-105962390D01*
X239633273Y-106056294D01*
X239766098Y-106180063D01*
X239868971Y-106324777D01*
X239886478Y-106358143D01*
X239918003Y-106425082D01*
X239938211Y-106480176D01*
X239949599Y-106536508D01*
X239954665Y-106607162D01*
X239955906Y-106705222D01*
X239955917Y-106721888D01*
X239955099Y-106824066D01*
X239950979Y-106896618D01*
X239941055Y-106952245D01*
X239922827Y-107003647D01*
X239893792Y-107063525D01*
X239885482Y-107079526D01*
X239792169Y-107223680D01*
X239675291Y-107349810D01*
X239544784Y-107447983D01*
X239484657Y-107480207D01*
X239414390Y-107509401D01*
X239346016Y-107527667D01*
X239264532Y-107537922D01*
X239162167Y-107542873D01*
X239058780Y-107544208D01*
X238983193Y-107539723D01*
X238921049Y-107527447D01*
X238857990Y-107505409D01*
X238842390Y-107498980D01*
X238765650Y-107463663D01*
X238695157Y-107426069D01*
X238661160Y-107404647D01*
X238596115Y-107350379D01*
X238523979Y-107278217D01*
X238456656Y-107201222D01*
X238406049Y-107132456D01*
X238393597Y-107111045D01*
X238343761Y-106977476D01*
X238316568Y-106822268D01*
X238312759Y-106660011D01*
X238333072Y-106505293D01*
X238358494Y-106418508D01*
X238425189Y-106290691D01*
X238523951Y-106167420D01*
X238644920Y-106059097D01*
X238777307Y-105976583D01*
X238843998Y-105945177D01*
X238898983Y-105925047D01*
X238955327Y-105913704D01*
X239026092Y-105908659D01*
X239124344Y-105907427D01*
X239140499Y-105907417D01*
X239246802Y-105908664D01*
G37*
X239246802Y-105908664D02*
X239323412Y-105913769D01*
X239382927Y-105924774D01*
X239437948Y-105943720D01*
X239479667Y-105962390D01*
X239633273Y-106056294D01*
X239766098Y-106180063D01*
X239868971Y-106324777D01*
X239886478Y-106358143D01*
X239918003Y-106425082D01*
X239938211Y-106480176D01*
X239949599Y-106536508D01*
X239954665Y-106607162D01*
X239955906Y-106705222D01*
X239955917Y-106721888D01*
X239955099Y-106824066D01*
X239950979Y-106896618D01*
X239941055Y-106952245D01*
X239922827Y-107003647D01*
X239893792Y-107063525D01*
X239885482Y-107079526D01*
X239792169Y-107223680D01*
X239675291Y-107349810D01*
X239544784Y-107447983D01*
X239484657Y-107480207D01*
X239414390Y-107509401D01*
X239346016Y-107527667D01*
X239264532Y-107537922D01*
X239162167Y-107542873D01*
X239058780Y-107544208D01*
X238983193Y-107539723D01*
X238921049Y-107527447D01*
X238857990Y-107505409D01*
X238842390Y-107498980D01*
X238765650Y-107463663D01*
X238695157Y-107426069D01*
X238661160Y-107404647D01*
X238596115Y-107350379D01*
X238523979Y-107278217D01*
X238456656Y-107201222D01*
X238406049Y-107132456D01*
X238393597Y-107111045D01*
X238343761Y-106977476D01*
X238316568Y-106822268D01*
X238312759Y-106660011D01*
X238333072Y-106505293D01*
X238358494Y-106418508D01*
X238425189Y-106290691D01*
X238523951Y-106167420D01*
X238644920Y-106059097D01*
X238777307Y-105976583D01*
X238843998Y-105945177D01*
X238898983Y-105925047D01*
X238955327Y-105913704D01*
X239026092Y-105908659D01*
X239124344Y-105907427D01*
X239140499Y-105907417D01*
X239246802Y-105908664D01*
G36*
X247761125Y-100272566D02*
G01*
X248145016Y-100274005D01*
X248489157Y-100275393D01*
X248796131Y-100276810D01*
X249068523Y-100278336D01*
X249308915Y-100280048D01*
X249519891Y-100282027D01*
X249704034Y-100284351D01*
X249863927Y-100287099D01*
X250002154Y-100290351D01*
X250121299Y-100294186D01*
X250223944Y-100298683D01*
X250312673Y-100303921D01*
X250390069Y-100309980D01*
X250458717Y-100316937D01*
X250521198Y-100324873D01*
X250580097Y-100333867D01*
X250637997Y-100343998D01*
X250697481Y-100355344D01*
X250740333Y-100363831D01*
X251097593Y-100455323D01*
X251441686Y-100583405D01*
X251769309Y-100745568D01*
X252077157Y-100939304D01*
X252361924Y-101162101D01*
X252620306Y-101411453D01*
X252848999Y-101684848D01*
X253044697Y-101979779D01*
X253162932Y-102203250D01*
X253300579Y-102538998D01*
X253406586Y-102898310D01*
X253480427Y-103276045D01*
X253521574Y-103667059D01*
X253529501Y-104066210D01*
X253503681Y-104468355D01*
X253443587Y-104868351D01*
X253438600Y-104893566D01*
X253345782Y-105254035D01*
X253217076Y-105593328D01*
X253053964Y-105910163D01*
X252857926Y-106203254D01*
X252630445Y-106471317D01*
X252373001Y-106713067D01*
X252087075Y-106927221D01*
X251774151Y-107112493D01*
X251435708Y-107267600D01*
X251073228Y-107391256D01*
X250688193Y-107482179D01*
X250402222Y-107526123D01*
X250350656Y-107529688D01*
X250258027Y-107532966D01*
X250125604Y-107535947D01*
X249954654Y-107538619D01*
X249746448Y-107540973D01*
X249502253Y-107542999D01*
X249223339Y-107544685D01*
X248910974Y-107546022D01*
X248566428Y-107546999D01*
X248190969Y-107547606D01*
X247785866Y-107547832D01*
X247751097Y-107547833D01*
X245279333Y-107547833D01*
X245279333Y-107039833D01*
X246422333Y-107039833D01*
X247882833Y-107039833D01*
X248762084Y-107039833D01*
X248960329Y-107039290D01*
X249153213Y-107037741D01*
X249334859Y-107035307D01*
X249499392Y-107032106D01*
X249640935Y-107028261D01*
X249753611Y-107023889D01*
X249831543Y-107019113D01*
X249846876Y-107017661D01*
X250182459Y-106964444D01*
X250489214Y-106880411D01*
X250766931Y-106765748D01*
X251015399Y-106620643D01*
X251234408Y-106445281D01*
X251423746Y-106239851D01*
X251583205Y-106004538D01*
X251712572Y-105739529D01*
X251811637Y-105445010D01*
X251860813Y-105231996D01*
X251889013Y-105068567D01*
X251910969Y-104900003D01*
X251927040Y-104719934D01*
X251937585Y-104521988D01*
X251942965Y-104299793D01*
X251943540Y-104046977D01*
X251940750Y-103816527D01*
X251935428Y-103572644D01*
X251928012Y-103363966D01*
X251917771Y-103183390D01*
X251903972Y-103023809D01*
X251885883Y-102878118D01*
X251862771Y-102739213D01*
X251833905Y-102599987D01*
X251801430Y-102464692D01*
X251734677Y-102230789D01*
X251659178Y-102029729D01*
X251570061Y-101852200D01*
X251462455Y-101688890D01*
X251331487Y-101530486D01*
X251288396Y-101484090D01*
X251078721Y-101293852D01*
X250839666Y-101132786D01*
X250573479Y-101001927D01*
X250282412Y-100902312D01*
X249968712Y-100834976D01*
X249840750Y-100817691D01*
X249777632Y-100812945D01*
X249677919Y-100808549D01*
X249547351Y-100804620D01*
X249391665Y-100801275D01*
X249216600Y-100798630D01*
X249027895Y-100796803D01*
X248831287Y-100795910D01*
X248766542Y-100795840D01*
X247882833Y-100795667D01*
X247882833Y-107039833D01*
X246422333Y-107039833D01*
X246422333Y-100795667D01*
X245279333Y-100795667D01*
X245279333Y-100263426D01*
X247761125Y-100272566D01*
G37*
X247761125Y-100272566D02*
X248145016Y-100274005D01*
X248489157Y-100275393D01*
X248796131Y-100276810D01*
X249068523Y-100278336D01*
X249308915Y-100280048D01*
X249519891Y-100282027D01*
X249704034Y-100284351D01*
X249863927Y-100287099D01*
X250002154Y-100290351D01*
X250121299Y-100294186D01*
X250223944Y-100298683D01*
X250312673Y-100303921D01*
X250390069Y-100309980D01*
X250458717Y-100316937D01*
X250521198Y-100324873D01*
X250580097Y-100333867D01*
X250637997Y-100343998D01*
X250697481Y-100355344D01*
X250740333Y-100363831D01*
X251097593Y-100455323D01*
X251441686Y-100583405D01*
X251769309Y-100745568D01*
X252077157Y-100939304D01*
X252361924Y-101162101D01*
X252620306Y-101411453D01*
X252848999Y-101684848D01*
X253044697Y-101979779D01*
X253162932Y-102203250D01*
X253300579Y-102538998D01*
X253406586Y-102898310D01*
X253480427Y-103276045D01*
X253521574Y-103667059D01*
X253529501Y-104066210D01*
X253503681Y-104468355D01*
X253443587Y-104868351D01*
X253438600Y-104893566D01*
X253345782Y-105254035D01*
X253217076Y-105593328D01*
X253053964Y-105910163D01*
X252857926Y-106203254D01*
X252630445Y-106471317D01*
X252373001Y-106713067D01*
X252087075Y-106927221D01*
X251774151Y-107112493D01*
X251435708Y-107267600D01*
X251073228Y-107391256D01*
X250688193Y-107482179D01*
X250402222Y-107526123D01*
X250350656Y-107529688D01*
X250258027Y-107532966D01*
X250125604Y-107535947D01*
X249954654Y-107538619D01*
X249746448Y-107540973D01*
X249502253Y-107542999D01*
X249223339Y-107544685D01*
X248910974Y-107546022D01*
X248566428Y-107546999D01*
X248190969Y-107547606D01*
X247785866Y-107547832D01*
X247751097Y-107547833D01*
X245279333Y-107547833D01*
X245279333Y-107039833D01*
X246422333Y-107039833D01*
X247882833Y-107039833D01*
X248762084Y-107039833D01*
X248960329Y-107039290D01*
X249153213Y-107037741D01*
X249334859Y-107035307D01*
X249499392Y-107032106D01*
X249640935Y-107028261D01*
X249753611Y-107023889D01*
X249831543Y-107019113D01*
X249846876Y-107017661D01*
X250182459Y-106964444D01*
X250489214Y-106880411D01*
X250766931Y-106765748D01*
X251015399Y-106620643D01*
X251234408Y-106445281D01*
X251423746Y-106239851D01*
X251583205Y-106004538D01*
X251712572Y-105739529D01*
X251811637Y-105445010D01*
X251860813Y-105231996D01*
X251889013Y-105068567D01*
X251910969Y-104900003D01*
X251927040Y-104719934D01*
X251937585Y-104521988D01*
X251942965Y-104299793D01*
X251943540Y-104046977D01*
X251940750Y-103816527D01*
X251935428Y-103572644D01*
X251928012Y-103363966D01*
X251917771Y-103183390D01*
X251903972Y-103023809D01*
X251885883Y-102878118D01*
X251862771Y-102739213D01*
X251833905Y-102599987D01*
X251801430Y-102464692D01*
X251734677Y-102230789D01*
X251659178Y-102029729D01*
X251570061Y-101852200D01*
X251462455Y-101688890D01*
X251331487Y-101530486D01*
X251288396Y-101484090D01*
X251078721Y-101293852D01*
X250839666Y-101132786D01*
X250573479Y-101001927D01*
X250282412Y-100902312D01*
X249968712Y-100834976D01*
X249840750Y-100817691D01*
X249777632Y-100812945D01*
X249677919Y-100808549D01*
X249547351Y-100804620D01*
X249391665Y-100801275D01*
X249216600Y-100798630D01*
X249027895Y-100796803D01*
X248831287Y-100795910D01*
X248766542Y-100795840D01*
X247882833Y-100795667D01*
X247882833Y-107039833D01*
X246422333Y-107039833D01*
X246422333Y-100795667D01*
X245279333Y-100795667D01*
X245279333Y-100263426D01*
X247761125Y-100272566D01*
G36*
X256349758Y-103352071D02*
G01*
X256350017Y-103938917D01*
X256421601Y-103774955D01*
X256549968Y-103521928D01*
X256698075Y-103304476D01*
X256864821Y-103123315D01*
X257049106Y-102979161D01*
X257249830Y-102872728D01*
X257465893Y-102804733D01*
X257696195Y-102775891D01*
X257939636Y-102786918D01*
X257940295Y-102787000D01*
X258136476Y-102826479D01*
X258320616Y-102892190D01*
X258487082Y-102980403D01*
X258630245Y-103087388D01*
X258744472Y-103209414D01*
X258824134Y-103342750D01*
X258839982Y-103383047D01*
X258863859Y-103483450D01*
X258875626Y-103602396D01*
X258875250Y-103724728D01*
X258862702Y-103835289D01*
X258841058Y-103912010D01*
X258786582Y-104003787D01*
X258705358Y-104098029D01*
X258610163Y-104182043D01*
X258513772Y-104243133D01*
X258502441Y-104248451D01*
X258382901Y-104284793D01*
X258245449Y-104299486D01*
X258106629Y-104292424D01*
X257982984Y-104263499D01*
X257954448Y-104251973D01*
X257828638Y-104177097D01*
X257721494Y-104078171D01*
X257642772Y-103965034D01*
X257620282Y-103914981D01*
X257585191Y-103774142D01*
X257578054Y-103624173D01*
X257597567Y-103476981D01*
X257642426Y-103344471D01*
X257691799Y-103262041D01*
X257725421Y-103216164D01*
X257744706Y-103186368D01*
X257746500Y-103181872D01*
X257727769Y-103178102D01*
X257678973Y-103182341D01*
X257611206Y-103192700D01*
X257535561Y-103207288D01*
X257463134Y-103224215D01*
X257413759Y-103238569D01*
X257261649Y-103308791D01*
X257112684Y-103413920D01*
X256974550Y-103546772D01*
X256854934Y-103700164D01*
X256777618Y-103833083D01*
X256736292Y-103926742D01*
X256689312Y-104050290D01*
X256640463Y-104192351D01*
X256593531Y-104341545D01*
X256552300Y-104486495D01*
X256527646Y-104584500D01*
X256519370Y-104624117D01*
X256512310Y-104669050D01*
X256506334Y-104723055D01*
X256501313Y-104789890D01*
X256497115Y-104873311D01*
X256493611Y-104977074D01*
X256490670Y-105104938D01*
X256488160Y-105260658D01*
X256485952Y-105447992D01*
X256483915Y-105670696D01*
X256482213Y-105891542D01*
X256473868Y-107039833D01*
X257386667Y-107039833D01*
X257386659Y-107288542D01*
X257386652Y-107537250D01*
X254571500Y-107539792D01*
X254571500Y-107039833D01*
X255313521Y-107039833D01*
X255307635Y-105309458D01*
X255306519Y-104996753D01*
X255305395Y-104723596D01*
X255304198Y-104487201D01*
X255302862Y-104284784D01*
X255301322Y-104113559D01*
X255299511Y-103970741D01*
X255297365Y-103853545D01*
X255294818Y-103759185D01*
X255291805Y-103684876D01*
X255288259Y-103627832D01*
X255284115Y-103585269D01*
X255279309Y-103554402D01*
X255273773Y-103532444D01*
X255267444Y-103516611D01*
X255265351Y-103512586D01*
X255235540Y-103470892D01*
X255193879Y-103439716D01*
X255133877Y-103417140D01*
X255049042Y-103401246D01*
X254932884Y-103390116D01*
X254830792Y-103384198D01*
X254571500Y-103371566D01*
X254571500Y-103121186D01*
X254571857Y-103014889D01*
X254573831Y-102943541D01*
X254578772Y-102899762D01*
X254588034Y-102876169D01*
X254602969Y-102865379D01*
X254619125Y-102861164D01*
X254650624Y-102858073D01*
X254719383Y-102853509D01*
X254820365Y-102847734D01*
X254948531Y-102841013D01*
X255098845Y-102833610D01*
X255266268Y-102825788D01*
X255445764Y-102817813D01*
X255449917Y-102817633D01*
X255630172Y-102809655D01*
X255798941Y-102801844D01*
X255951100Y-102794465D01*
X256081523Y-102787779D01*
X256185085Y-102782049D01*
X256256661Y-102777539D01*
X256291125Y-102774511D01*
X256291292Y-102774484D01*
X256349500Y-102765225D01*
X256349758Y-103352071D01*
G37*
X256349758Y-103352071D02*
X256350017Y-103938917D01*
X256421601Y-103774955D01*
X256549968Y-103521928D01*
X256698075Y-103304476D01*
X256864821Y-103123315D01*
X257049106Y-102979161D01*
X257249830Y-102872728D01*
X257465893Y-102804733D01*
X257696195Y-102775891D01*
X257939636Y-102786918D01*
X257940295Y-102787000D01*
X258136476Y-102826479D01*
X258320616Y-102892190D01*
X258487082Y-102980403D01*
X258630245Y-103087388D01*
X258744472Y-103209414D01*
X258824134Y-103342750D01*
X258839982Y-103383047D01*
X258863859Y-103483450D01*
X258875626Y-103602396D01*
X258875250Y-103724728D01*
X258862702Y-103835289D01*
X258841058Y-103912010D01*
X258786582Y-104003787D01*
X258705358Y-104098029D01*
X258610163Y-104182043D01*
X258513772Y-104243133D01*
X258502441Y-104248451D01*
X258382901Y-104284793D01*
X258245449Y-104299486D01*
X258106629Y-104292424D01*
X257982984Y-104263499D01*
X257954448Y-104251973D01*
X257828638Y-104177097D01*
X257721494Y-104078171D01*
X257642772Y-103965034D01*
X257620282Y-103914981D01*
X257585191Y-103774142D01*
X257578054Y-103624173D01*
X257597567Y-103476981D01*
X257642426Y-103344471D01*
X257691799Y-103262041D01*
X257725421Y-103216164D01*
X257744706Y-103186368D01*
X257746500Y-103181872D01*
X257727769Y-103178102D01*
X257678973Y-103182341D01*
X257611206Y-103192700D01*
X257535561Y-103207288D01*
X257463134Y-103224215D01*
X257413759Y-103238569D01*
X257261649Y-103308791D01*
X257112684Y-103413920D01*
X256974550Y-103546772D01*
X256854934Y-103700164D01*
X256777618Y-103833083D01*
X256736292Y-103926742D01*
X256689312Y-104050290D01*
X256640463Y-104192351D01*
X256593531Y-104341545D01*
X256552300Y-104486495D01*
X256527646Y-104584500D01*
X256519370Y-104624117D01*
X256512310Y-104669050D01*
X256506334Y-104723055D01*
X256501313Y-104789890D01*
X256497115Y-104873311D01*
X256493611Y-104977074D01*
X256490670Y-105104938D01*
X256488160Y-105260658D01*
X256485952Y-105447992D01*
X256483915Y-105670696D01*
X256482213Y-105891542D01*
X256473868Y-107039833D01*
X257386667Y-107039833D01*
X257386659Y-107288542D01*
X257386652Y-107537250D01*
X254571500Y-107539792D01*
X254571500Y-107039833D01*
X255313521Y-107039833D01*
X255307635Y-105309458D01*
X255306519Y-104996753D01*
X255305395Y-104723596D01*
X255304198Y-104487201D01*
X255302862Y-104284784D01*
X255301322Y-104113559D01*
X255299511Y-103970741D01*
X255297365Y-103853545D01*
X255294818Y-103759185D01*
X255291805Y-103684876D01*
X255288259Y-103627832D01*
X255284115Y-103585269D01*
X255279309Y-103554402D01*
X255273773Y-103532444D01*
X255267444Y-103516611D01*
X255265351Y-103512586D01*
X255235540Y-103470892D01*
X255193879Y-103439716D01*
X255133877Y-103417140D01*
X255049042Y-103401246D01*
X254932884Y-103390116D01*
X254830792Y-103384198D01*
X254571500Y-103371566D01*
X254571500Y-103121186D01*
X254571857Y-103014889D01*
X254573831Y-102943541D01*
X254578772Y-102899762D01*
X254588034Y-102876169D01*
X254602969Y-102865379D01*
X254619125Y-102861164D01*
X254650624Y-102858073D01*
X254719383Y-102853509D01*
X254820365Y-102847734D01*
X254948531Y-102841013D01*
X255098845Y-102833610D01*
X255266268Y-102825788D01*
X255445764Y-102817813D01*
X255449917Y-102817633D01*
X255630172Y-102809655D01*
X255798941Y-102801844D01*
X255951100Y-102794465D01*
X256081523Y-102787779D01*
X256185085Y-102782049D01*
X256256661Y-102777539D01*
X256291125Y-102774511D01*
X256291292Y-102774484D01*
X256349500Y-102765225D01*
X256349758Y-103352071D01*
G36*
X262677218Y-100557228D02*
G01*
X262807200Y-100613603D01*
X262921872Y-100700040D01*
X263017144Y-100810704D01*
X263088929Y-100939763D01*
X263133139Y-101081383D01*
X263145684Y-101229731D01*
X263123577Y-101375092D01*
X263104630Y-101431497D01*
X263079001Y-101483435D01*
X263043847Y-101532359D01*
X262996326Y-101579723D01*
X262933596Y-101626981D01*
X262852815Y-101675584D01*
X262751140Y-101726988D01*
X262625730Y-101782645D01*
X262473741Y-101844008D01*
X262292332Y-101912532D01*
X262078661Y-101989669D01*
X261829885Y-102076873D01*
X261588433Y-102160088D01*
X261455258Y-102205413D01*
X261335104Y-102245678D01*
X261233865Y-102278958D01*
X261157436Y-102303331D01*
X261111710Y-102316871D01*
X261101599Y-102319003D01*
X261082822Y-102301722D01*
X261047452Y-102255154D01*
X261000547Y-102186388D01*
X260947162Y-102102516D01*
X260946871Y-102102045D01*
X260813493Y-101885750D01*
X260978621Y-101729629D01*
X261077858Y-101636544D01*
X261192852Y-101529907D01*
X261318641Y-101414204D01*
X261450266Y-101293923D01*
X261582767Y-101173551D01*
X261711184Y-101057575D01*
X261830556Y-100950483D01*
X261935923Y-100856762D01*
X262022326Y-100780898D01*
X262084803Y-100727380D01*
X262103252Y-100712215D01*
X262229612Y-100622634D01*
X262346912Y-100566670D01*
X262465292Y-100540209D01*
X262536014Y-100536747D01*
X262677218Y-100557228D01*
G37*
X262677218Y-100557228D02*
X262807200Y-100613603D01*
X262921872Y-100700040D01*
X263017144Y-100810704D01*
X263088929Y-100939763D01*
X263133139Y-101081383D01*
X263145684Y-101229731D01*
X263123577Y-101375092D01*
X263104630Y-101431497D01*
X263079001Y-101483435D01*
X263043847Y-101532359D01*
X262996326Y-101579723D01*
X262933596Y-101626981D01*
X262852815Y-101675584D01*
X262751140Y-101726988D01*
X262625730Y-101782645D01*
X262473741Y-101844008D01*
X262292332Y-101912532D01*
X262078661Y-101989669D01*
X261829885Y-102076873D01*
X261588433Y-102160088D01*
X261455258Y-102205413D01*
X261335104Y-102245678D01*
X261233865Y-102278958D01*
X261157436Y-102303331D01*
X261111710Y-102316871D01*
X261101599Y-102319003D01*
X261082822Y-102301722D01*
X261047452Y-102255154D01*
X261000547Y-102186388D01*
X260947162Y-102102516D01*
X260946871Y-102102045D01*
X260813493Y-101885750D01*
X260978621Y-101729629D01*
X261077858Y-101636544D01*
X261192852Y-101529907D01*
X261318641Y-101414204D01*
X261450266Y-101293923D01*
X261582767Y-101173551D01*
X261711184Y-101057575D01*
X261830556Y-100950483D01*
X261935923Y-100856762D01*
X262022326Y-100780898D01*
X262084803Y-100727380D01*
X262103252Y-100712215D01*
X262229612Y-100622634D01*
X262346912Y-100566670D01*
X262465292Y-100540209D01*
X262536014Y-100536747D01*
X262677218Y-100557228D01*
D12*
G36*
X179556593Y-88143252D02*
G01*
X179727410Y-88174796D01*
X179853129Y-88202440D01*
X180056261Y-88247285D01*
X180244391Y-88287085D01*
X180387369Y-88315525D01*
X180426565Y-88322540D01*
X180560688Y-88355568D01*
X180728412Y-88410753D01*
X180821326Y-88446636D01*
X181058182Y-88544401D01*
X181058182Y-97599807D01*
X180857342Y-97482107D01*
X180738913Y-97420059D01*
X180628212Y-97385847D01*
X180492129Y-97372963D01*
X180310102Y-97374522D01*
X179963701Y-97384636D01*
X179800373Y-97163233D01*
X179637045Y-96941829D01*
X179611175Y-97257637D01*
X179593070Y-97434899D01*
X179570960Y-97590387D01*
X179550694Y-97686234D01*
X179464741Y-97935001D01*
X179357683Y-98198209D01*
X179240711Y-98451890D01*
X179125017Y-98672082D01*
X179021793Y-98834817D01*
X179002920Y-98859236D01*
X178953604Y-98933539D01*
X178880391Y-99058963D01*
X178811151Y-99185895D01*
X178739226Y-99308516D01*
X178681976Y-99381476D01*
X178651745Y-99389063D01*
X178651684Y-99388915D01*
X178632040Y-99375266D01*
X178625509Y-99413787D01*
X178593341Y-99506443D01*
X178536694Y-99586134D01*
X178471262Y-99686973D01*
X178410850Y-99828358D01*
X178395713Y-99876679D01*
X178352610Y-99992980D01*
X178309694Y-100047514D01*
X178293535Y-100047005D01*
X178268672Y-100047579D01*
X178278228Y-100068691D01*
X178275664Y-100140870D01*
X178224940Y-100274706D01*
X178131359Y-100459169D01*
X178000223Y-100683230D01*
X177927046Y-100799200D01*
X177832709Y-100939191D01*
X177781513Y-101000928D01*
X177773923Y-100985659D01*
X177810405Y-100894630D01*
X177891425Y-100729089D01*
X177896898Y-100718400D01*
X177980319Y-100547475D01*
X178063763Y-100362526D01*
X178139501Y-100182631D01*
X178199803Y-100026864D01*
X178236942Y-99914303D01*
X178243189Y-99864023D01*
X178243089Y-99863919D01*
X178215938Y-99891372D01*
X178162723Y-99980577D01*
X178102096Y-100097964D01*
X178030010Y-100235269D01*
X177967075Y-100337833D01*
X177932523Y-100378448D01*
X177907882Y-100377947D01*
X177918350Y-100355017D01*
X177931964Y-100308070D01*
X177923433Y-100302930D01*
X177883591Y-100343002D01*
X177824263Y-100451006D01*
X177752470Y-100608622D01*
X177675233Y-100797533D01*
X177599572Y-100999421D01*
X177532508Y-101195966D01*
X177481063Y-101368851D01*
X177452256Y-101499758D01*
X177448531Y-101542042D01*
X177431559Y-101637630D01*
X177385795Y-101793514D01*
X177318437Y-101987246D01*
X177245512Y-102174909D01*
X177166098Y-102373958D01*
X177101294Y-102545243D01*
X177057955Y-102670027D01*
X177042906Y-102728665D01*
X177025570Y-102745563D01*
X176968257Y-102758905D01*
X176863012Y-102769004D01*
X176701882Y-102776174D01*
X176476911Y-102780728D01*
X176180144Y-102782982D01*
X175803627Y-102783249D01*
X175666885Y-102782971D01*
X174290864Y-102779478D01*
X174290864Y-102676332D01*
X174249108Y-102571416D01*
X174178075Y-102521797D01*
X174086221Y-102457727D01*
X174078064Y-102381331D01*
X174153840Y-102283676D01*
X174182505Y-102257933D01*
X174486364Y-102257933D01*
X174492557Y-102284754D01*
X174516441Y-102288010D01*
X174553576Y-102271503D01*
X174546518Y-102257933D01*
X174492977Y-102252534D01*
X174486364Y-102257933D01*
X174182505Y-102257933D01*
X174185092Y-102255610D01*
X174260158Y-102187243D01*
X174269427Y-102158653D01*
X174217104Y-102152679D01*
X174210313Y-102152664D01*
X174116231Y-102134158D01*
X174092922Y-102092208D01*
X174148169Y-102047167D01*
X174167304Y-102040222D01*
X174232694Y-102013557D01*
X174215681Y-101994491D01*
X174189354Y-101986670D01*
X174111249Y-101954231D01*
X174114685Y-101924222D01*
X174190979Y-101900047D01*
X174331446Y-101885113D01*
X174456351Y-101881971D01*
X174679460Y-101874415D01*
X174917649Y-101854718D01*
X175098457Y-101830398D01*
X175279645Y-101790912D01*
X175401919Y-101739951D01*
X175496556Y-101663266D01*
X175519338Y-101638657D01*
X175600069Y-101548927D01*
X175665272Y-101481059D01*
X175694372Y-101453374D01*
X177223368Y-101453374D01*
X177245926Y-101475932D01*
X177268484Y-101453374D01*
X177245926Y-101430817D01*
X177223368Y-101453374D01*
X175694372Y-101453374D01*
X175743222Y-101406900D01*
X175766431Y-101385701D01*
X177313599Y-101385701D01*
X177330106Y-101422836D01*
X177343676Y-101415778D01*
X177349076Y-101362237D01*
X177343676Y-101355624D01*
X177316855Y-101361817D01*
X177313599Y-101385701D01*
X175766431Y-101385701D01*
X175850628Y-101308800D01*
X175890793Y-101265393D01*
X176381213Y-101265393D01*
X176387406Y-101292214D01*
X176411290Y-101295470D01*
X176448425Y-101278963D01*
X176441367Y-101265393D01*
X176387826Y-101259994D01*
X176381213Y-101265393D01*
X175890793Y-101265393D01*
X175935445Y-101217137D01*
X175955815Y-101161586D01*
X175911728Y-101152415D01*
X175850779Y-101175106D01*
X175786007Y-101221139D01*
X175787922Y-101255453D01*
X175810475Y-101292978D01*
X175769926Y-101319261D01*
X175693397Y-101321937D01*
X175659678Y-101313919D01*
X175605932Y-101300603D01*
X175631780Y-101326495D01*
X175644327Y-101335639D01*
X175676312Y-101369992D01*
X175633490Y-101383518D01*
X175583106Y-101385010D01*
X175493634Y-101396862D01*
X175476117Y-101438956D01*
X175482108Y-101458398D01*
X175485600Y-101510130D01*
X175441819Y-101504929D01*
X175383319Y-101501866D01*
X175373635Y-101518498D01*
X175332059Y-101562735D01*
X175216117Y-101585051D01*
X175038991Y-101585372D01*
X174813858Y-101563628D01*
X174569519Y-101522864D01*
X174368040Y-101484472D01*
X174194003Y-101453929D01*
X174069979Y-101435050D01*
X174024991Y-101430817D01*
X173943698Y-101400113D01*
X173900609Y-101363144D01*
X175012711Y-101363144D01*
X175035269Y-101385701D01*
X175057826Y-101363144D01*
X175035269Y-101340586D01*
X175012711Y-101363144D01*
X173900609Y-101363144D01*
X173858128Y-101326698D01*
X173792986Y-101238614D01*
X173772977Y-101163903D01*
X173778005Y-101150467D01*
X173777713Y-101118708D01*
X173733278Y-101128884D01*
X173682200Y-101138870D01*
X173691879Y-101094147D01*
X173704363Y-101069893D01*
X173729423Y-101006719D01*
X173698159Y-101002386D01*
X173689078Y-101005672D01*
X173635392Y-100984844D01*
X173570473Y-100881935D01*
X173523612Y-100775930D01*
X173472436Y-100661191D01*
X174426210Y-100661191D01*
X174458960Y-100707133D01*
X174471326Y-100708969D01*
X174515268Y-100693577D01*
X174516441Y-100689074D01*
X174484827Y-100650556D01*
X174471326Y-100641296D01*
X174429752Y-100644873D01*
X174426210Y-100661191D01*
X173472436Y-100661191D01*
X173466447Y-100647765D01*
X173417538Y-100581231D01*
X173369135Y-100581134D01*
X173313488Y-100652279D01*
X173242850Y-100799472D01*
X173159804Y-101001560D01*
X173040901Y-101377908D01*
X172999364Y-101730012D01*
X173034646Y-102079139D01*
X173124170Y-102388190D01*
X173183296Y-102552576D01*
X173228167Y-102681859D01*
X173251486Y-102754840D01*
X173253208Y-102763022D01*
X173210693Y-102770420D01*
X173093544Y-102776698D01*
X172917356Y-102781367D01*
X172697724Y-102783936D01*
X172576477Y-102784280D01*
X172340972Y-102782403D01*
X172141112Y-102777232D01*
X171992491Y-102769453D01*
X171910703Y-102759757D01*
X171899745Y-102754404D01*
X171913520Y-102702040D01*
X171950857Y-102583047D01*
X172005769Y-102416052D01*
X172061045Y-102252460D01*
X172222345Y-101780392D01*
X172054598Y-101642122D01*
X171861530Y-101447148D01*
X171719212Y-101230131D01*
X171640537Y-101013381D01*
X171629052Y-100905819D01*
X171618040Y-100780200D01*
X171590459Y-100696015D01*
X171578328Y-100682946D01*
X171524684Y-100617668D01*
X171470476Y-100517721D01*
X174536008Y-100517721D01*
X174580355Y-100524946D01*
X174638870Y-100516651D01*
X174639569Y-100501250D01*
X174579187Y-100490481D01*
X174553097Y-100497689D01*
X174536008Y-100517721D01*
X171470476Y-100517721D01*
X171456866Y-100492629D01*
X171386118Y-100334643D01*
X171331148Y-100190142D01*
X174561557Y-100190142D01*
X174584114Y-100212700D01*
X174606672Y-100190142D01*
X174584114Y-100167584D01*
X174561557Y-100190142D01*
X171331148Y-100190142D01*
X171323685Y-100170525D01*
X171313815Y-100137507D01*
X174035210Y-100137507D01*
X174041403Y-100164328D01*
X174065287Y-100167584D01*
X174102422Y-100151077D01*
X174095363Y-100137507D01*
X174041822Y-100132108D01*
X174035210Y-100137507D01*
X171313815Y-100137507D01*
X171280808Y-100027092D01*
X171268128Y-99943127D01*
X171310661Y-99789742D01*
X171329084Y-99764295D01*
X173464994Y-99764295D01*
X173472696Y-99851175D01*
X173538684Y-99897779D01*
X173669296Y-99928102D01*
X173789708Y-99918696D01*
X173867003Y-99873647D01*
X173876223Y-99855866D01*
X173869094Y-99812070D01*
X173828771Y-99818516D01*
X173769849Y-99806718D01*
X173712936Y-99719092D01*
X173794594Y-99719092D01*
X173829005Y-99760330D01*
X173839709Y-99761545D01*
X173879303Y-99724823D01*
X173884825Y-99691209D01*
X173862953Y-99644512D01*
X173839709Y-99648756D01*
X173796315Y-99706435D01*
X173794594Y-99719092D01*
X173712936Y-99719092D01*
X173711905Y-99717505D01*
X173690898Y-99667801D01*
X173638115Y-99564982D01*
X173584108Y-99501938D01*
X173544468Y-99488031D01*
X173534783Y-99532619D01*
X173546459Y-99581083D01*
X173552368Y-99652511D01*
X173532203Y-99671314D01*
X173487927Y-99708988D01*
X173464994Y-99764295D01*
X171329084Y-99764295D01*
X171420803Y-99637607D01*
X171573478Y-99468295D01*
X171512888Y-99380061D01*
X172729661Y-99380061D01*
X172736823Y-99449666D01*
X172737352Y-99450544D01*
X172783051Y-99476655D01*
X172822742Y-99435807D01*
X172834698Y-99354618D01*
X172816161Y-99281638D01*
X172809198Y-99275603D01*
X173234039Y-99275603D01*
X173250452Y-99308931D01*
X173285994Y-99337050D01*
X173380071Y-99382795D01*
X173480104Y-99397705D01*
X173552572Y-99380217D01*
X173569017Y-99350244D01*
X173533310Y-99319226D01*
X173478786Y-99323463D01*
X173403809Y-99320426D01*
X173388555Y-99287833D01*
X173354054Y-99247686D01*
X173297273Y-99252478D01*
X173234039Y-99275603D01*
X172809198Y-99275603D01*
X172797280Y-99265275D01*
X172755124Y-99302180D01*
X172729661Y-99380061D01*
X171512888Y-99380061D01*
X171465919Y-99311664D01*
X171398601Y-99202584D01*
X171394615Y-99193842D01*
X172580038Y-99193842D01*
X172588333Y-99252358D01*
X172603734Y-99253056D01*
X172614504Y-99192674D01*
X172607296Y-99166585D01*
X172587263Y-99149496D01*
X172580038Y-99193842D01*
X171394615Y-99193842D01*
X171361124Y-99120400D01*
X171358359Y-99105149D01*
X171394701Y-99064014D01*
X171494071Y-98987096D01*
X171512015Y-98974686D01*
X172645511Y-98974686D01*
X172655665Y-99062255D01*
X172691829Y-99155584D01*
X172742709Y-99168822D01*
X172779710Y-99129583D01*
X172778012Y-99107371D01*
X173208093Y-99107371D01*
X173230651Y-99129929D01*
X173253208Y-99107371D01*
X173230651Y-99084813D01*
X173208093Y-99107371D01*
X172778012Y-99107371D01*
X172774806Y-99065443D01*
X172767252Y-99054736D01*
X172997554Y-99054736D01*
X173003747Y-99081557D01*
X173027631Y-99084813D01*
X173064766Y-99068306D01*
X173057708Y-99054736D01*
X173004167Y-99049337D01*
X172997554Y-99054736D01*
X172767252Y-99054736D01*
X172740480Y-99016794D01*
X172670181Y-98957483D01*
X172645511Y-98974686D01*
X171512015Y-98974686D01*
X171641985Y-98884802D01*
X171751567Y-98814186D01*
X172992582Y-98814186D01*
X173008739Y-98875077D01*
X173052123Y-98925057D01*
X173079665Y-98922633D01*
X173092251Y-98871525D01*
X173068508Y-98831571D01*
X173010757Y-98784144D01*
X172992582Y-98814186D01*
X171751567Y-98814186D01*
X171823958Y-98767537D01*
X171855719Y-98747802D01*
X172086618Y-98602327D01*
X172239628Y-98499336D01*
X172315911Y-98437810D01*
X172316628Y-98416731D01*
X172242944Y-98435082D01*
X172191472Y-98453776D01*
X172072363Y-98481932D01*
X171989305Y-98470944D01*
X171962924Y-98426204D01*
X171974645Y-98397121D01*
X172008975Y-98316603D01*
X172012530Y-98295293D01*
X172014928Y-98271861D01*
X172624499Y-98271861D01*
X172638157Y-98335613D01*
X172692873Y-98447576D01*
X172700544Y-98460803D01*
X172757576Y-98541535D01*
X172788557Y-98541550D01*
X172794076Y-98524192D01*
X172778076Y-98442035D01*
X172732654Y-98362966D01*
X175260846Y-98362966D01*
X175278475Y-98394918D01*
X175366251Y-98408060D01*
X175370972Y-98408081D01*
X175467148Y-98395246D01*
X175508927Y-98364236D01*
X175508981Y-98362966D01*
X175576654Y-98362966D01*
X175590100Y-98398810D01*
X175639002Y-98408081D01*
X175726475Y-98387949D01*
X175757116Y-98362966D01*
X175743671Y-98327122D01*
X175694768Y-98317850D01*
X175607295Y-98337983D01*
X175576654Y-98362966D01*
X175508981Y-98362966D01*
X175470455Y-98328757D01*
X175398855Y-98317850D01*
X175303328Y-98334485D01*
X175260846Y-98362966D01*
X172732654Y-98362966D01*
X172719380Y-98339861D01*
X172715124Y-98334358D01*
X172650590Y-98267663D01*
X172624499Y-98271861D01*
X172014928Y-98271861D01*
X172024389Y-98179445D01*
X172047634Y-98024435D01*
X172077798Y-97853334D01*
X172110412Y-97689212D01*
X172141009Y-97555140D01*
X172165119Y-97474188D01*
X172174180Y-97460657D01*
X172208004Y-97498551D01*
X172267825Y-97599358D01*
X172342489Y-97743762D01*
X172366990Y-97794540D01*
X172446322Y-97953397D01*
X172516568Y-98079398D01*
X172565414Y-98150868D01*
X172573532Y-98158126D01*
X172615593Y-98169804D01*
X172608702Y-98118727D01*
X172556409Y-98006857D01*
X172502883Y-97868050D01*
X172467025Y-97707361D01*
X172451625Y-97552007D01*
X172459474Y-97429205D01*
X172490877Y-97367564D01*
X172527443Y-97327876D01*
X172513370Y-97310358D01*
X172621592Y-97310358D01*
X172649159Y-97373985D01*
X172718620Y-97459911D01*
X172810118Y-97550311D01*
X172903796Y-97627361D01*
X172979794Y-97673238D01*
X173018257Y-97670117D01*
X173019126Y-97667177D01*
X173070142Y-97601718D01*
X173109357Y-97585171D01*
X173201755Y-97590185D01*
X173323108Y-97624542D01*
X173332160Y-97628118D01*
X173435949Y-97658781D01*
X173478479Y-97645135D01*
X173478786Y-97641724D01*
X173479275Y-97641119D01*
X174245748Y-97641119D01*
X174262255Y-97678254D01*
X174275825Y-97671196D01*
X174281225Y-97617654D01*
X174275825Y-97611042D01*
X174249004Y-97617235D01*
X174245748Y-97641119D01*
X173479275Y-97641119D01*
X173513883Y-97598379D01*
X173530206Y-97596003D01*
X173596645Y-97563806D01*
X173643106Y-97517051D01*
X173687867Y-97462944D01*
X173689288Y-97480773D01*
X173677089Y-97517051D01*
X173674793Y-97581968D01*
X173696548Y-97596003D01*
X173724698Y-97558539D01*
X173723151Y-97483768D01*
X173735388Y-97371509D01*
X173798234Y-97194959D01*
X173884043Y-97011058D01*
X173965166Y-96843665D01*
X174027600Y-96703335D01*
X174061858Y-96611902D01*
X174065564Y-96593186D01*
X174085682Y-96516000D01*
X174134079Y-96407127D01*
X174137586Y-96400444D01*
X174202116Y-96268098D01*
X174250893Y-96152309D01*
X174267934Y-96094116D01*
X174249455Y-96094108D01*
X174185932Y-96156671D01*
X174144955Y-96201099D01*
X174031434Y-96342437D01*
X173929591Y-96496324D01*
X173907303Y-96536554D01*
X173831299Y-96666766D01*
X173754818Y-96773599D01*
X173738199Y-96792293D01*
X173677078Y-96878212D01*
X173659247Y-96935282D01*
X173625938Y-97010554D01*
X173540709Y-97116446D01*
X173425607Y-97231901D01*
X173302682Y-97335864D01*
X173193982Y-97407279D01*
X173145887Y-97425538D01*
X173059499Y-97429662D01*
X173027631Y-97409285D01*
X172991444Y-97373906D01*
X172966042Y-97370426D01*
X172889184Y-97344244D01*
X172791622Y-97281673D01*
X172690574Y-97223098D01*
X172634573Y-97242339D01*
X172621592Y-97310358D01*
X172513370Y-97310358D01*
X172488615Y-97279545D01*
X172477276Y-97270698D01*
X172439527Y-97230037D01*
X172421702Y-97167528D01*
X172421868Y-97083191D01*
X172531361Y-97083191D01*
X172553605Y-97149343D01*
X172598178Y-97175110D01*
X172614825Y-97166655D01*
X172608598Y-97120304D01*
X172584748Y-97089958D01*
X172539326Y-97064525D01*
X172531361Y-97083191D01*
X172421868Y-97083191D01*
X172421911Y-97061661D01*
X172438261Y-96890927D01*
X172441431Y-96863216D01*
X172456286Y-96611959D01*
X172440589Y-96403465D01*
X172396524Y-96254363D01*
X172354008Y-96197424D01*
X172326425Y-96142883D01*
X172288002Y-96031708D01*
X172248061Y-95895213D01*
X172215926Y-95764714D01*
X172202387Y-95688183D01*
X172158895Y-95594836D01*
X172125322Y-95564115D01*
X172080334Y-95522472D01*
X172116238Y-95482323D01*
X172125322Y-95476268D01*
X172165664Y-95441086D01*
X172122018Y-95431338D01*
X172109819Y-95431152D01*
X172032037Y-95392606D01*
X172003181Y-95340738D01*
X171968884Y-95278923D01*
X171940410Y-95275308D01*
X171920631Y-95255359D01*
X171926292Y-95173860D01*
X171927527Y-95167483D01*
X171932741Y-95065069D01*
X171908525Y-95007291D01*
X171882493Y-94946947D01*
X171885773Y-94911634D01*
X171944860Y-94911634D01*
X171967418Y-94934192D01*
X171989976Y-94911634D01*
X171967418Y-94889076D01*
X171944860Y-94911634D01*
X171885773Y-94911634D01*
X171888529Y-94881976D01*
X171891150Y-94857792D01*
X172183687Y-94857792D01*
X172201190Y-94889315D01*
X172277589Y-94929037D01*
X172402414Y-94958246D01*
X172442926Y-94963041D01*
X172570341Y-94979342D01*
X172658664Y-94999341D01*
X172672323Y-95005335D01*
X172701612Y-95049360D01*
X172663248Y-95084495D01*
X172579634Y-95096197D01*
X172539875Y-95091323D01*
X172418572Y-95067662D01*
X172531361Y-95119123D01*
X172661199Y-95178848D01*
X172748594Y-95219485D01*
X172849037Y-95243953D01*
X172883940Y-95223006D01*
X172942414Y-95175445D01*
X173047505Y-95115734D01*
X173072747Y-95103501D01*
X173203071Y-95022109D01*
X173308907Y-94923183D01*
X173315922Y-94914111D01*
X173318136Y-94911634D01*
X173388555Y-94911634D01*
X173411112Y-94934192D01*
X173433670Y-94911634D01*
X173411112Y-94889076D01*
X173388555Y-94911634D01*
X173318136Y-94911634D01*
X173399316Y-94820812D01*
X173456680Y-94808865D01*
X173497354Y-94876614D01*
X173498978Y-94881623D01*
X173530847Y-94931784D01*
X173600145Y-94951161D01*
X173731957Y-94946474D01*
X173738874Y-94945881D01*
X173865325Y-94945750D01*
X173909904Y-94968539D01*
X173869645Y-95005752D01*
X173772036Y-95040847D01*
X173752417Y-95051446D01*
X173809925Y-95048274D01*
X173850988Y-95043182D01*
X173959047Y-95038339D01*
X174017038Y-95054731D01*
X174020171Y-95062353D01*
X173981443Y-95108083D01*
X173882738Y-95167706D01*
X173750275Y-95228433D01*
X173610271Y-95277473D01*
X173546459Y-95293444D01*
X173456408Y-95325042D01*
X173424643Y-95363083D01*
X173425054Y-95364638D01*
X173398772Y-95408003D01*
X173334823Y-95437243D01*
X173266693Y-95459283D01*
X173282963Y-95468502D01*
X173322445Y-95471080D01*
X173413701Y-95458965D01*
X173554064Y-95422982D01*
X173670963Y-95385346D01*
X173814830Y-95337150D01*
X173880642Y-95317673D01*
X174561557Y-95317673D01*
X174584114Y-95340231D01*
X174606672Y-95317673D01*
X174584114Y-95295115D01*
X174561557Y-95317673D01*
X173880642Y-95317673D01*
X173925455Y-95304411D01*
X173970992Y-95295115D01*
X174043760Y-95280264D01*
X174118744Y-95255405D01*
X174214809Y-95223974D01*
X174263262Y-95214142D01*
X174320450Y-95177171D01*
X174369598Y-95101665D01*
X174380404Y-95058259D01*
X174344395Y-95028219D01*
X174313422Y-95024422D01*
X174253649Y-94999096D01*
X174253668Y-94943576D01*
X174306676Y-94888552D01*
X174347258Y-94871781D01*
X174414835Y-94844695D01*
X174401876Y-94810862D01*
X174381095Y-94794590D01*
X174341284Y-94760430D01*
X174380300Y-94767018D01*
X174396063Y-94772032D01*
X174486388Y-94794896D01*
X174520131Y-94798845D01*
X174556900Y-94835442D01*
X174561557Y-94866518D01*
X174597670Y-94926331D01*
X174629230Y-94934192D01*
X174669580Y-94932210D01*
X174689118Y-94914274D01*
X174687349Y-94862396D01*
X174663777Y-94758586D01*
X174619795Y-94591952D01*
X174576309Y-94437469D01*
X174539555Y-94350868D01*
X174494239Y-94312529D01*
X174425068Y-94302833D01*
X174394218Y-94302575D01*
X174293658Y-94290578D01*
X174246287Y-94261307D01*
X174245748Y-94257460D01*
X174220327Y-94217780D01*
X174211912Y-94217687D01*
X174116165Y-94214091D01*
X174085276Y-94153299D01*
X174092861Y-94085750D01*
X174095907Y-93986767D01*
X174155517Y-93986767D01*
X174172024Y-94023902D01*
X174185594Y-94016844D01*
X174188627Y-93986767D01*
X175554096Y-93986767D01*
X175570604Y-94023902D01*
X175584173Y-94016844D01*
X175589573Y-93963302D01*
X175584173Y-93956690D01*
X175557352Y-93962883D01*
X175554096Y-93986767D01*
X174188627Y-93986767D01*
X174190994Y-93963302D01*
X174185594Y-93956690D01*
X174158773Y-93962883D01*
X174155517Y-93986767D01*
X174095907Y-93986767D01*
X174096112Y-93980122D01*
X174051019Y-93906177D01*
X173948762Y-93861088D01*
X173780521Y-93842028D01*
X173537475Y-93846170D01*
X173377934Y-93856605D01*
X173273999Y-93873249D01*
X173255904Y-93899954D01*
X173265145Y-93908014D01*
X173261969Y-93928917D01*
X173181107Y-93935645D01*
X173110889Y-93932827D01*
X172992675Y-93931194D01*
X172926948Y-93942419D01*
X172921811Y-93952930D01*
X172908786Y-93984657D01*
X172892768Y-93986767D01*
X172824503Y-94005183D01*
X172710568Y-94051639D01*
X172655945Y-94077051D01*
X172531622Y-94129311D01*
X172460862Y-94135228D01*
X172429591Y-94110887D01*
X172407862Y-94096899D01*
X172418657Y-94155950D01*
X172423198Y-94238327D01*
X172394228Y-94257460D01*
X172361146Y-94290033D01*
X172366660Y-94323688D01*
X172366091Y-94396339D01*
X172348763Y-94416684D01*
X172324302Y-94478148D01*
X172341661Y-94580017D01*
X172391062Y-94688677D01*
X172448344Y-94759022D01*
X172516209Y-94828080D01*
X172513532Y-94861835D01*
X172433658Y-94866254D01*
X172339620Y-94856525D01*
X172224063Y-94846476D01*
X172183687Y-94857792D01*
X171891150Y-94857792D01*
X171895785Y-94815036D01*
X171858235Y-94819236D01*
X171854069Y-94821749D01*
X171813850Y-94832042D01*
X171824405Y-94779999D01*
X171850476Y-94690204D01*
X171854629Y-94657146D01*
X171878984Y-94629845D01*
X171888466Y-94633917D01*
X171907950Y-94605088D01*
X171923205Y-94508913D01*
X171929449Y-94404940D01*
X171931469Y-94381720D01*
X172080207Y-94381720D01*
X172102292Y-94455561D01*
X172155938Y-94559914D01*
X172222226Y-94664059D01*
X172282241Y-94737273D01*
X172309273Y-94753730D01*
X172321289Y-94718712D01*
X172295769Y-94634012D01*
X172293861Y-94629662D01*
X172238198Y-94526830D01*
X172173355Y-94436167D01*
X172116041Y-94377065D01*
X172082965Y-94368914D01*
X172080207Y-94381720D01*
X171931469Y-94381720D01*
X171940320Y-94280017D01*
X172035091Y-94280017D01*
X172057649Y-94302575D01*
X172215553Y-94302575D01*
X172232060Y-94339710D01*
X172245630Y-94332652D01*
X172251029Y-94279111D01*
X172245630Y-94272498D01*
X172218809Y-94278691D01*
X172215553Y-94302575D01*
X172057649Y-94302575D01*
X172080207Y-94280017D01*
X172057649Y-94257460D01*
X172035091Y-94280017D01*
X171940320Y-94280017D01*
X171941929Y-94261537D01*
X171966481Y-94157235D01*
X171987398Y-94123706D01*
X172007081Y-94070140D01*
X172020533Y-93952767D01*
X172027878Y-93794232D01*
X172029242Y-93617175D01*
X172024749Y-93444241D01*
X172014524Y-93298071D01*
X171998692Y-93201310D01*
X171982169Y-93174689D01*
X171952439Y-93136613D01*
X171944860Y-93078934D01*
X171936039Y-93013167D01*
X171894345Y-93025076D01*
X171868527Y-93045097D01*
X171815420Y-93083637D01*
X171818832Y-93060386D01*
X171830274Y-93039342D01*
X171893101Y-92944809D01*
X171924948Y-92903996D01*
X171957694Y-92836130D01*
X171927007Y-92791208D01*
X177358715Y-92791208D01*
X177381272Y-92813765D01*
X177403830Y-92791208D01*
X177381272Y-92768650D01*
X177358715Y-92791208D01*
X171927007Y-92791208D01*
X171918086Y-92778150D01*
X171869412Y-92747599D01*
X171854956Y-92794020D01*
X171854629Y-92814952D01*
X171836081Y-92932072D01*
X171815755Y-92985914D01*
X171777649Y-93085607D01*
X171747462Y-93197247D01*
X171733024Y-93280271D01*
X171745748Y-93284012D01*
X171765905Y-93253848D01*
X171815798Y-93201919D01*
X171873069Y-93229717D01*
X171874788Y-93231290D01*
X171909924Y-93303111D01*
X171891336Y-93341896D01*
X171867781Y-93416437D01*
X171876215Y-93443809D01*
X171889284Y-93514357D01*
X171871017Y-93594163D01*
X171834322Y-93645849D01*
X171806266Y-93646394D01*
X171781913Y-93637491D01*
X171766373Y-93657261D01*
X171757654Y-93720871D01*
X171753764Y-93843486D01*
X171752714Y-94040273D01*
X171752698Y-94054440D01*
X171750083Y-94187703D01*
X171743445Y-94255974D01*
X171734098Y-94247873D01*
X171731838Y-94234902D01*
X171702751Y-94119355D01*
X171666448Y-94045326D01*
X171643073Y-93963117D01*
X171652549Y-93887422D01*
X171670738Y-93816781D01*
X171651905Y-93826330D01*
X171619683Y-93867297D01*
X171578292Y-93914190D01*
X171565471Y-93894890D01*
X171573719Y-93797920D01*
X171573813Y-93797116D01*
X171567036Y-93658648D01*
X171511515Y-93578220D01*
X171460790Y-93545607D01*
X171465101Y-93569370D01*
X171466916Y-93644396D01*
X171428646Y-93726034D01*
X171377831Y-93782826D01*
X171360107Y-93767440D01*
X171374437Y-93691225D01*
X171419785Y-93565532D01*
X171442550Y-93513055D01*
X171764398Y-93513055D01*
X171786956Y-93535612D01*
X171809514Y-93513055D01*
X171786956Y-93490497D01*
X171764398Y-93513055D01*
X171442550Y-93513055D01*
X171449581Y-93496849D01*
X171482544Y-93422824D01*
X171637847Y-93422824D01*
X171642724Y-93499873D01*
X171656847Y-93506657D01*
X171658645Y-93502635D01*
X171667570Y-93413072D01*
X171660317Y-93367288D01*
X171645956Y-93348890D01*
X171638145Y-93408814D01*
X171637847Y-93422824D01*
X171482544Y-93422824D01*
X171508455Y-93364636D01*
X171532500Y-93295962D01*
X171524468Y-93272337D01*
X171487111Y-93275268D01*
X171482427Y-93276199D01*
X171442295Y-93248872D01*
X171440291Y-93174689D01*
X171441537Y-93152131D01*
X171538821Y-93152131D01*
X171561379Y-93174689D01*
X171583937Y-93152131D01*
X171561379Y-93129573D01*
X171538821Y-93152131D01*
X171441537Y-93152131D01*
X171443571Y-93115323D01*
X171423572Y-93108377D01*
X171367260Y-93159590D01*
X171293665Y-93239279D01*
X171205678Y-93326841D01*
X171147241Y-93366896D01*
X171132782Y-93359028D01*
X171156352Y-93275964D01*
X171215606Y-93152540D01*
X171293365Y-93021516D01*
X171353824Y-92937556D01*
X171384516Y-92881438D01*
X171538821Y-92881438D01*
X171561379Y-92903996D01*
X171583937Y-92881438D01*
X171561379Y-92858881D01*
X171538821Y-92881438D01*
X171384516Y-92881438D01*
X171393470Y-92865067D01*
X171390184Y-92830552D01*
X171393441Y-92778427D01*
X171431297Y-92673730D01*
X171473172Y-92584193D01*
X171543623Y-92441487D01*
X171576198Y-92360991D01*
X171575715Y-92325421D01*
X171547530Y-92317495D01*
X171506138Y-92354458D01*
X171458999Y-92441563D01*
X171429956Y-92499710D01*
X171426597Y-92480750D01*
X171428881Y-92470079D01*
X171430221Y-92352676D01*
X171409456Y-92265554D01*
X171405168Y-92204707D01*
X171493706Y-92204707D01*
X171516263Y-92227264D01*
X171538821Y-92204707D01*
X171516263Y-92182149D01*
X171493706Y-92204707D01*
X171405168Y-92204707D01*
X171402553Y-92167616D01*
X171414324Y-92114476D01*
X171448590Y-92114476D01*
X171471148Y-92137033D01*
X171493706Y-92114476D01*
X171538821Y-92114476D01*
X171561379Y-92137033D01*
X171583937Y-92114476D01*
X171561379Y-92091918D01*
X171538821Y-92114476D01*
X171493706Y-92114476D01*
X171471148Y-92091918D01*
X171448590Y-92114476D01*
X171414324Y-92114476D01*
X171430593Y-92041031D01*
X171481845Y-91913444D01*
X171544572Y-91812497D01*
X171607042Y-91765836D01*
X171621518Y-91765949D01*
X171659774Y-91753785D01*
X171654227Y-91735230D01*
X171660610Y-91677131D01*
X171679973Y-91659733D01*
X171708401Y-91653595D01*
X171713461Y-91693236D01*
X171693787Y-91792214D01*
X171650106Y-91956572D01*
X171618760Y-92069360D01*
X171719283Y-92069360D01*
X171741841Y-92091918D01*
X171764398Y-92069360D01*
X171741841Y-92046803D01*
X171719283Y-92069360D01*
X171618760Y-92069360D01*
X171685734Y-91979129D01*
X171764398Y-91979129D01*
X171786956Y-92001687D01*
X171809514Y-91979129D01*
X171786956Y-91956572D01*
X171764398Y-91979129D01*
X171685734Y-91979129D01*
X171694666Y-91967096D01*
X171769084Y-91894563D01*
X171817540Y-91904507D01*
X171835095Y-91991657D01*
X171824787Y-92105920D01*
X171809296Y-92220881D01*
X171816475Y-92262757D01*
X171852101Y-92247098D01*
X171871488Y-92231622D01*
X171926295Y-92142851D01*
X171924994Y-92022126D01*
X171928285Y-91971610D01*
X177012829Y-91971610D01*
X177019022Y-91998431D01*
X177042906Y-92001687D01*
X177080042Y-91985180D01*
X177072983Y-91971610D01*
X177019442Y-91966211D01*
X177012829Y-91971610D01*
X171928285Y-91971610D01*
X171935861Y-91855333D01*
X171982196Y-91769633D01*
X172046033Y-91645356D01*
X172061427Y-91579106D01*
X176772214Y-91579106D01*
X176794457Y-91645258D01*
X176839031Y-91671025D01*
X176855677Y-91662569D01*
X176849451Y-91616219D01*
X176825600Y-91585873D01*
X176780179Y-91560439D01*
X176772214Y-91579106D01*
X172061427Y-91579106D01*
X172071036Y-91537758D01*
X172094068Y-91424648D01*
X172128336Y-91357296D01*
X172179361Y-91285482D01*
X172249499Y-91170247D01*
X172276778Y-91121936D01*
X175193173Y-91121936D01*
X175215731Y-91144493D01*
X175238288Y-91121936D01*
X175215731Y-91099378D01*
X175193173Y-91121936D01*
X172276778Y-91121936D01*
X172350022Y-91013444D01*
X172378953Y-90986589D01*
X174155517Y-90986589D01*
X174178075Y-91009147D01*
X174200633Y-90986589D01*
X174178075Y-90964032D01*
X174155517Y-90986589D01*
X172378953Y-90986589D01*
X172419341Y-90949100D01*
X172442566Y-90941474D01*
X172520166Y-90918333D01*
X172536902Y-90902979D01*
X172592793Y-90891778D01*
X172659955Y-90915302D01*
X172727135Y-90944012D01*
X172735624Y-90918105D01*
X172728342Y-90896891D01*
X172726203Y-90848897D01*
X172779721Y-90857572D01*
X172831587Y-90869124D01*
X172825276Y-90828869D01*
X172805715Y-90790411D01*
X172781005Y-90712410D01*
X172813831Y-90697507D01*
X172889880Y-90749733D01*
X172931895Y-90783561D01*
X172920041Y-90751943D01*
X172918799Y-90749733D01*
X172918407Y-90743029D01*
X173536682Y-90743029D01*
X173546148Y-90788235D01*
X173549359Y-90796794D01*
X173585100Y-90852040D01*
X173605419Y-90852437D01*
X173600358Y-90804711D01*
X173574615Y-90771539D01*
X173536682Y-90743029D01*
X172918407Y-90743029D01*
X172915893Y-90700148D01*
X172934738Y-90693339D01*
X172950277Y-90670781D01*
X173478786Y-90670781D01*
X173501343Y-90693339D01*
X173523901Y-90670781D01*
X173501343Y-90648223D01*
X173478786Y-90670781D01*
X172950277Y-90670781D01*
X172962983Y-90652336D01*
X172979898Y-90545352D01*
X172982052Y-90482800D01*
X173223131Y-90482800D01*
X173229324Y-90509621D01*
X173253208Y-90512877D01*
X173290344Y-90496370D01*
X173283285Y-90482800D01*
X173229744Y-90477401D01*
X173223131Y-90482800D01*
X172982052Y-90482800D01*
X172982516Y-90469349D01*
X172987657Y-90380250D01*
X173350608Y-90380250D01*
X173351714Y-90402121D01*
X173362591Y-90437615D01*
X173386756Y-90535046D01*
X173392116Y-90572961D01*
X173403027Y-90599311D01*
X173417867Y-90570971D01*
X173417225Y-90557993D01*
X173569017Y-90557993D01*
X173585524Y-90595128D01*
X173599094Y-90588070D01*
X173604493Y-90534528D01*
X173599094Y-90527916D01*
X173572272Y-90534109D01*
X173569017Y-90557993D01*
X173417225Y-90557993D01*
X173413947Y-90491789D01*
X173388341Y-90435625D01*
X173350608Y-90380250D01*
X172987657Y-90380250D01*
X172990997Y-90322388D01*
X172995641Y-90309858D01*
X173253208Y-90309858D01*
X173275766Y-90332415D01*
X173298324Y-90309858D01*
X173275766Y-90287300D01*
X173253208Y-90309858D01*
X172995641Y-90309858D01*
X173022121Y-90238425D01*
X173071067Y-90197968D01*
X173135938Y-90126835D01*
X173134484Y-90072313D01*
X173124953Y-90024911D01*
X173151312Y-90052396D01*
X173211373Y-90073955D01*
X173295922Y-90028660D01*
X173390647Y-89931119D01*
X173481238Y-89795942D01*
X173551000Y-89644405D01*
X173594225Y-89573019D01*
X173629342Y-89586880D01*
X173639912Y-89655684D01*
X173627202Y-89729077D01*
X173609653Y-89745914D01*
X173566421Y-89779690D01*
X173503822Y-89861267D01*
X173501741Y-89864428D01*
X173442622Y-89971180D01*
X173397264Y-90081535D01*
X173372901Y-90171790D01*
X173376765Y-90218241D01*
X173394472Y-90215970D01*
X173428012Y-90223371D01*
X173427843Y-90248936D01*
X173432351Y-90336752D01*
X173453002Y-90419493D01*
X173477471Y-90478820D01*
X173499835Y-90476910D01*
X173531349Y-90403993D01*
X173556935Y-90329262D01*
X173617719Y-90187429D01*
X173690017Y-90071099D01*
X173714328Y-90043927D01*
X173777831Y-89987350D01*
X173789615Y-89998691D01*
X173768884Y-90066485D01*
X173749467Y-90166082D01*
X173736714Y-90310959D01*
X173730932Y-90474521D01*
X173732430Y-90630176D01*
X173741516Y-90751330D01*
X173758498Y-90811391D01*
X173760240Y-90812781D01*
X173775770Y-90797825D01*
X173766362Y-90762494D01*
X173758868Y-90721668D01*
X173796179Y-90727154D01*
X173879382Y-90771429D01*
X173972915Y-90840486D01*
X174018912Y-90905458D01*
X174019886Y-90913161D01*
X174032997Y-90951688D01*
X174085192Y-90921108D01*
X174087844Y-90918916D01*
X174134650Y-90851243D01*
X174200633Y-90851243D01*
X174223191Y-90873801D01*
X174245748Y-90851243D01*
X174223191Y-90828685D01*
X174200633Y-90851243D01*
X174134650Y-90851243D01*
X174145111Y-90836120D01*
X174154827Y-90789325D01*
X174145856Y-90742920D01*
X174115351Y-90777108D01*
X174070155Y-90810673D01*
X174034523Y-90760190D01*
X174010952Y-90631563D01*
X174003406Y-90512616D01*
X174005242Y-90398290D01*
X174017861Y-90342835D01*
X174030005Y-90346783D01*
X174055392Y-90429074D01*
X174064596Y-90528983D01*
X174077922Y-90619646D01*
X174121962Y-90635638D01*
X174131515Y-90632463D01*
X174204111Y-90632944D01*
X174224408Y-90650194D01*
X174271831Y-90697813D01*
X174298208Y-90671129D01*
X174296087Y-90585037D01*
X174283938Y-90531204D01*
X174260988Y-90419486D01*
X174261216Y-90349652D01*
X174264704Y-90343537D01*
X174289471Y-90363931D01*
X174316040Y-90447655D01*
X174318748Y-90460556D01*
X174350927Y-90571866D01*
X174379847Y-90599192D01*
X174397286Y-90548646D01*
X174395022Y-90426338D01*
X174392851Y-90405481D01*
X174389948Y-90263483D01*
X174409693Y-90148042D01*
X174420523Y-90123509D01*
X174454306Y-90076333D01*
X174465020Y-90102711D01*
X174462647Y-90174511D01*
X174458136Y-90371561D01*
X174470769Y-90494683D01*
X174499559Y-90537885D01*
X174520621Y-90526744D01*
X174545934Y-90457569D01*
X174516965Y-90378510D01*
X174488655Y-90293880D01*
X174499041Y-90245806D01*
X174537205Y-90255465D01*
X174563319Y-90288606D01*
X174593482Y-90314833D01*
X174607950Y-90262229D01*
X174610478Y-90219627D01*
X174615603Y-90130137D01*
X174626221Y-90126007D01*
X174649000Y-90197069D01*
X174692887Y-90276364D01*
X174740268Y-90296734D01*
X174778092Y-90314331D01*
X174770111Y-90356818D01*
X174745210Y-90436307D01*
X174741327Y-90460173D01*
X174720541Y-90455733D01*
X174693787Y-90422646D01*
X174660044Y-90384585D01*
X174658510Y-90426845D01*
X174661259Y-90445204D01*
X174699242Y-90518666D01*
X174738089Y-90535435D01*
X174802190Y-90572692D01*
X174833483Y-90625666D01*
X174859661Y-90680262D01*
X174886774Y-90665203D01*
X174902579Y-90634096D01*
X174985063Y-90634096D01*
X175034709Y-90725473D01*
X175040587Y-90732440D01*
X175102825Y-90794864D01*
X175140416Y-90789289D01*
X175163506Y-90754362D01*
X175174038Y-90678553D01*
X175131249Y-90639714D01*
X175066758Y-90567020D01*
X175054773Y-90521914D01*
X175045476Y-90479573D01*
X175017370Y-90516882D01*
X175005277Y-90541081D01*
X174985063Y-90634096D01*
X174902579Y-90634096D01*
X174925696Y-90588598D01*
X174958888Y-90476904D01*
X174939182Y-90430694D01*
X174894928Y-90381383D01*
X174862731Y-90316551D01*
X174854358Y-90267990D01*
X174877881Y-90265062D01*
X174919523Y-90256689D01*
X174925340Y-90233568D01*
X174940528Y-90222889D01*
X174969001Y-90276021D01*
X175017356Y-90354181D01*
X175056373Y-90377531D01*
X175091377Y-90416131D01*
X175102942Y-90490319D01*
X175116324Y-90575136D01*
X175142000Y-90603108D01*
X175158416Y-90563827D01*
X175155253Y-90490319D01*
X175193173Y-90490319D01*
X175215731Y-90512877D01*
X175238288Y-90490319D01*
X175215731Y-90467762D01*
X175193173Y-90490319D01*
X175155253Y-90490319D01*
X175154153Y-90464784D01*
X175145915Y-90411367D01*
X175144044Y-90398461D01*
X175299861Y-90398461D01*
X175320358Y-90422646D01*
X175356208Y-90383420D01*
X175383033Y-90288766D01*
X175383466Y-90285882D01*
X175386711Y-90199371D01*
X175365442Y-90191873D01*
X175329299Y-90258885D01*
X175307992Y-90321136D01*
X175299861Y-90398461D01*
X175144044Y-90398461D01*
X175128348Y-90290223D01*
X175125760Y-90212487D01*
X175129415Y-90200829D01*
X175146762Y-90216745D01*
X175148057Y-90234665D01*
X175178267Y-90284330D01*
X175193173Y-90287300D01*
X175224274Y-90247831D01*
X175239488Y-90151705D01*
X175239723Y-90140675D01*
X175262020Y-90007457D01*
X175310371Y-89903819D01*
X175358911Y-89844935D01*
X175366555Y-89861578D01*
X175351048Y-89930136D01*
X175343086Y-90018318D01*
X175384920Y-90046428D01*
X175393189Y-90046684D01*
X175450919Y-90008112D01*
X175463866Y-89939966D01*
X175481305Y-89826910D01*
X175524037Y-89689893D01*
X175531539Y-89671283D01*
X175585729Y-89524930D01*
X175594266Y-89452643D01*
X175557459Y-89450840D01*
X175550370Y-89454967D01*
X175533981Y-89454018D01*
X175550954Y-89405918D01*
X175605786Y-89301323D01*
X175702977Y-89130885D01*
X175722614Y-89097128D01*
X175764145Y-89038192D01*
X175779009Y-89037642D01*
X175810790Y-89036485D01*
X175889730Y-88990424D01*
X175926299Y-88964274D01*
X176069142Y-88876072D01*
X176221216Y-88807534D01*
X176234666Y-88803031D01*
X176375932Y-88733831D01*
X176432965Y-88690532D01*
X176566918Y-88690532D01*
X176600639Y-88739477D01*
X176650809Y-88749813D01*
X176677286Y-88738795D01*
X176647865Y-88723402D01*
X176613721Y-88675335D01*
X176620999Y-88652320D01*
X176622498Y-88625648D01*
X176597987Y-88636733D01*
X176566918Y-88690532D01*
X176432965Y-88690532D01*
X176509850Y-88632163D01*
X176525078Y-88616985D01*
X176645560Y-88519672D01*
X176775008Y-88486756D01*
X176814491Y-88486346D01*
X176975233Y-88490010D01*
X176704541Y-88621138D01*
X176862445Y-88590803D01*
X177037109Y-88569928D01*
X177240585Y-88564095D01*
X177440367Y-88572376D01*
X177603946Y-88593839D01*
X177674523Y-88614023D01*
X177714772Y-88637149D01*
X177686610Y-88646686D01*
X177582045Y-88643466D01*
X177471503Y-88635106D01*
X177285093Y-88625073D01*
X177146305Y-88636565D01*
X177013823Y-88675887D01*
X176907560Y-88721148D01*
X176742045Y-88789184D01*
X176582467Y-88843642D01*
X176501521Y-88864575D01*
X176335036Y-88906072D01*
X176159898Y-88963371D01*
X176005424Y-89025522D01*
X175900928Y-89081570D01*
X175883962Y-89095309D01*
X175839334Y-89159871D01*
X175771433Y-89281742D01*
X175694064Y-89435966D01*
X175685111Y-89454802D01*
X175616513Y-89608389D01*
X175573277Y-89737022D01*
X175549346Y-89871420D01*
X175538665Y-90042301D01*
X175535708Y-90212478D01*
X175538277Y-90428891D01*
X175549717Y-90585019D01*
X175568893Y-90668434D01*
X175578291Y-90678597D01*
X175618548Y-90654589D01*
X175631882Y-90603654D01*
X175622476Y-90530224D01*
X175602624Y-90512877D01*
X175585802Y-90473050D01*
X175578150Y-90373619D01*
X175578873Y-90244658D01*
X175587181Y-90116243D01*
X175602279Y-90018449D01*
X175616559Y-89984222D01*
X175631508Y-89981683D01*
X175642775Y-90017598D01*
X175651837Y-90105409D01*
X175660172Y-90258560D01*
X175667788Y-90450128D01*
X175680814Y-90626308D01*
X175712306Y-90728075D01*
X175774996Y-90771067D01*
X175881614Y-90770918D01*
X175924007Y-90764808D01*
X176041418Y-90754617D01*
X176077090Y-90774115D01*
X176073582Y-90782506D01*
X176076162Y-90824840D01*
X176092819Y-90828685D01*
X176131487Y-90790365D01*
X176144159Y-90727176D01*
X176154125Y-90668611D01*
X176168975Y-90677555D01*
X176227149Y-90708291D01*
X176312038Y-90696269D01*
X176469772Y-90695403D01*
X176629724Y-90781027D01*
X176672182Y-90817406D01*
X176753534Y-90868096D01*
X176807892Y-90859688D01*
X176817329Y-90828685D01*
X176853871Y-90788660D01*
X176885002Y-90783570D01*
X176945029Y-90808680D01*
X176952676Y-90830101D01*
X176916622Y-90885041D01*
X176885002Y-90902601D01*
X176821298Y-90955616D01*
X176830638Y-91015425D01*
X176903613Y-91052170D01*
X176932780Y-91054263D01*
X177009539Y-91068584D01*
X177020349Y-91099378D01*
X176956715Y-91137278D01*
X176904897Y-91144493D01*
X176833085Y-91166292D01*
X176817329Y-91195248D01*
X176856211Y-91226241D01*
X176952676Y-91218934D01*
X177052552Y-91211084D01*
X177087366Y-91245817D01*
X177088022Y-91256168D01*
X177123086Y-91329971D01*
X177166974Y-91366457D01*
X177211755Y-91405198D01*
X177200811Y-91419018D01*
X177113599Y-91435383D01*
X177110580Y-91436076D01*
X177023463Y-91452016D01*
X177013294Y-91453430D01*
X176984602Y-91492410D01*
X176988588Y-91566055D01*
X177017845Y-91628192D01*
X177043341Y-91640763D01*
X177087595Y-91604872D01*
X177105434Y-91570231D01*
X177146933Y-91521562D01*
X177188970Y-91540738D01*
X177210523Y-91607985D01*
X177204759Y-91663651D01*
X177206629Y-91776955D01*
X177245941Y-91895585D01*
X177292444Y-92031801D01*
X177313247Y-92185660D01*
X177313321Y-92193045D01*
X177335349Y-92337198D01*
X177401536Y-92416764D01*
X177460108Y-92471752D01*
X177440662Y-92530400D01*
X177437076Y-92534817D01*
X177411702Y-92598271D01*
X177459864Y-92652929D01*
X177502935Y-92696085D01*
X177511876Y-92756255D01*
X177488173Y-92862494D01*
X177473186Y-92913463D01*
X177438786Y-93058201D01*
X177444252Y-93143001D01*
X177461715Y-93169412D01*
X177486412Y-93211660D01*
X177453078Y-93219804D01*
X177414127Y-93252315D01*
X177422356Y-93332593D01*
X177436539Y-93411430D01*
X177415322Y-93438936D01*
X177342619Y-93418605D01*
X177240483Y-93372102D01*
X177145264Y-93332340D01*
X177066882Y-93323988D01*
X176969957Y-93349119D01*
X176855446Y-93394659D01*
X176688759Y-93450481D01*
X176523272Y-93485029D01*
X176453052Y-93490497D01*
X176334506Y-93501930D01*
X176259059Y-93530201D01*
X176251914Y-93537994D01*
X176189998Y-93569927D01*
X176170300Y-93566209D01*
X176095623Y-93573921D01*
X175987791Y-93619866D01*
X175878580Y-93685674D01*
X175799763Y-93752973D01*
X175779674Y-93792055D01*
X175752397Y-93846555D01*
X175734558Y-93851421D01*
X175691988Y-93816176D01*
X175689443Y-93798786D01*
X175673249Y-93766364D01*
X175663230Y-93772364D01*
X175662169Y-93826874D01*
X175691526Y-93900429D01*
X175717939Y-93970853D01*
X175697688Y-94030473D01*
X175618549Y-94107804D01*
X175593672Y-94128657D01*
X175489428Y-94206548D01*
X175408960Y-94251764D01*
X175391170Y-94256246D01*
X175359951Y-94294766D01*
X175362083Y-94367582D01*
X175359033Y-94476482D01*
X175326480Y-94620191D01*
X175307220Y-94676483D01*
X175263129Y-94806955D01*
X175255794Y-94900342D01*
X175284678Y-95001724D01*
X175302823Y-95046427D01*
X175351020Y-95196156D01*
X175390851Y-95378502D01*
X175402757Y-95459373D01*
X175426522Y-95605448D01*
X175459115Y-95679852D01*
X175508799Y-95701142D01*
X175510441Y-95701154D01*
X175559683Y-95713490D01*
X175570395Y-95766413D01*
X175551901Y-95868794D01*
X175535356Y-95989465D01*
X175542687Y-96073790D01*
X175547411Y-96083092D01*
X175568107Y-96163727D01*
X175574518Y-96317241D01*
X175566177Y-96527344D01*
X175561807Y-96585874D01*
X175527413Y-96673267D01*
X175448682Y-96788076D01*
X175397128Y-96847507D01*
X175295033Y-96946766D01*
X175215754Y-96989941D01*
X175125925Y-96991552D01*
X175082620Y-96984387D01*
X174950698Y-96942018D01*
X174793810Y-96867829D01*
X174719194Y-96824264D01*
X174567351Y-96743446D01*
X174437641Y-96701118D01*
X174343135Y-96695818D01*
X174296905Y-96726080D01*
X174312023Y-96790443D01*
X174374282Y-96862877D01*
X174568584Y-97042701D01*
X174718980Y-97170118D01*
X174843607Y-97258241D01*
X174960601Y-97320181D01*
X175062059Y-97360104D01*
X175242545Y-97413610D01*
X175365514Y-97421734D01*
X175451896Y-97383684D01*
X175490519Y-97343880D01*
X175536461Y-97310947D01*
X175606539Y-97321646D01*
X175705769Y-97367249D01*
X175918889Y-97432610D01*
X176046412Y-97435083D01*
X176163771Y-97431675D01*
X176222039Y-97459584D01*
X176247003Y-97517635D01*
X176276399Y-97583921D01*
X176319556Y-97570021D01*
X176328605Y-97561389D01*
X176394648Y-97514127D01*
X176436384Y-97511122D01*
X176428728Y-97551040D01*
X176417379Y-97566109D01*
X176343523Y-97605582D01*
X176219773Y-97630948D01*
X176174998Y-97634286D01*
X176017429Y-97652637D01*
X175830356Y-97690653D01*
X175734558Y-97716333D01*
X175578087Y-97755052D01*
X175393695Y-97783860D01*
X175166880Y-97803928D01*
X174883134Y-97816428D01*
X174527953Y-97822533D01*
X174410916Y-97823268D01*
X174208347Y-97825779D01*
X174082599Y-97832699D01*
X174020288Y-97846344D01*
X174008029Y-97869028D01*
X174021318Y-97890635D01*
X174107451Y-97934869D01*
X174171959Y-97932714D01*
X174268337Y-97930865D01*
X174412661Y-97951131D01*
X174516300Y-97974546D01*
X174692515Y-98010559D01*
X174797018Y-98005988D01*
X174819772Y-97993677D01*
X174882678Y-97978568D01*
X175004976Y-97971313D01*
X175156193Y-97971617D01*
X175305858Y-97979185D01*
X175423500Y-97993723D01*
X175449279Y-97999763D01*
X175465817Y-98038425D01*
X175478333Y-98080994D01*
X175497899Y-98128187D01*
X175519909Y-98094686D01*
X175531295Y-98061202D01*
X175580708Y-97990243D01*
X175687682Y-97939683D01*
X175786433Y-97914576D01*
X175946676Y-97881812D01*
X176029892Y-97870146D01*
X176046731Y-97879360D01*
X176007842Y-97909235D01*
X176006558Y-97910049D01*
X175963603Y-97958486D01*
X175968235Y-97980065D01*
X176020284Y-97976620D01*
X176125655Y-97938570D01*
X176224842Y-97892287D01*
X176354298Y-97832078D01*
X176461775Y-97791198D01*
X176531806Y-97773600D01*
X176548921Y-97783237D01*
X176501521Y-97821581D01*
X176463558Y-97857747D01*
X176474677Y-97866005D01*
X176479012Y-97894121D01*
X176433848Y-97956927D01*
X176351639Y-98024787D01*
X176291509Y-98047158D01*
X176238231Y-98083569D01*
X176230828Y-98116800D01*
X176191360Y-98219474D01*
X176089109Y-98324893D01*
X175948306Y-98411922D01*
X175851581Y-98447563D01*
X175732362Y-98472710D01*
X175652068Y-98477111D01*
X175641068Y-98473740D01*
X175579028Y-98474049D01*
X175478930Y-98504371D01*
X175359769Y-98545150D01*
X175272147Y-98564826D01*
X175181106Y-98592195D01*
X175148450Y-98637475D01*
X175160603Y-98661243D01*
X175220571Y-98677267D01*
X175344364Y-98686754D01*
X175505824Y-98689833D01*
X175678792Y-98686631D01*
X175837110Y-98677276D01*
X175954619Y-98661896D01*
X175974064Y-98657262D01*
X176071057Y-98608828D01*
X176202149Y-98516089D01*
X176222972Y-98498312D01*
X176975233Y-98498312D01*
X176985461Y-98536936D01*
X177017686Y-98543428D01*
X177079414Y-98519873D01*
X177088022Y-98498312D01*
X177055641Y-98454488D01*
X177045569Y-98453197D01*
X176984467Y-98485991D01*
X176975233Y-98498312D01*
X176222972Y-98498312D01*
X176334988Y-98402687D01*
X176454930Y-98294410D01*
X176550254Y-98215893D01*
X176601548Y-98183053D01*
X176603031Y-98182876D01*
X176629084Y-98144109D01*
X176633322Y-98107400D01*
X176971229Y-98107400D01*
X176979281Y-98167312D01*
X177029131Y-98196040D01*
X177120642Y-98215042D01*
X177168648Y-98216775D01*
X177151989Y-98200929D01*
X177144416Y-98197740D01*
X177093428Y-98138323D01*
X177088022Y-98107312D01*
X177060594Y-98057445D01*
X177034447Y-98057497D01*
X176971229Y-98107400D01*
X176633322Y-98107400D01*
X176636867Y-98076708D01*
X176669344Y-97964625D01*
X176722777Y-97893165D01*
X176801913Y-97841964D01*
X176877951Y-97859374D01*
X176898737Y-97871656D01*
X176960031Y-97939909D01*
X176963891Y-97992774D01*
X176958979Y-98033945D01*
X177008361Y-98020073D01*
X177033553Y-98007048D01*
X177120091Y-97948396D01*
X177156979Y-97909734D01*
X177217353Y-97884096D01*
X177277930Y-97892252D01*
X177342292Y-97900299D01*
X177339144Y-97871529D01*
X177273103Y-97830251D01*
X177215879Y-97821581D01*
X177148368Y-97800422D01*
X177148898Y-97755352D01*
X177146325Y-97681457D01*
X177127237Y-97660030D01*
X177097411Y-97597893D01*
X177101408Y-97549687D01*
X177088818Y-97483215D01*
X177268484Y-97483215D01*
X177291041Y-97505772D01*
X177313599Y-97483215D01*
X177291041Y-97460657D01*
X177268484Y-97483215D01*
X177088818Y-97483215D01*
X177086750Y-97472302D01*
X177037665Y-97446214D01*
X176967235Y-97402665D01*
X176952676Y-97367130D01*
X176969109Y-97332080D01*
X176981165Y-97338762D01*
X177038491Y-97343276D01*
X177093954Y-97322136D01*
X177163462Y-97300490D01*
X177178253Y-97326386D01*
X177206250Y-97353772D01*
X177226824Y-97345733D01*
X177288703Y-97353292D01*
X177364436Y-97411290D01*
X177421148Y-97481993D01*
X177414366Y-97518423D01*
X177383539Y-97533703D01*
X177330601Y-97579764D01*
X177314680Y-97639833D01*
X177339218Y-97677669D01*
X177369993Y-97676258D01*
X177434434Y-97618777D01*
X177502605Y-97502130D01*
X177561483Y-97355816D01*
X177598044Y-97209331D01*
X177603864Y-97146546D01*
X177636074Y-96995158D01*
X177714819Y-96913840D01*
X177823615Y-96908911D01*
X177945979Y-96986688D01*
X177966134Y-97007691D01*
X178012337Y-97086006D01*
X178001136Y-97181673D01*
X177988798Y-97216553D01*
X177962702Y-97320732D01*
X177987156Y-97361848D01*
X178011238Y-97403598D01*
X177986315Y-97468160D01*
X177956348Y-97557327D01*
X177982918Y-97584586D01*
X178053781Y-97538907D01*
X178059078Y-97533701D01*
X178143206Y-97469060D01*
X178186401Y-97478480D01*
X178182020Y-97557943D01*
X178176415Y-97625707D01*
X178208801Y-97622953D01*
X178244332Y-97559649D01*
X178260871Y-97448709D01*
X178261024Y-97436853D01*
X178271652Y-97331865D01*
X178307410Y-97302862D01*
X178323169Y-97306874D01*
X178367264Y-97294318D01*
X178400573Y-97209809D01*
X178418639Y-97113718D01*
X178439846Y-97003868D01*
X178461750Y-96962083D01*
X178487307Y-96993249D01*
X178519479Y-97102249D01*
X178561222Y-97293969D01*
X178577581Y-97376112D01*
X178603900Y-97528336D01*
X178612683Y-97654091D01*
X178602263Y-97784627D01*
X178570979Y-97951196D01*
X178539582Y-98089665D01*
X178489520Y-98290603D01*
X178438157Y-98474173D01*
X178393887Y-98611138D01*
X178379343Y-98647923D01*
X178327178Y-98766335D01*
X178287906Y-98856306D01*
X178286642Y-98859236D01*
X178234916Y-98965356D01*
X178180989Y-99056451D01*
X178139770Y-99109506D01*
X178125861Y-99107371D01*
X178097980Y-99114484D01*
X178025849Y-99176091D01*
X177924864Y-99278980D01*
X177921128Y-99283024D01*
X177816980Y-99391699D01*
X177739418Y-99464629D01*
X177705188Y-99486073D01*
X177705167Y-99486044D01*
X177675982Y-99428355D01*
X177634975Y-99333102D01*
X177598856Y-99240824D01*
X177584292Y-99192816D01*
X177611872Y-99187092D01*
X177618128Y-99190544D01*
X177644479Y-99167029D01*
X177661356Y-99081450D01*
X177661625Y-99077906D01*
X177688284Y-98968332D01*
X177748214Y-98810973D01*
X177827829Y-98635151D01*
X177913541Y-98470190D01*
X177991763Y-98345414D01*
X178013798Y-98317850D01*
X178059312Y-98237379D01*
X178104315Y-98113702D01*
X178140710Y-97977656D01*
X178160401Y-97860075D01*
X178155293Y-97791796D01*
X178152773Y-97788522D01*
X178104378Y-97795680D01*
X178028288Y-97853828D01*
X178025421Y-97856670D01*
X177966376Y-97933779D01*
X177958572Y-97985237D01*
X177959467Y-97986217D01*
X178006351Y-97979882D01*
X178056226Y-97931076D01*
X178102909Y-97873098D01*
X178108091Y-97892888D01*
X178095253Y-97947028D01*
X178043621Y-98053454D01*
X177995987Y-98104932D01*
X177943452Y-98169395D01*
X177867445Y-98293135D01*
X177781678Y-98453214D01*
X177752749Y-98511805D01*
X177672403Y-98666594D01*
X177602420Y-98780532D01*
X177553800Y-98836533D01*
X177542304Y-98838611D01*
X177493189Y-98846310D01*
X177486635Y-98858955D01*
X177478152Y-98845448D01*
X177472662Y-98761930D01*
X177471503Y-98679273D01*
X177482671Y-98528826D01*
X177513467Y-98443599D01*
X177527898Y-98432554D01*
X177581361Y-98385357D01*
X177555736Y-98332500D01*
X177494061Y-98304778D01*
X177417684Y-98244314D01*
X177403830Y-98186728D01*
X177376597Y-98109945D01*
X177336157Y-98092273D01*
X177281429Y-98130967D01*
X177268484Y-98196039D01*
X177250565Y-98297150D01*
X177224139Y-98344149D01*
X177202864Y-98422088D01*
X177212083Y-98578704D01*
X177223382Y-98656301D01*
X177244508Y-98821504D01*
X177239134Y-98940239D01*
X177202819Y-99053534D01*
X177173471Y-99117249D01*
X177110224Y-99230736D01*
X177055504Y-99300187D01*
X177036724Y-99310390D01*
X176985096Y-99340918D01*
X176894460Y-99420279D01*
X176802671Y-99512380D01*
X176581156Y-99696908D01*
X176358140Y-99801664D01*
X176198201Y-99862567D01*
X176057518Y-99926080D01*
X175993274Y-99961780D01*
X175863350Y-100013414D01*
X175750660Y-100024585D01*
X175635391Y-100028690D01*
X175561943Y-100049946D01*
X175477136Y-100062095D01*
X175332642Y-100043686D01*
X175151550Y-100000069D01*
X174956952Y-99936595D01*
X174806635Y-99874918D01*
X174660506Y-99789502D01*
X174489699Y-99662280D01*
X174328964Y-99519344D01*
X174316187Y-99506608D01*
X174189240Y-99380418D01*
X174136199Y-99332948D01*
X174245748Y-99332948D01*
X174268306Y-99355506D01*
X174290864Y-99332948D01*
X174268306Y-99310390D01*
X174245748Y-99332948D01*
X174136199Y-99332948D01*
X174114138Y-99313205D01*
X174080146Y-99298943D01*
X174076529Y-99331605D01*
X174085890Y-99377315D01*
X174146135Y-99506654D01*
X174266236Y-99668103D01*
X174430707Y-99844114D01*
X174624065Y-100017142D01*
X174710039Y-100084609D01*
X174827591Y-100174888D01*
X174880527Y-100226389D01*
X174876758Y-100254015D01*
X174824192Y-100272669D01*
X174811549Y-100275875D01*
X174731422Y-100319008D01*
X174697430Y-100378910D01*
X174717849Y-100426959D01*
X174764576Y-100438277D01*
X174820872Y-100469813D01*
X174831044Y-100540301D01*
X174798933Y-100613558D01*
X174742018Y-100650782D01*
X174668880Y-100686491D01*
X174651787Y-100714231D01*
X174613929Y-100746553D01*
X174560944Y-100754085D01*
X174442755Y-100775303D01*
X174391761Y-100796246D01*
X174295486Y-100842421D01*
X174171023Y-100895782D01*
X174166796Y-100897490D01*
X174058056Y-100960020D01*
X174022980Y-101022765D01*
X174066370Y-101072501D01*
X174099123Y-101083909D01*
X174137498Y-101100178D01*
X174089243Y-101108902D01*
X174073903Y-101109775D01*
X174002953Y-101130306D01*
X173999514Y-101163200D01*
X174061402Y-101193992D01*
X174087301Y-101189133D01*
X174127095Y-101199003D01*
X174121827Y-101256652D01*
X174115179Y-101304406D01*
X174139586Y-101327891D01*
X174213532Y-101331183D01*
X174355495Y-101318361D01*
X174358571Y-101318028D01*
X175148057Y-101318028D01*
X175170615Y-101340586D01*
X175193173Y-101318028D01*
X175170615Y-101295470D01*
X175148057Y-101318028D01*
X174358571Y-101318028D01*
X174386348Y-101315022D01*
X174597893Y-101286239D01*
X174832068Y-101246028D01*
X174967596Y-101218446D01*
X175138102Y-101180993D01*
X175288094Y-101148802D01*
X175373635Y-101131150D01*
X175486423Y-101109021D01*
X175362356Y-101190138D01*
X175277245Y-101255520D01*
X175238512Y-101304495D01*
X175238288Y-101306779D01*
X175275728Y-101323260D01*
X175368738Y-101313239D01*
X175488356Y-101281765D01*
X175576654Y-101247776D01*
X175701196Y-101196253D01*
X175836719Y-101146428D01*
X175936698Y-101115393D01*
X175937578Y-101115184D01*
X175997035Y-101080843D01*
X176092306Y-101007392D01*
X176130573Y-100974710D01*
X176271606Y-100865756D01*
X176425005Y-100767581D01*
X176446381Y-100755876D01*
X176592638Y-100660788D01*
X176732355Y-100543610D01*
X176749656Y-100526239D01*
X176859494Y-100426704D01*
X177010906Y-100307408D01*
X177151745Y-100207456D01*
X177375970Y-100050900D01*
X177560037Y-99908868D01*
X177694354Y-99789758D01*
X177769328Y-99701967D01*
X177779203Y-99658194D01*
X177779887Y-99634295D01*
X177806783Y-99646849D01*
X177863801Y-99632702D01*
X177963807Y-99559795D01*
X178094610Y-99440763D01*
X178244020Y-99288238D01*
X178399847Y-99114855D01*
X178549900Y-98933246D01*
X178681988Y-98756047D01*
X178719134Y-98701332D01*
X178930577Y-98375797D01*
X179095055Y-98107180D01*
X179218888Y-97879583D01*
X179308399Y-97677108D01*
X179369909Y-97483858D01*
X179409738Y-97283934D01*
X179434210Y-97061440D01*
X179446145Y-96872982D01*
X179467532Y-96695188D01*
X179515815Y-96576313D01*
X179559267Y-96523337D01*
X179644241Y-96403959D01*
X179647570Y-96281400D01*
X179605762Y-96183179D01*
X179563284Y-96061478D01*
X179534400Y-95894357D01*
X179520567Y-95710892D01*
X179523239Y-95540159D01*
X179543871Y-95411234D01*
X179564897Y-95366750D01*
X179587700Y-95300283D01*
X179611350Y-95170205D01*
X179631177Y-95002969D01*
X179633279Y-94979307D01*
X179664211Y-94627062D01*
X179690701Y-94354991D01*
X179714444Y-94153246D01*
X179737137Y-94011978D01*
X179760473Y-93921339D01*
X179786150Y-93871482D01*
X179815862Y-93852559D01*
X179827456Y-93851421D01*
X179857040Y-93840872D01*
X179874364Y-93799385D01*
X179880472Y-93712195D01*
X179876409Y-93564541D01*
X179863364Y-93343872D01*
X179850220Y-93133651D01*
X179840083Y-92952952D01*
X179834075Y-92823049D01*
X179833044Y-92768650D01*
X179846360Y-92444454D01*
X179854523Y-92198062D01*
X179857516Y-92017195D01*
X179855325Y-91889573D01*
X179847935Y-91802917D01*
X179835328Y-91744945D01*
X179831738Y-91734508D01*
X179801032Y-91620639D01*
X179773639Y-91469395D01*
X179767313Y-91421469D01*
X179739566Y-91267264D01*
X179699666Y-91131870D01*
X179686936Y-91102147D01*
X179638546Y-90985973D01*
X179585487Y-90834611D01*
X179569545Y-90783570D01*
X179525476Y-90653186D01*
X179484769Y-90558941D01*
X179471296Y-90537691D01*
X179437434Y-90456939D01*
X179434025Y-90423162D01*
X179417110Y-90347166D01*
X179375696Y-90242716D01*
X179323781Y-90138025D01*
X179275362Y-90061307D01*
X179244436Y-90040775D01*
X179244353Y-90040856D01*
X179211351Y-90021655D01*
X179163296Y-89948866D01*
X179106785Y-89866917D01*
X179062816Y-89836145D01*
X179042191Y-89808474D01*
X179048636Y-89794117D01*
X179036616Y-89740043D01*
X178983913Y-89688560D01*
X178924307Y-89631915D01*
X178918632Y-89599615D01*
X178917692Y-89544016D01*
X178876002Y-89443121D01*
X178808075Y-89322957D01*
X178728423Y-89209557D01*
X178660174Y-89136045D01*
X178522294Y-89025573D01*
X178386427Y-88929892D01*
X178275713Y-88864297D01*
X178217735Y-88843605D01*
X178172456Y-88810375D01*
X178170793Y-88798490D01*
X178207268Y-88758312D01*
X178237537Y-88753374D01*
X178301793Y-88722137D01*
X178400732Y-88641060D01*
X178491418Y-88550355D01*
X178596755Y-88443099D01*
X178681397Y-88369519D01*
X178721147Y-88347335D01*
X178785962Y-88318657D01*
X178824455Y-88286620D01*
X178899156Y-88245365D01*
X179031378Y-88199960D01*
X179161384Y-88167287D01*
X179303885Y-88141038D01*
X179425519Y-88132513D01*
X179556593Y-88143252D01*
G37*
G36*
X174016405Y-101574844D02*
G01*
X174189354Y-101590850D01*
X174386689Y-101610744D01*
X174574670Y-101627912D01*
X174714174Y-101638793D01*
X174719461Y-101639125D01*
X174869901Y-101649046D01*
X174945683Y-101657934D01*
X174962217Y-101670210D01*
X174934911Y-101690296D01*
X174922480Y-101697372D01*
X174833177Y-101724596D01*
X174685419Y-101746697D01*
X174503028Y-101762678D01*
X174309825Y-101771546D01*
X174129635Y-101772306D01*
X173986278Y-101763963D01*
X173903578Y-101745522D01*
X173896104Y-101740231D01*
X173846505Y-101656211D01*
X173839709Y-101618590D01*
X173853714Y-101586868D01*
X173906985Y-101572732D01*
X174016405Y-101574844D01*
G37*
G36*
X174335979Y-101137566D02*
G01*
X174313422Y-101160124D01*
X174290864Y-101137566D01*
X174313422Y-101115009D01*
X174335979Y-101137566D01*
G37*
G36*
X175554096Y-101092451D02*
G01*
X175531539Y-101115009D01*
X175508981Y-101092451D01*
X175531539Y-101069893D01*
X175554096Y-101092451D01*
G37*
G36*
X176321059Y-100505950D02*
G01*
X176298501Y-100528508D01*
X176275944Y-100505950D01*
X176298501Y-100483392D01*
X176321059Y-100505950D01*
G37*
G36*
X176411290Y-100460835D02*
G01*
X176388732Y-100483392D01*
X176366175Y-100460835D01*
X176388732Y-100438277D01*
X176411290Y-100460835D01*
G37*
G36*
X175328519Y-100415719D02*
G01*
X175305961Y-100438277D01*
X175283404Y-100415719D01*
X175305961Y-100393161D01*
X175328519Y-100415719D01*
G37*
G36*
X174877365Y-100370604D02*
G01*
X174854807Y-100393161D01*
X174832249Y-100370604D01*
X174854807Y-100348046D01*
X174877365Y-100370604D01*
G37*
G36*
X175193173Y-100370604D02*
G01*
X175170615Y-100393161D01*
X175148057Y-100370604D01*
X175170615Y-100348046D01*
X175193173Y-100370604D01*
G37*
G36*
X175042788Y-100317969D02*
G01*
X175036595Y-100344790D01*
X175012711Y-100348046D01*
X174975576Y-100331539D01*
X174982634Y-100317969D01*
X175036176Y-100312569D01*
X175042788Y-100317969D01*
G37*
G36*
X176591752Y-100280373D02*
G01*
X176569194Y-100302930D01*
X176546636Y-100280373D01*
X176569194Y-100257815D01*
X176591752Y-100280373D01*
G37*
G36*
X176320542Y-99931797D02*
G01*
X176321059Y-99942007D01*
X176286377Y-99985389D01*
X176273281Y-99987122D01*
X176246337Y-99959483D01*
X176253386Y-99942007D01*
X176293927Y-99898967D01*
X176301164Y-99896891D01*
X176320542Y-99931797D01*
G37*
G36*
X176456406Y-99874334D02*
G01*
X176433848Y-99896891D01*
X176411290Y-99874334D01*
X176433848Y-99851776D01*
X176456406Y-99874334D01*
G37*
G36*
X177900100Y-99603641D02*
G01*
X177877542Y-99626199D01*
X177854985Y-99603641D01*
X177877542Y-99581083D01*
X177900100Y-99603641D01*
G37*
G36*
X177494061Y-99513410D02*
G01*
X177471503Y-99535968D01*
X177448945Y-99513410D01*
X177471503Y-99490852D01*
X177494061Y-99513410D01*
G37*
G36*
X178080562Y-99378064D02*
G01*
X178058004Y-99400621D01*
X178035446Y-99378064D01*
X178058004Y-99355506D01*
X178080562Y-99378064D01*
G37*
G36*
X177433907Y-98603582D02*
G01*
X177439306Y-98657123D01*
X177433907Y-98663736D01*
X177407086Y-98657543D01*
X177403830Y-98633659D01*
X177420337Y-98596524D01*
X177433907Y-98603582D01*
G37*
G36*
X178712178Y-98611101D02*
G01*
X178689620Y-98633659D01*
X178667063Y-98611101D01*
X178689620Y-98588543D01*
X178712178Y-98611101D01*
G37*
G36*
X176321059Y-98205062D02*
G01*
X176298501Y-98227620D01*
X176275944Y-98205062D01*
X176298501Y-98182504D01*
X176321059Y-98205062D01*
G37*
G36*
X177005241Y-97678454D02*
G01*
X177038877Y-97765333D01*
X177028166Y-97831371D01*
X177007389Y-97864622D01*
X177001353Y-97832859D01*
X176959048Y-97792454D01*
X176862445Y-97776465D01*
X176767396Y-97764615D01*
X176727108Y-97736066D01*
X176727098Y-97735573D01*
X176763344Y-97713270D01*
X176824384Y-97720122D01*
X176892149Y-97725727D01*
X176889395Y-97693341D01*
X176893511Y-97648752D01*
X176928871Y-97641119D01*
X177005241Y-97678454D01*
G37*
G36*
X176629897Y-97749599D02*
G01*
X176677950Y-97791538D01*
X176681983Y-97801685D01*
X176660572Y-97820228D01*
X176615995Y-97778678D01*
X176610001Y-97769494D01*
X176604684Y-97738622D01*
X176629897Y-97749599D01*
G37*
G36*
X177132620Y-97134639D02*
G01*
X177133137Y-97144849D01*
X177098455Y-97188230D01*
X177085359Y-97189964D01*
X177058415Y-97162325D01*
X177065464Y-97144849D01*
X177106005Y-97101809D01*
X177113242Y-97099733D01*
X177132620Y-97134639D01*
G37*
G36*
X176428663Y-96237640D02*
G01*
X176571928Y-96323377D01*
X176648081Y-96381781D01*
X176823626Y-96522510D01*
X177019224Y-96679334D01*
X177149662Y-96783925D01*
X177266411Y-96883916D01*
X177341505Y-96960951D01*
X177360847Y-97000292D01*
X177358217Y-97001983D01*
X177320985Y-97053498D01*
X177313599Y-97103493D01*
X177291641Y-97178563D01*
X177243975Y-97177179D01*
X177205089Y-97117172D01*
X177144308Y-97064605D01*
X177086883Y-97067988D01*
X176994623Y-97055340D01*
X176944461Y-96994154D01*
X176932656Y-96969214D01*
X176997791Y-96969214D01*
X177013520Y-97007039D01*
X177064847Y-96968472D01*
X177088879Y-96940796D01*
X177121796Y-96891885D01*
X177086151Y-96895193D01*
X177071845Y-96900508D01*
X177008291Y-96944568D01*
X176997791Y-96969214D01*
X176932656Y-96969214D01*
X176907430Y-96915924D01*
X176899936Y-96885435D01*
X176900841Y-96827174D01*
X176818604Y-96787053D01*
X176752821Y-96775732D01*
X176656870Y-96772678D01*
X176618575Y-96788296D01*
X176620137Y-96793354D01*
X176612167Y-96823828D01*
X176551994Y-96823312D01*
X176471513Y-96793512D01*
X176456406Y-96784584D01*
X176428166Y-96751813D01*
X176474103Y-96726324D01*
X176517239Y-96716252D01*
X176772214Y-96716252D01*
X176794771Y-96738810D01*
X176817329Y-96716252D01*
X176794771Y-96693694D01*
X176772214Y-96716252D01*
X176517239Y-96716252D01*
X176537120Y-96711610D01*
X176638756Y-96672508D01*
X176663644Y-96626361D01*
X176612990Y-96595028D01*
X176530625Y-96593892D01*
X176443295Y-96587427D01*
X176411290Y-96557015D01*
X176376163Y-96527705D01*
X176317899Y-96536793D01*
X176255137Y-96546489D01*
X176234505Y-96505399D01*
X176237629Y-96445559D01*
X176546636Y-96445559D01*
X176569194Y-96468117D01*
X176591752Y-96445559D01*
X176569194Y-96423001D01*
X176546636Y-96445559D01*
X176237629Y-96445559D01*
X176238947Y-96420316D01*
X176253265Y-96356213D01*
X176376820Y-96356213D01*
X176422345Y-96408296D01*
X176464592Y-96423001D01*
X176482778Y-96397224D01*
X176455501Y-96354238D01*
X176400333Y-96306944D01*
X176377786Y-96306121D01*
X176376820Y-96356213D01*
X176253265Y-96356213D01*
X176269069Y-96285459D01*
X176330009Y-96224784D01*
X176428663Y-96237640D01*
G37*
G36*
X178350737Y-97089523D02*
G01*
X178351255Y-97099733D01*
X178316572Y-97143115D01*
X178303477Y-97144849D01*
X178276532Y-97117209D01*
X178283581Y-97099733D01*
X178324122Y-97056694D01*
X178331359Y-97054618D01*
X178350737Y-97089523D01*
G37*
G36*
X175915020Y-97077176D02*
G01*
X175892462Y-97099733D01*
X175869905Y-97077176D01*
X175892462Y-97054618D01*
X175915020Y-97077176D01*
G37*
G36*
X175915020Y-96896714D02*
G01*
X175892462Y-96919271D01*
X175869905Y-96896714D01*
X175892462Y-96874156D01*
X175915020Y-96896714D01*
G37*
G36*
X178153259Y-94518851D02*
G01*
X178185177Y-94578286D01*
X178183385Y-94655526D01*
X178114848Y-94708357D01*
X178080815Y-94722329D01*
X177994690Y-94758344D01*
X177986633Y-94784056D01*
X178049490Y-94819954D01*
X178145076Y-94911135D01*
X178165192Y-95039159D01*
X178146220Y-95106010D01*
X178127712Y-95198559D01*
X178121890Y-95333254D01*
X178123008Y-95370056D01*
X178116431Y-95509730D01*
X178074945Y-95586728D01*
X178053276Y-95601842D01*
X177974685Y-95687432D01*
X177942467Y-95836733D01*
X177941669Y-95918896D01*
X177918050Y-96029768D01*
X177881338Y-96087285D01*
X177839579Y-96182548D01*
X177843695Y-96249356D01*
X177850730Y-96319517D01*
X177807846Y-96323973D01*
X177794563Y-96319238D01*
X177730993Y-96320189D01*
X177719638Y-96355328D01*
X177748469Y-96398950D01*
X177798471Y-96389918D01*
X177832079Y-96388980D01*
X177795688Y-96440107D01*
X177763258Y-96473714D01*
X177608993Y-96588394D01*
X177463845Y-96617284D01*
X177376778Y-96589221D01*
X177274326Y-96547190D01*
X177222028Y-96536522D01*
X177125661Y-96504266D01*
X176980959Y-96425927D01*
X176807660Y-96314648D01*
X176625502Y-96183570D01*
X176454224Y-96045835D01*
X176366175Y-95966685D01*
X176259800Y-95860493D01*
X176197209Y-95786930D01*
X176188489Y-95758320D01*
X176196992Y-95760012D01*
X176263710Y-95759819D01*
X176275944Y-95724683D01*
X176263106Y-95678596D01*
X177719638Y-95678596D01*
X177742196Y-95701154D01*
X177764754Y-95678596D01*
X177742196Y-95656039D01*
X177719638Y-95678596D01*
X176263106Y-95678596D01*
X176253281Y-95643331D01*
X176193276Y-95510176D01*
X176107902Y-95348974D01*
X176009132Y-95183484D01*
X175982248Y-95141946D01*
X175896068Y-95011335D01*
X176108590Y-95043205D01*
X176267794Y-95060175D01*
X176456942Y-95070162D01*
X176653897Y-95073344D01*
X176836518Y-95069902D01*
X176982666Y-95060017D01*
X177070201Y-95043867D01*
X177084149Y-95035279D01*
X177155573Y-94970198D01*
X177268517Y-94900893D01*
X177390481Y-94843673D01*
X177488962Y-94814849D01*
X177520107Y-94816499D01*
X177565722Y-94819023D01*
X177561415Y-94798328D01*
X177577441Y-94765032D01*
X177643778Y-94753730D01*
X177746959Y-94728636D01*
X177822561Y-94669177D01*
X177844247Y-94599091D01*
X177836570Y-94579972D01*
X177847220Y-94532741D01*
X177926768Y-94497300D01*
X178053909Y-94483042D01*
X178056432Y-94483037D01*
X178153259Y-94518851D01*
G37*
G36*
X172065168Y-96528271D02*
G01*
X172070568Y-96581812D01*
X172065168Y-96588425D01*
X172038347Y-96582232D01*
X172035091Y-96558348D01*
X172051598Y-96521213D01*
X172065168Y-96528271D01*
G37*
G36*
X172035091Y-96310213D02*
G01*
X172012533Y-96332771D01*
X171989976Y-96310213D01*
X172012533Y-96287655D01*
X172035091Y-96310213D01*
G37*
G36*
X171976029Y-95921969D02*
G01*
X171989976Y-96016962D01*
X171974551Y-96121317D01*
X171938388Y-96148062D01*
X171896655Y-96092397D01*
X171883065Y-96050799D01*
X171858914Y-95941007D01*
X171869728Y-95892590D01*
X171921058Y-95881618D01*
X171922303Y-95881616D01*
X171976029Y-95921969D01*
G37*
G36*
X171930564Y-95737811D02*
G01*
X171935942Y-95808321D01*
X171927002Y-95824282D01*
X171906497Y-95810827D01*
X171903307Y-95765068D01*
X171914325Y-95716928D01*
X171930564Y-95737811D01*
G37*
G36*
X175952195Y-95580367D02*
G01*
X175982443Y-95610647D01*
X176026926Y-95675399D01*
X176017767Y-95701154D01*
X175952927Y-95669971D01*
X175914115Y-95632391D01*
X175872906Y-95562542D01*
X175891715Y-95543254D01*
X175952195Y-95580367D01*
G37*
G36*
X171944860Y-95633481D02*
G01*
X171922303Y-95656039D01*
X171899745Y-95633481D01*
X171922303Y-95610923D01*
X171944860Y-95633481D01*
G37*
G36*
X175584173Y-95580846D02*
G01*
X175589573Y-95634388D01*
X175584173Y-95641000D01*
X175557352Y-95634807D01*
X175554096Y-95610923D01*
X175570604Y-95573788D01*
X175584173Y-95580846D01*
G37*
G36*
X179526520Y-94732571D02*
G01*
X179550107Y-94790129D01*
X179562839Y-94906495D01*
X179564520Y-95050875D01*
X179554951Y-95192479D01*
X179533934Y-95300512D01*
X179530240Y-95310768D01*
X179495950Y-95366210D01*
X179452621Y-95339876D01*
X179445570Y-95331583D01*
X179403943Y-95240266D01*
X179386998Y-95114262D01*
X179391617Y-94976648D01*
X179414682Y-94850502D01*
X179453073Y-94758902D01*
X179503672Y-94724926D01*
X179526520Y-94732571D01*
G37*
G36*
X175915020Y-95227442D02*
G01*
X175892462Y-95250000D01*
X175869905Y-95227442D01*
X175892462Y-95204884D01*
X175915020Y-95227442D01*
G37*
G36*
X178261024Y-95137211D02*
G01*
X178304418Y-95194889D01*
X178306139Y-95207547D01*
X178271728Y-95248785D01*
X178261024Y-95250000D01*
X178221430Y-95213277D01*
X178215908Y-95179664D01*
X178237780Y-95132967D01*
X178261024Y-95137211D01*
G37*
G36*
X175960136Y-94956749D02*
G01*
X175937578Y-94979307D01*
X175915020Y-94956749D01*
X175937578Y-94934192D01*
X175960136Y-94956749D01*
G37*
G36*
X176366220Y-94469977D02*
G01*
X176439515Y-94515301D01*
X176456406Y-94555972D01*
X176495014Y-94601162D01*
X176614472Y-94621552D01*
X176648146Y-94622813D01*
X176839887Y-94627242D01*
X176636867Y-94687051D01*
X176433848Y-94746861D01*
X176760935Y-94723143D01*
X176932450Y-94713528D01*
X177032225Y-94717307D01*
X177078091Y-94737012D01*
X177088022Y-94769572D01*
X177046702Y-94827607D01*
X176937909Y-94879320D01*
X176784394Y-94917202D01*
X176608905Y-94933746D01*
X176590012Y-94933940D01*
X176445304Y-94912671D01*
X176286718Y-94859624D01*
X176252081Y-94843295D01*
X176124098Y-94791887D01*
X176025147Y-94776558D01*
X175974033Y-94797283D01*
X175982496Y-94843642D01*
X175998439Y-94879214D01*
X175971621Y-94884039D01*
X175884317Y-94857775D01*
X175835139Y-94840808D01*
X175710856Y-94784706D01*
X175674329Y-94737748D01*
X175723159Y-94705263D01*
X175854952Y-94692579D01*
X175901539Y-94693153D01*
X176042699Y-94701642D01*
X176143603Y-94715903D01*
X176174011Y-94726990D01*
X176230698Y-94755973D01*
X176259252Y-94734071D01*
X176244863Y-94697335D01*
X176207787Y-94595932D01*
X176234959Y-94509349D01*
X176311267Y-94465900D01*
X176366220Y-94469977D01*
G37*
G36*
X177937439Y-94316464D02*
G01*
X177945215Y-94347691D01*
X177913591Y-94391522D01*
X177903790Y-94392806D01*
X177828742Y-94405411D01*
X177779722Y-94419047D01*
X177726327Y-94432470D01*
X177742367Y-94409286D01*
X177784655Y-94373931D01*
X177883531Y-94310936D01*
X177937439Y-94316464D01*
G37*
G36*
X171629052Y-94370248D02*
G01*
X171606494Y-94392806D01*
X171583937Y-94370248D01*
X171606494Y-94347691D01*
X171629052Y-94370248D01*
G37*
G36*
X176782972Y-93867529D02*
G01*
X176964992Y-93901496D01*
X177061166Y-93949457D01*
X177075292Y-94015123D01*
X177017126Y-94096333D01*
X176980192Y-94150529D01*
X176994568Y-94167229D01*
X177040996Y-94195539D01*
X177042906Y-94206434D01*
X177001299Y-94224864D01*
X176890493Y-94239753D01*
X176731517Y-94248647D01*
X176670704Y-94249865D01*
X176473142Y-94257638D01*
X176290249Y-94274339D01*
X176156733Y-94296625D01*
X176140895Y-94300890D01*
X175985531Y-94340976D01*
X175907921Y-94343642D01*
X175902905Y-94307070D01*
X175930200Y-94272498D01*
X175975174Y-94272498D01*
X175981367Y-94299319D01*
X176005251Y-94302575D01*
X176042386Y-94286068D01*
X176035328Y-94272498D01*
X175981786Y-94267099D01*
X175975174Y-94272498D01*
X175930200Y-94272498D01*
X175958552Y-94236588D01*
X176085516Y-94132852D01*
X176258532Y-94031201D01*
X176449103Y-93944393D01*
X176628736Y-93885183D01*
X176768933Y-93866327D01*
X176782972Y-93867529D01*
G37*
G36*
X178080562Y-94325133D02*
G01*
X178058004Y-94347691D01*
X178035446Y-94325133D01*
X178058004Y-94302575D01*
X178080562Y-94325133D01*
G37*
G36*
X171358359Y-93873978D02*
G01*
X171335802Y-93896536D01*
X171313244Y-93873978D01*
X171335802Y-93851421D01*
X171358359Y-93873978D01*
G37*
G36*
X178967832Y-93821344D02*
G01*
X178973232Y-93874885D01*
X178967832Y-93881498D01*
X178941011Y-93875305D01*
X178937755Y-93851421D01*
X178954262Y-93814286D01*
X178967832Y-93821344D01*
G37*
G36*
X177945215Y-93648401D02*
G01*
X177922658Y-93670959D01*
X177900100Y-93648401D01*
X177922658Y-93625843D01*
X177945215Y-93648401D01*
G37*
G36*
X171298205Y-93415305D02*
G01*
X171303605Y-93468846D01*
X171298205Y-93475459D01*
X171271384Y-93469266D01*
X171268128Y-93445382D01*
X171284635Y-93408246D01*
X171298205Y-93415305D01*
G37*
G36*
X171312727Y-92848671D02*
G01*
X171313244Y-92858881D01*
X171278561Y-92902262D01*
X171265466Y-92903996D01*
X171238521Y-92876357D01*
X171245571Y-92858881D01*
X171286112Y-92815841D01*
X171293349Y-92813765D01*
X171312727Y-92848671D01*
G37*
G36*
X171298205Y-92693457D02*
G01*
X171303605Y-92746999D01*
X171298205Y-92753611D01*
X171271384Y-92747418D01*
X171268128Y-92723534D01*
X171284635Y-92686399D01*
X171298205Y-92693457D01*
G37*
G36*
X171268128Y-92565630D02*
G01*
X171245571Y-92588188D01*
X171223013Y-92565630D01*
X171245571Y-92543073D01*
X171268128Y-92565630D01*
G37*
G36*
X178351255Y-92565630D02*
G01*
X178328697Y-92588188D01*
X178306139Y-92565630D01*
X178328697Y-92543073D01*
X178351255Y-92565630D01*
G37*
G36*
X178099342Y-91960331D02*
G01*
X178127490Y-92011498D01*
X178170509Y-92111981D01*
X178217904Y-92233945D01*
X178259181Y-92349551D01*
X178283842Y-92430964D01*
X178285034Y-92452842D01*
X178257202Y-92415405D01*
X178207681Y-92319657D01*
X178172904Y-92244087D01*
X178115795Y-92103331D01*
X178083880Y-92000758D01*
X178081416Y-91952785D01*
X178099342Y-91960331D01*
G37*
G36*
X178021841Y-91995622D02*
G01*
X178020577Y-92089355D01*
X178020015Y-92102995D01*
X178011216Y-92226607D01*
X177996536Y-92267214D01*
X177972361Y-92232011D01*
X177964728Y-92213040D01*
X177962557Y-92128277D01*
X177984550Y-92043857D01*
X178011431Y-91983122D01*
X178021841Y-91995622D01*
G37*
G36*
X178346992Y-92041901D02*
G01*
X178396370Y-92091918D01*
X178466099Y-92188569D01*
X178487543Y-92254734D01*
X178466601Y-92272380D01*
X178429078Y-92239821D01*
X178376371Y-92172110D01*
X178319058Y-92075262D01*
X178310224Y-92028013D01*
X178346992Y-92041901D01*
G37*
G36*
X178712178Y-92204707D02*
G01*
X178689620Y-92227264D01*
X178667063Y-92204707D01*
X178689620Y-92182149D01*
X178712178Y-92204707D01*
G37*
G36*
X177764754Y-92159591D02*
G01*
X177742196Y-92182149D01*
X177719638Y-92159591D01*
X177742196Y-92137033D01*
X177764754Y-92159591D01*
G37*
G36*
X177529017Y-91945282D02*
G01*
X177531206Y-91986670D01*
X177493531Y-92061873D01*
X177441402Y-92078675D01*
X177406321Y-92032435D01*
X177403830Y-92005447D01*
X177432490Y-91927890D01*
X177474811Y-91911456D01*
X177529017Y-91945282D01*
G37*
G36*
X177719121Y-92036593D02*
G01*
X177719638Y-92046803D01*
X177684956Y-92090184D01*
X177671860Y-92091918D01*
X177644916Y-92064279D01*
X177651965Y-92046803D01*
X177692506Y-92003763D01*
X177699743Y-92001687D01*
X177719121Y-92036593D01*
G37*
G36*
X178519659Y-91936337D02*
G01*
X178549203Y-91977721D01*
X178588432Y-92056462D01*
X178581591Y-92091776D01*
X178579459Y-92091918D01*
X178525827Y-92056609D01*
X178484533Y-91997823D01*
X178449590Y-91908682D01*
X178465761Y-91886800D01*
X178519659Y-91936337D01*
G37*
G36*
X178712178Y-92024245D02*
G01*
X178689620Y-92046803D01*
X178667063Y-92024245D01*
X178689620Y-92001687D01*
X178712178Y-92024245D01*
G37*
G36*
X171343321Y-91926495D02*
G01*
X171348720Y-91980036D01*
X171343321Y-91986649D01*
X171316500Y-91980456D01*
X171313244Y-91956572D01*
X171329751Y-91919436D01*
X171343321Y-91926495D01*
G37*
G36*
X177884864Y-91764831D02*
G01*
X177890822Y-91857198D01*
X177884864Y-91877620D01*
X177868397Y-91883287D01*
X177862108Y-91821225D01*
X177869198Y-91757178D01*
X177884864Y-91764831D01*
G37*
G36*
X171677740Y-91489013D02*
G01*
X171647665Y-91553059D01*
X171581820Y-91645875D01*
X171517484Y-91720378D01*
X171430153Y-91806698D01*
X171373574Y-91848003D01*
X171361471Y-91843783D01*
X171378618Y-91785905D01*
X171419292Y-91697542D01*
X171468846Y-91605539D01*
X171512634Y-91536737D01*
X171536009Y-91517981D01*
X171536930Y-91522220D01*
X171566052Y-91530980D01*
X171606494Y-91505417D01*
X171666025Y-91468284D01*
X171677740Y-91489013D01*
G37*
G36*
X177428634Y-91605414D02*
G01*
X177437172Y-91664980D01*
X177416437Y-91760848D01*
X177385547Y-91842638D01*
X177366252Y-91844221D01*
X177349594Y-91791219D01*
X177345032Y-91700625D01*
X177368805Y-91625088D01*
X177408038Y-91594875D01*
X177428634Y-91605414D01*
G37*
G36*
X178110639Y-91791148D02*
G01*
X178116038Y-91844690D01*
X178110639Y-91851302D01*
X178083818Y-91845109D01*
X178080562Y-91821225D01*
X178097069Y-91784090D01*
X178110639Y-91791148D01*
G37*
G36*
X178381332Y-91791148D02*
G01*
X178386731Y-91844690D01*
X178381332Y-91851302D01*
X178354510Y-91845109D01*
X178351255Y-91821225D01*
X178367762Y-91784090D01*
X178381332Y-91791148D01*
G37*
G36*
X178485814Y-91630864D02*
G01*
X178550371Y-91725288D01*
X178568595Y-91806490D01*
X178544381Y-91821029D01*
X178497161Y-91754639D01*
X178471493Y-91703601D01*
X178388711Y-91527975D01*
X178485814Y-91630864D01*
G37*
G36*
X178351255Y-91708437D02*
G01*
X178328697Y-91730994D01*
X178306139Y-91708437D01*
X178328697Y-91685879D01*
X178351255Y-91708437D01*
G37*
G36*
X171989976Y-91663321D02*
G01*
X171967418Y-91685879D01*
X171944860Y-91663321D01*
X171967418Y-91640763D01*
X171989976Y-91663321D01*
G37*
G36*
X178306139Y-91618206D02*
G01*
X178283581Y-91640763D01*
X178261024Y-91618206D01*
X178283581Y-91595648D01*
X178306139Y-91618206D01*
G37*
G36*
X178261024Y-91527975D02*
G01*
X178238466Y-91550533D01*
X178215908Y-91527975D01*
X178238466Y-91505417D01*
X178261024Y-91527975D01*
G37*
G36*
X171685446Y-91152557D02*
G01*
X171615580Y-91241105D01*
X171584081Y-91305654D01*
X171583937Y-91308228D01*
X171547008Y-91354641D01*
X171455245Y-91413880D01*
X171424502Y-91429388D01*
X171277579Y-91490729D01*
X171197913Y-91501227D01*
X171178206Y-91471581D01*
X171212380Y-91427808D01*
X171298009Y-91357571D01*
X171341474Y-91326743D01*
X171428435Y-91257398D01*
X171461558Y-91209238D01*
X171453954Y-91198916D01*
X171405818Y-91151817D01*
X171403475Y-91137694D01*
X171438607Y-91113493D01*
X171492002Y-91121395D01*
X171599484Y-91123172D01*
X171683742Y-91095754D01*
X171786956Y-91042017D01*
X171685446Y-91152557D01*
G37*
G36*
X178396370Y-91482859D02*
G01*
X178373812Y-91505417D01*
X178351255Y-91482859D01*
X178373812Y-91460302D01*
X178396370Y-91482859D01*
G37*
G36*
X177433907Y-91385109D02*
G01*
X177427714Y-91411930D01*
X177403830Y-91415186D01*
X177366695Y-91398679D01*
X177373753Y-91385109D01*
X177427295Y-91379710D01*
X177433907Y-91385109D01*
G37*
G36*
X178802409Y-91392628D02*
G01*
X178779851Y-91415186D01*
X178757294Y-91392628D01*
X178779851Y-91370071D01*
X178802409Y-91392628D01*
G37*
G36*
X171253974Y-91308982D02*
G01*
X171245571Y-91324955D01*
X171203062Y-91368041D01*
X171195130Y-91370071D01*
X171192052Y-91340929D01*
X171200455Y-91324955D01*
X171242964Y-91281870D01*
X171250896Y-91279840D01*
X171253974Y-91308982D01*
G37*
G36*
X177349303Y-90851607D02*
G01*
X177346208Y-90916753D01*
X177341491Y-90994072D01*
X177356524Y-91018263D01*
X177390440Y-91067340D01*
X177420268Y-91155772D01*
X177430319Y-91248900D01*
X177393497Y-91279539D01*
X177385891Y-91279840D01*
X177316222Y-91311747D01*
X177303081Y-91333953D01*
X177277392Y-91350137D01*
X177255622Y-91311395D01*
X177243364Y-91208722D01*
X177252169Y-91167051D01*
X177248694Y-91109190D01*
X177224973Y-91099378D01*
X177139089Y-91062309D01*
X177066758Y-90977543D01*
X177042906Y-90899581D01*
X177068336Y-90836411D01*
X177118808Y-90842510D01*
X177146296Y-90885080D01*
X177176422Y-90918850D01*
X177226752Y-90885080D01*
X177306955Y-90832762D01*
X177349303Y-90851607D01*
G37*
G36*
X178628416Y-91303685D02*
G01*
X178667063Y-91324955D01*
X178703174Y-91360703D01*
X178689620Y-91368689D01*
X178615479Y-91346226D01*
X178576832Y-91324955D01*
X178540720Y-91289207D01*
X178554274Y-91281222D01*
X178628416Y-91303685D01*
G37*
G36*
X178299168Y-91252974D02*
G01*
X178347602Y-91298400D01*
X178337666Y-91324516D01*
X178331359Y-91324955D01*
X178293200Y-91292911D01*
X178279273Y-91272869D01*
X178273956Y-91241997D01*
X178299168Y-91252974D01*
G37*
G36*
X178486601Y-91257282D02*
G01*
X178464043Y-91279840D01*
X178441485Y-91257282D01*
X178464043Y-91234724D01*
X178486601Y-91257282D01*
G37*
G36*
X178396370Y-91212167D02*
G01*
X178373812Y-91234724D01*
X178351255Y-91212167D01*
X178373812Y-91189609D01*
X178396370Y-91212167D01*
G37*
G36*
X178215908Y-91076820D02*
G01*
X178193350Y-91099378D01*
X178170793Y-91076820D01*
X178193350Y-91054263D01*
X178215908Y-91076820D01*
G37*
G36*
X178486601Y-91076820D02*
G01*
X178464043Y-91099378D01*
X178441485Y-91076820D01*
X178464043Y-91054263D01*
X178486601Y-91076820D01*
G37*
G36*
X171538821Y-91031705D02*
G01*
X171516263Y-91054263D01*
X171493706Y-91031705D01*
X171516263Y-91009147D01*
X171538821Y-91031705D01*
G37*
G36*
X171629052Y-90986589D02*
G01*
X171606494Y-91009147D01*
X171583937Y-90986589D01*
X171606494Y-90964032D01*
X171629052Y-90986589D01*
G37*
G36*
X171719283Y-90941474D02*
G01*
X171696725Y-90964032D01*
X171674168Y-90941474D01*
X171696725Y-90918916D01*
X171719283Y-90941474D01*
G37*
G36*
X178712178Y-90941474D02*
G01*
X178689620Y-90964032D01*
X178667063Y-90941474D01*
X178689620Y-90918916D01*
X178712178Y-90941474D01*
G37*
G36*
X171583937Y-90896358D02*
G01*
X171561379Y-90918916D01*
X171538821Y-90896358D01*
X171561379Y-90873801D01*
X171583937Y-90896358D01*
G37*
G36*
X171719283Y-90806128D02*
G01*
X171696725Y-90828685D01*
X171674168Y-90806128D01*
X171696725Y-90783570D01*
X171719283Y-90806128D01*
G37*
G36*
X172563534Y-90468760D02*
G01*
X172600932Y-90540411D01*
X172607045Y-90556040D01*
X172640007Y-90660018D01*
X172635732Y-90689691D01*
X172597544Y-90640421D01*
X172575138Y-90600607D01*
X172541684Y-90509920D01*
X172540365Y-90463308D01*
X172563534Y-90468760D01*
G37*
G36*
X175854866Y-90618147D02*
G01*
X175860266Y-90671688D01*
X175854866Y-90678300D01*
X175828045Y-90672107D01*
X175824789Y-90648223D01*
X175841296Y-90611088D01*
X175854866Y-90618147D01*
G37*
G36*
X176772214Y-90670781D02*
G01*
X176749656Y-90693339D01*
X176727098Y-90670781D01*
X176749656Y-90648223D01*
X176772214Y-90670781D01*
G37*
G36*
X172742642Y-90549533D02*
G01*
X172748020Y-90620043D01*
X172739080Y-90636005D01*
X172718575Y-90622550D01*
X172715385Y-90576791D01*
X172726403Y-90528651D01*
X172742642Y-90549533D01*
G37*
G36*
X173938108Y-90520732D02*
G01*
X173938776Y-90524156D01*
X173949799Y-90620815D01*
X173936712Y-90645594D01*
X173904877Y-90590117D01*
X173901711Y-90582039D01*
X173890033Y-90486910D01*
X173895661Y-90457971D01*
X173915912Y-90452939D01*
X173938108Y-90520732D01*
G37*
G36*
X178654844Y-90620966D02*
G01*
X178641389Y-90641472D01*
X178595630Y-90644662D01*
X178547490Y-90633644D01*
X178568373Y-90617404D01*
X178638883Y-90612026D01*
X178654844Y-90620966D01*
G37*
G36*
X171674168Y-90580550D02*
G01*
X171651610Y-90603108D01*
X171629052Y-90580550D01*
X171651610Y-90557993D01*
X171674168Y-90580550D01*
G37*
G36*
X175868742Y-90059713D02*
G01*
X175870081Y-90061723D01*
X175888557Y-90138641D01*
X175892713Y-90263730D01*
X175884362Y-90399819D01*
X175865320Y-90509740D01*
X175846159Y-90551661D01*
X175835388Y-90522027D01*
X175827946Y-90423723D01*
X175825480Y-90283540D01*
X175830241Y-90126357D01*
X175844295Y-90053569D01*
X175868742Y-90059713D01*
G37*
G36*
X176275426Y-90457552D02*
G01*
X176275944Y-90467762D01*
X176241261Y-90511143D01*
X176228166Y-90512877D01*
X176201221Y-90485238D01*
X176208271Y-90467762D01*
X176248812Y-90424722D01*
X176256049Y-90422646D01*
X176275426Y-90457552D01*
G37*
G36*
X179073102Y-90490319D02*
G01*
X179050544Y-90512877D01*
X179027986Y-90490319D01*
X179050544Y-90467762D01*
X179073102Y-90490319D01*
G37*
G36*
X172520803Y-89144479D02*
G01*
X172602475Y-89172998D01*
X172624768Y-89198141D01*
X172628101Y-89256576D01*
X172633068Y-89373387D01*
X172636047Y-89452664D01*
X172646748Y-89587263D01*
X172665052Y-89680300D01*
X172676869Y-89702771D01*
X172711174Y-89779215D01*
X172722133Y-89934299D01*
X172718971Y-90030549D01*
X172700485Y-90118316D01*
X172657012Y-90124328D01*
X172655429Y-90123398D01*
X172625452Y-90113990D01*
X172658689Y-90163123D01*
X172696840Y-90260895D01*
X172699285Y-90363524D01*
X172685124Y-90436322D01*
X172676205Y-90421978D01*
X172673467Y-90391472D01*
X172653395Y-90315327D01*
X172617478Y-90262055D01*
X172585658Y-90253078D01*
X172576477Y-90287300D01*
X172549248Y-90317276D01*
X172533131Y-90310951D01*
X172527624Y-90259131D01*
X172564967Y-90155337D01*
X172600804Y-90085308D01*
X172674006Y-89950379D01*
X172703622Y-89875781D01*
X172691141Y-89843681D01*
X172638050Y-89836243D01*
X172621592Y-89836145D01*
X172548415Y-89810247D01*
X172531361Y-89773996D01*
X172499556Y-89694224D01*
X172466370Y-89657909D01*
X172417176Y-89587226D01*
X172413860Y-89550875D01*
X172414132Y-89522521D01*
X172407325Y-89531897D01*
X172359436Y-89544846D01*
X172340075Y-89536205D01*
X172313353Y-89534769D01*
X172324033Y-89558482D01*
X172329836Y-89605050D01*
X172314703Y-89610568D01*
X172289533Y-89648920D01*
X172288644Y-89734636D01*
X172298106Y-89819295D01*
X172290301Y-89817235D01*
X172264327Y-89745914D01*
X172231798Y-89610406D01*
X172221343Y-89471776D01*
X172233391Y-89362503D01*
X172258698Y-89318535D01*
X172284395Y-89259589D01*
X172278663Y-89231464D01*
X172293584Y-89167158D01*
X172329334Y-89142718D01*
X172416460Y-89131891D01*
X172520803Y-89144479D01*
G37*
G36*
X178667063Y-90445204D02*
G01*
X178644505Y-90467762D01*
X178621947Y-90445204D01*
X178644505Y-90422646D01*
X178667063Y-90445204D01*
G37*
G36*
X178787371Y-90437685D02*
G01*
X178781178Y-90464506D01*
X178757294Y-90467762D01*
X178720159Y-90451255D01*
X178727217Y-90437685D01*
X178780758Y-90432285D01*
X178787371Y-90437685D01*
G37*
G36*
X178922717Y-90437685D02*
G01*
X178916524Y-90464506D01*
X178892640Y-90467762D01*
X178855505Y-90451255D01*
X178862563Y-90437685D01*
X178916105Y-90432285D01*
X178922717Y-90437685D01*
G37*
G36*
X172872455Y-89911437D02*
G01*
X172873514Y-90023494D01*
X172870144Y-90080118D01*
X172852491Y-90231357D01*
X172826634Y-90347032D01*
X172805159Y-90392472D01*
X172780641Y-90386271D01*
X172777628Y-90295660D01*
X172786768Y-90193614D01*
X172810902Y-90026449D01*
X172836396Y-89919385D01*
X172858498Y-89878891D01*
X172872455Y-89911437D01*
G37*
G36*
X178441485Y-90400088D02*
G01*
X178418928Y-90422646D01*
X178396370Y-90400088D01*
X178418928Y-90377531D01*
X178441485Y-90400088D01*
G37*
G36*
X171732184Y-90320128D02*
G01*
X171741841Y-90332415D01*
X171757720Y-90372993D01*
X171715036Y-90357710D01*
X171674168Y-90332415D01*
X171639484Y-90296198D01*
X171660226Y-90287991D01*
X171732184Y-90320128D01*
G37*
G36*
X178728880Y-90175847D02*
G01*
X178775956Y-90225745D01*
X178794395Y-90294013D01*
X178792192Y-90310486D01*
X178744568Y-90318303D01*
X178630207Y-90329474D01*
X178472433Y-90341764D01*
X178448020Y-90343460D01*
X178290802Y-90350137D01*
X178194766Y-90345600D01*
X178173154Y-90330631D01*
X178177328Y-90327422D01*
X178265304Y-90298650D01*
X178373812Y-90287300D01*
X178458401Y-90278400D01*
X178457548Y-90264742D01*
X178531716Y-90264742D01*
X178554274Y-90287300D01*
X178576832Y-90264742D01*
X178554274Y-90242184D01*
X178531716Y-90264742D01*
X178457548Y-90264742D01*
X178456832Y-90253289D01*
X178447948Y-90247133D01*
X178426063Y-90219627D01*
X178667063Y-90219627D01*
X178689620Y-90242184D01*
X178712178Y-90219627D01*
X178689620Y-90197069D01*
X178667063Y-90219627D01*
X178426063Y-90219627D01*
X178414308Y-90204853D01*
X178468509Y-90175676D01*
X178605712Y-90159481D01*
X178728880Y-90175847D01*
G37*
G36*
X171944860Y-90309858D02*
G01*
X171922303Y-90332415D01*
X171899745Y-90309858D01*
X171922303Y-90287300D01*
X171944860Y-90309858D01*
G37*
G36*
X172937400Y-90309858D02*
G01*
X172914842Y-90332415D01*
X172892285Y-90309858D01*
X172914842Y-90287300D01*
X172937400Y-90309858D01*
G37*
G36*
X174275825Y-90212107D02*
G01*
X174281225Y-90265649D01*
X174275825Y-90272261D01*
X174249004Y-90266068D01*
X174245748Y-90242184D01*
X174262255Y-90205049D01*
X174275825Y-90212107D01*
G37*
G36*
X174719235Y-89950289D02*
G01*
X174741882Y-89984068D01*
X174775561Y-90093164D01*
X174773688Y-90164530D01*
X174757024Y-90216502D01*
X174747546Y-90197069D01*
X174732685Y-90100936D01*
X174715740Y-90016607D01*
X174702835Y-89943465D01*
X174719235Y-89950289D01*
G37*
G36*
X176079399Y-90066103D02*
G01*
X176081631Y-90073860D01*
X176088236Y-90172136D01*
X176079959Y-90209206D01*
X176065149Y-90210706D01*
X176059100Y-90140080D01*
X176059162Y-90129396D01*
X176065667Y-90059424D01*
X176079399Y-90066103D01*
G37*
G36*
X171809514Y-90174511D02*
G01*
X171786956Y-90197069D01*
X171764398Y-90174511D01*
X171786956Y-90151954D01*
X171809514Y-90174511D01*
G37*
G36*
X172035091Y-90174511D02*
G01*
X172012533Y-90197069D01*
X171989976Y-90174511D01*
X172012533Y-90151954D01*
X172035091Y-90174511D01*
G37*
G36*
X173975056Y-90174511D02*
G01*
X173952498Y-90197069D01*
X173929940Y-90174511D01*
X173952498Y-90151954D01*
X173975056Y-90174511D01*
G37*
G36*
X174065287Y-90174511D02*
G01*
X174042729Y-90197069D01*
X174020171Y-90174511D01*
X174042729Y-90151954D01*
X174065287Y-90174511D01*
G37*
G36*
X174561557Y-90129396D02*
G01*
X174538999Y-90151954D01*
X174516441Y-90129396D01*
X174538999Y-90106838D01*
X174561557Y-90129396D01*
G37*
G36*
X175990213Y-90076761D02*
G01*
X175995612Y-90130303D01*
X175990213Y-90136915D01*
X175963391Y-90130722D01*
X175960136Y-90106838D01*
X175976643Y-90069703D01*
X175990213Y-90076761D01*
G37*
G36*
X176321059Y-90129396D02*
G01*
X176298501Y-90151954D01*
X176275944Y-90129396D01*
X176298501Y-90106838D01*
X176321059Y-90129396D01*
G37*
G36*
X171693145Y-89740121D02*
G01*
X171693800Y-89785684D01*
X171675073Y-89791030D01*
X171666400Y-89818334D01*
X171712756Y-89884575D01*
X171717525Y-89889768D01*
X171782036Y-89972528D01*
X171809478Y-90033743D01*
X171792981Y-90052857D01*
X171768252Y-90041546D01*
X171719582Y-90050837D01*
X171708839Y-90070498D01*
X171683092Y-90100119D01*
X171655352Y-90067778D01*
X171638578Y-90001584D01*
X171646701Y-89983920D01*
X171645783Y-89932063D01*
X171625097Y-89899053D01*
X171602478Y-89808581D01*
X171619245Y-89765041D01*
X171665177Y-89719117D01*
X171693145Y-89740121D01*
G37*
G36*
X171640331Y-89588455D02*
G01*
X171722049Y-89631135D01*
X171818717Y-89707326D01*
X171911595Y-89797701D01*
X171981941Y-89882929D01*
X172011015Y-89943683D01*
X172000893Y-89960333D01*
X171969138Y-90009121D01*
X171974779Y-90042080D01*
X171989044Y-90094671D01*
X171965401Y-90087077D01*
X171897617Y-90014708D01*
X171842165Y-89948934D01*
X171899745Y-89948934D01*
X171922303Y-89971492D01*
X171944860Y-89948934D01*
X171922303Y-89926376D01*
X171899745Y-89948934D01*
X171842165Y-89948934D01*
X171832072Y-89936963D01*
X171757646Y-89841275D01*
X171741785Y-89800806D01*
X171780795Y-89805463D01*
X171784427Y-89806815D01*
X171843298Y-89826068D01*
X171839114Y-89805431D01*
X171788713Y-89747856D01*
X171697299Y-89678457D01*
X171622060Y-89655684D01*
X171552656Y-89634031D01*
X171538821Y-89607528D01*
X171574958Y-89579793D01*
X171640331Y-89588455D01*
G37*
G36*
X172271170Y-89960960D02*
G01*
X172305784Y-90016607D01*
X172334826Y-90086361D01*
X172331516Y-90106838D01*
X172295282Y-90072254D01*
X172260668Y-90016607D01*
X172231626Y-89946853D01*
X172234936Y-89926376D01*
X172271170Y-89960960D01*
G37*
G36*
X172463566Y-89904757D02*
G01*
X172486032Y-89939355D01*
X172518876Y-90028696D01*
X172515558Y-90074701D01*
X172495087Y-90103476D01*
X172489807Y-90076691D01*
X172473860Y-89990243D01*
X172460281Y-89941345D01*
X172444523Y-89884272D01*
X172463566Y-89904757D01*
G37*
G36*
X178561502Y-90044404D02*
G01*
X178554274Y-90061723D01*
X178494509Y-90105154D01*
X178481276Y-90106838D01*
X178456816Y-90079041D01*
X178464043Y-90061723D01*
X178523808Y-90018291D01*
X178537042Y-90016607D01*
X178561502Y-90044404D01*
G37*
G36*
X174050248Y-89986530D02*
G01*
X174055647Y-90040072D01*
X174050248Y-90046684D01*
X174023427Y-90040491D01*
X174020171Y-90016607D01*
X174036678Y-89979472D01*
X174050248Y-89986530D01*
G37*
G36*
X178200870Y-89986530D02*
G01*
X178194677Y-90013351D01*
X178170793Y-90016607D01*
X178133658Y-90000100D01*
X178140716Y-89986530D01*
X178194257Y-89981131D01*
X178200870Y-89986530D01*
G37*
G36*
X178522031Y-89729784D02*
G01*
X178522376Y-89730129D01*
X178606270Y-89782384D01*
X178648110Y-89791030D01*
X178689097Y-89805316D01*
X178667938Y-89862776D01*
X178659404Y-89876759D01*
X178596002Y-89936131D01*
X178550796Y-89941357D01*
X178481154Y-89951895D01*
X178465944Y-89968416D01*
X178399573Y-90015075D01*
X178336118Y-89986432D01*
X178338421Y-89948934D01*
X178396370Y-89948934D01*
X178418928Y-89971492D01*
X178441485Y-89948934D01*
X178418928Y-89926376D01*
X178396370Y-89948934D01*
X178338421Y-89948934D01*
X178339284Y-89934891D01*
X178380706Y-89873643D01*
X178390407Y-89858703D01*
X178486601Y-89858703D01*
X178509159Y-89881261D01*
X178531716Y-89858703D01*
X178509159Y-89836145D01*
X178486601Y-89858703D01*
X178390407Y-89858703D01*
X178422396Y-89809440D01*
X178401584Y-89791030D01*
X178372341Y-89775242D01*
X178404587Y-89730129D01*
X178462103Y-89691787D01*
X178522031Y-89729784D01*
G37*
G36*
X172621592Y-89948934D02*
G01*
X172599034Y-89971492D01*
X172576477Y-89948934D01*
X172599034Y-89926376D01*
X172621592Y-89948934D01*
G37*
G36*
X173162977Y-89948934D02*
G01*
X173140420Y-89971492D01*
X173117862Y-89948934D01*
X173140420Y-89926376D01*
X173162977Y-89948934D01*
G37*
G36*
X173298324Y-89948934D02*
G01*
X173275766Y-89971492D01*
X173253208Y-89948934D01*
X173275766Y-89926376D01*
X173298324Y-89948934D01*
G37*
G36*
X174516441Y-89948934D02*
G01*
X174493883Y-89971492D01*
X174471326Y-89948934D01*
X174493883Y-89926376D01*
X174516441Y-89948934D01*
G37*
G36*
X178982871Y-89948934D02*
G01*
X178960313Y-89971492D01*
X178937755Y-89948934D01*
X178960313Y-89926376D01*
X178982871Y-89948934D01*
G37*
G36*
X174065287Y-89903819D02*
G01*
X174042729Y-89926376D01*
X174020171Y-89903819D01*
X174042729Y-89881261D01*
X174065287Y-89903819D01*
G37*
G36*
X175766089Y-89755545D02*
G01*
X175764212Y-89804080D01*
X175755865Y-89900076D01*
X175740721Y-89919785D01*
X175712221Y-89881618D01*
X175708678Y-89809368D01*
X175727934Y-89759354D01*
X175757843Y-89718718D01*
X175766089Y-89755545D01*
G37*
G36*
X176321059Y-89903819D02*
G01*
X176298501Y-89926376D01*
X176275944Y-89903819D01*
X176298501Y-89881261D01*
X176321059Y-89903819D01*
G37*
G36*
X178802409Y-89903819D02*
G01*
X178779851Y-89926376D01*
X178757294Y-89903819D01*
X178779851Y-89881261D01*
X178802409Y-89903819D01*
G37*
G36*
X173368560Y-89776053D02*
G01*
X173360653Y-89811244D01*
X173324247Y-89874747D01*
X173300706Y-89864109D01*
X173298324Y-89838808D01*
X173331090Y-89777630D01*
X173342923Y-89768792D01*
X173368560Y-89776053D01*
G37*
G36*
X175282560Y-89744271D02*
G01*
X175282713Y-89754531D01*
X175259724Y-89836105D01*
X175238288Y-89858703D01*
X175196891Y-89861694D01*
X175193864Y-89850087D01*
X175216533Y-89784261D01*
X175238288Y-89745914D01*
X175273326Y-89703636D01*
X175282560Y-89744271D01*
G37*
G36*
X176185713Y-89813588D02*
G01*
X176163155Y-89836145D01*
X176140597Y-89813588D01*
X176163155Y-89791030D01*
X176185713Y-89813588D01*
G37*
G36*
X178170793Y-89813588D02*
G01*
X178148235Y-89836145D01*
X178125677Y-89813588D01*
X178148235Y-89791030D01*
X178170793Y-89813588D01*
G37*
G36*
X171927702Y-89637413D02*
G01*
X171989170Y-89695800D01*
X172026377Y-89752503D01*
X172025147Y-89770897D01*
X171983979Y-89757192D01*
X171922553Y-89701076D01*
X171873662Y-89635904D01*
X171873417Y-89610568D01*
X171927702Y-89637413D01*
G37*
G36*
X175487810Y-89550973D02*
G01*
X175459719Y-89641744D01*
X175458832Y-89644405D01*
X175414672Y-89756306D01*
X175385071Y-89788362D01*
X175373662Y-89736836D01*
X175373635Y-89731980D01*
X175399306Y-89652071D01*
X175440688Y-89585354D01*
X175482447Y-89535369D01*
X175487810Y-89550973D01*
G37*
G36*
X173960759Y-89647224D02*
G01*
X173966138Y-89717734D01*
X173957197Y-89733696D01*
X173936692Y-89720241D01*
X173933502Y-89674482D01*
X173944520Y-89626342D01*
X173960759Y-89647224D01*
G37*
G36*
X175689443Y-89723357D02*
G01*
X175666885Y-89745914D01*
X175644327Y-89723357D01*
X175666885Y-89700799D01*
X175689443Y-89723357D01*
G37*
G36*
X173207749Y-89592708D02*
G01*
X173213691Y-89598537D01*
X173249327Y-89657689D01*
X173244495Y-89679435D01*
X173210935Y-89665896D01*
X173188436Y-89623793D01*
X173174700Y-89571085D01*
X173207749Y-89592708D01*
G37*
G36*
X176111374Y-88235329D02*
G01*
X176154041Y-88272180D01*
X176130108Y-88329207D01*
X176023411Y-88394699D01*
X175980803Y-88413337D01*
X175859734Y-88459876D01*
X175776518Y-88485603D01*
X175758636Y-88487552D01*
X175710875Y-88510093D01*
X175634944Y-88571972D01*
X175553861Y-88637421D01*
X175501633Y-88663144D01*
X175450208Y-88703679D01*
X175393736Y-88809503D01*
X175342252Y-88956942D01*
X175305791Y-89122324D01*
X175305122Y-89126726D01*
X175277411Y-89262004D01*
X175247394Y-89343795D01*
X175223128Y-89363614D01*
X175212672Y-89312976D01*
X175219568Y-89216819D01*
X175229126Y-89117338D01*
X175220910Y-89099281D01*
X175196776Y-89145472D01*
X175168106Y-89248759D01*
X175145577Y-89397479D01*
X175139217Y-89472551D01*
X175124493Y-89602139D01*
X175101772Y-89684837D01*
X175086543Y-89700790D01*
X175065044Y-89662277D01*
X175066912Y-89569223D01*
X175067450Y-89565453D01*
X175072452Y-89471025D01*
X175057063Y-89430151D01*
X175056269Y-89430106D01*
X175040229Y-89392493D01*
X175046471Y-89318955D01*
X175050258Y-89238876D01*
X175004970Y-89221245D01*
X174974254Y-89225804D01*
X174911900Y-89227129D01*
X174894751Y-89181535D01*
X174904366Y-89100099D01*
X174918248Y-89005388D01*
X174909238Y-88992710D01*
X174869302Y-89055100D01*
X174863575Y-89064734D01*
X174810795Y-89129185D01*
X174780405Y-89116669D01*
X174755878Y-89126018D01*
X174708833Y-89203343D01*
X174649002Y-89332350D01*
X174643010Y-89346695D01*
X174578477Y-89494045D01*
X174535547Y-89566332D01*
X174506348Y-89573774D01*
X174489754Y-89545600D01*
X174481325Y-89465051D01*
X174505790Y-89441176D01*
X174537185Y-89392455D01*
X174531417Y-89358944D01*
X174535606Y-89271346D01*
X174558242Y-89231080D01*
X174587898Y-89147525D01*
X174594452Y-89021742D01*
X174592421Y-88995854D01*
X174597870Y-88834586D01*
X174605164Y-88804121D01*
X174906476Y-88804121D01*
X174908343Y-88822703D01*
X174937985Y-88802200D01*
X175024542Y-88711376D01*
X175029388Y-88704132D01*
X175103017Y-88704132D01*
X175131240Y-88694986D01*
X175136779Y-88691699D01*
X175185382Y-88682177D01*
X175185702Y-88723853D01*
X175139034Y-88789467D01*
X175109083Y-88834936D01*
X175118713Y-88843605D01*
X175167418Y-88814345D01*
X175255361Y-88739409D01*
X175319477Y-88678313D01*
X175402165Y-88592813D01*
X175440198Y-88545794D01*
X175433146Y-88543702D01*
X175368025Y-88544717D01*
X175351532Y-88528533D01*
X175359108Y-88487542D01*
X175382677Y-88482682D01*
X175451039Y-88448078D01*
X175498511Y-88392451D01*
X175528406Y-88319127D01*
X175506353Y-88302220D01*
X175444087Y-88325998D01*
X175353248Y-88383962D01*
X175259703Y-88456059D01*
X175189319Y-88522232D01*
X175167963Y-88562428D01*
X175168996Y-88563774D01*
X175164175Y-88612581D01*
X175136387Y-88656374D01*
X175103017Y-88704132D01*
X175029388Y-88704132D01*
X175061877Y-88655575D01*
X175092300Y-88584982D01*
X175076678Y-88580270D01*
X175023942Y-88635770D01*
X174961151Y-88719538D01*
X174906476Y-88804121D01*
X174605164Y-88804121D01*
X174635213Y-88678620D01*
X174638447Y-88670601D01*
X174674096Y-88564828D01*
X174680564Y-88498893D01*
X174677580Y-88493436D01*
X174644525Y-88507752D01*
X174602661Y-88585628D01*
X174560567Y-88702083D01*
X174526823Y-88832138D01*
X174510009Y-88950812D01*
X174509611Y-88982468D01*
X174495401Y-89117192D01*
X174453337Y-89225351D01*
X174449574Y-89230603D01*
X174400164Y-89277134D01*
X174382530Y-89260923D01*
X174360897Y-89207474D01*
X174316074Y-89222295D01*
X174271258Y-89296260D01*
X174267841Y-89306039D01*
X174242000Y-89375767D01*
X174226938Y-89362446D01*
X174213123Y-89294760D01*
X174173539Y-89194397D01*
X174128619Y-89145893D01*
X174084175Y-89071572D01*
X174065690Y-88919194D01*
X174065287Y-88886479D01*
X174057251Y-88758535D01*
X174055941Y-88753374D01*
X174426210Y-88753374D01*
X174442717Y-88790510D01*
X174456287Y-88783451D01*
X174461687Y-88729910D01*
X174456287Y-88723297D01*
X174429466Y-88729490D01*
X174426210Y-88753374D01*
X174055941Y-88753374D01*
X174036726Y-88677730D01*
X174021034Y-88663144D01*
X173998170Y-88703637D01*
X173998230Y-88811657D01*
X174003728Y-88859736D01*
X174009195Y-89025486D01*
X173966451Y-89152673D01*
X173950797Y-89178236D01*
X173888236Y-89255348D01*
X173845541Y-89256223D01*
X173833448Y-89241058D01*
X173804414Y-89222890D01*
X173792260Y-89290798D01*
X173792114Y-89294760D01*
X173786279Y-89369580D01*
X173770159Y-89359864D01*
X173751929Y-89317318D01*
X173723813Y-89259519D01*
X173706302Y-89281173D01*
X173693571Y-89339875D01*
X173681859Y-89357209D01*
X173671661Y-89297204D01*
X173665037Y-89172753D01*
X173664701Y-89159414D01*
X173656617Y-89000845D01*
X173640945Y-88926482D01*
X173616381Y-88930517D01*
X173614132Y-88933836D01*
X173578405Y-88972771D01*
X173569707Y-88942453D01*
X173543910Y-88905075D01*
X173523901Y-88911279D01*
X173495485Y-88970078D01*
X173478926Y-89083478D01*
X173477351Y-89128240D01*
X173460014Y-89270996D01*
X173418818Y-89388103D01*
X173406178Y-89407549D01*
X173356867Y-89458268D01*
X173348978Y-89430106D01*
X173348192Y-89344367D01*
X173330562Y-89216278D01*
X173323857Y-89181971D01*
X173286197Y-89001509D01*
X173248591Y-89134761D01*
X173228499Y-89272545D01*
X173234670Y-89382896D01*
X173258357Y-89497779D01*
X173185282Y-89384991D01*
X173135310Y-89311375D01*
X173122380Y-89311728D01*
X173133385Y-89373774D01*
X173135184Y-89441803D01*
X173113655Y-89450064D01*
X173079289Y-89463660D01*
X173072747Y-89500641D01*
X173055113Y-89548161D01*
X173006397Y-89520179D01*
X172932876Y-89423326D01*
X172840830Y-89264233D01*
X172830827Y-89245115D01*
X172770771Y-89126721D01*
X172931351Y-89126721D01*
X172941448Y-89226315D01*
X172962596Y-89335226D01*
X172988531Y-89422608D01*
X173012987Y-89457616D01*
X173017399Y-89455377D01*
X173021292Y-89404788D01*
X173011941Y-89295544D01*
X173002653Y-89226672D01*
X172978661Y-89115106D01*
X172952236Y-89062645D01*
X172938572Y-89067287D01*
X172931351Y-89126721D01*
X172770771Y-89126721D01*
X172755813Y-89097234D01*
X172720472Y-89015566D01*
X172720994Y-88987265D01*
X172753565Y-88999482D01*
X172758915Y-89002731D01*
X172829359Y-89003950D01*
X172891499Y-88951055D01*
X172911059Y-88876344D01*
X172907334Y-88862865D01*
X172911131Y-88806967D01*
X172932573Y-88798490D01*
X172973132Y-88836229D01*
X172982516Y-88888721D01*
X172999802Y-88966668D01*
X173044094Y-88968718D01*
X173104038Y-88900645D01*
X173110139Y-88888721D01*
X173253208Y-88888721D01*
X173269715Y-88925856D01*
X173283285Y-88918798D01*
X173288685Y-88865256D01*
X173283285Y-88858644D01*
X173256464Y-88864837D01*
X173253208Y-88888721D01*
X173110139Y-88888721D01*
X173155049Y-88800961D01*
X173241039Y-88657000D01*
X173338645Y-88596870D01*
X173435250Y-88619005D01*
X173471240Y-88684916D01*
X173465651Y-88722530D01*
X173475175Y-88794246D01*
X173504192Y-88815898D01*
X173544997Y-88811659D01*
X173564657Y-88747369D01*
X173565440Y-88727057D01*
X173662809Y-88727057D01*
X173671104Y-88785573D01*
X173686505Y-88786271D01*
X173697275Y-88725889D01*
X173690066Y-88699800D01*
X173670034Y-88682711D01*
X173662809Y-88727057D01*
X173565440Y-88727057D01*
X173569017Y-88634343D01*
X173574346Y-88508478D01*
X173595100Y-88454529D01*
X173638426Y-88454561D01*
X173640380Y-88455297D01*
X173711467Y-88479156D01*
X173729195Y-88482682D01*
X173731250Y-88516767D01*
X173720678Y-88550355D01*
X173722663Y-88608296D01*
X173744652Y-88618028D01*
X173779053Y-88592928D01*
X174426713Y-88592928D01*
X174467183Y-88617996D01*
X174469738Y-88618028D01*
X174522589Y-88582757D01*
X174563384Y-88524382D01*
X174592532Y-88459131D01*
X174562899Y-88458998D01*
X174519856Y-88480854D01*
X174447405Y-88538636D01*
X174426713Y-88592928D01*
X173779053Y-88592928D01*
X173788704Y-88585887D01*
X173785635Y-88525135D01*
X173929940Y-88525135D01*
X173962690Y-88571077D01*
X173975056Y-88572913D01*
X174018998Y-88557520D01*
X174020171Y-88553018D01*
X173988557Y-88514499D01*
X173975056Y-88505239D01*
X173933482Y-88508816D01*
X173929940Y-88525135D01*
X173785635Y-88525135D01*
X173785091Y-88514372D01*
X173745547Y-88451681D01*
X173737830Y-88434629D01*
X174843311Y-88434629D01*
X174849482Y-88437566D01*
X174890653Y-88405806D01*
X174899922Y-88392451D01*
X174911419Y-88350273D01*
X174905248Y-88347335D01*
X174864076Y-88379096D01*
X174854807Y-88392451D01*
X174843311Y-88434629D01*
X173737830Y-88434629D01*
X173720900Y-88397224D01*
X173745547Y-88372323D01*
X173790123Y-88367408D01*
X173794594Y-88380765D01*
X173834217Y-88406592D01*
X173931397Y-88419259D01*
X173949367Y-88419520D01*
X174073168Y-88400917D01*
X174105718Y-88369893D01*
X174426210Y-88369893D01*
X174448768Y-88392451D01*
X174471326Y-88369893D01*
X174467566Y-88366133D01*
X174700465Y-88366133D01*
X174708759Y-88424649D01*
X174724160Y-88425348D01*
X174734930Y-88364965D01*
X174727722Y-88338876D01*
X174707689Y-88321787D01*
X174700465Y-88366133D01*
X174467566Y-88366133D01*
X174448768Y-88347335D01*
X174426210Y-88369893D01*
X174105718Y-88369893D01*
X174141807Y-88335496D01*
X174149358Y-88320280D01*
X174179572Y-88269500D01*
X174226562Y-88242042D01*
X174312244Y-88233425D01*
X174458532Y-88239163D01*
X174524691Y-88243501D01*
X174702673Y-88254738D01*
X174856499Y-88262912D01*
X174953864Y-88266312D01*
X174956018Y-88266324D01*
X175025463Y-88280062D01*
X175034234Y-88303894D01*
X175044104Y-88356679D01*
X175064061Y-88373746D01*
X175096074Y-88379823D01*
X175087614Y-88359034D01*
X175095589Y-88310260D01*
X175154989Y-88275863D01*
X175227138Y-88275053D01*
X175242360Y-88282178D01*
X175281139Y-88280190D01*
X175283404Y-88268988D01*
X175323135Y-88240808D01*
X175420808Y-88221503D01*
X175441308Y-88219797D01*
X175545396Y-88224400D01*
X175597743Y-88249455D01*
X175599212Y-88255691D01*
X175635760Y-88290554D01*
X175717686Y-88301086D01*
X175803414Y-88287050D01*
X175847347Y-88257104D01*
X175912876Y-88220569D01*
X176015548Y-88214031D01*
X176111374Y-88235329D01*
G37*
G36*
X172125322Y-89633126D02*
G01*
X172102764Y-89655684D01*
X172080207Y-89633126D01*
X172102764Y-89610568D01*
X172125322Y-89633126D01*
G37*
G36*
X176001231Y-89203724D02*
G01*
X175959800Y-89279808D01*
X175886096Y-89394939D01*
X175787852Y-89540291D01*
X175729313Y-89622467D01*
X175700237Y-89653437D01*
X175690387Y-89645173D01*
X175689443Y-89624856D01*
X175715083Y-89562912D01*
X175778754Y-89459897D01*
X175860583Y-89343940D01*
X175940694Y-89243169D01*
X175999214Y-89185714D01*
X176000115Y-89185145D01*
X176001231Y-89203724D01*
G37*
G36*
X177575718Y-88722201D02*
G01*
X177557209Y-88742786D01*
X177498909Y-88806221D01*
X177453436Y-88878706D01*
X177400108Y-88946821D01*
X177359568Y-88956922D01*
X177303909Y-88964321D01*
X177290362Y-88980051D01*
X177228775Y-89008446D01*
X177180826Y-89002326D01*
X177087324Y-89011356D01*
X177047263Y-89041375D01*
X176981794Y-89085341D01*
X176854221Y-89146085D01*
X176688303Y-89212660D01*
X176628928Y-89234134D01*
X176348086Y-89352007D01*
X176148441Y-89480695D01*
X176104862Y-89520337D01*
X176018884Y-89601147D01*
X175969856Y-89638340D01*
X175965259Y-89633126D01*
X176051634Y-89473852D01*
X176152592Y-89345192D01*
X176247933Y-89271911D01*
X176264665Y-89266050D01*
X176343568Y-89232975D01*
X176366175Y-89205730D01*
X176404753Y-89173698D01*
X176507588Y-89117898D01*
X176655326Y-89048492D01*
X176715819Y-89022115D01*
X176928897Y-88928759D01*
X177066619Y-88861440D01*
X177137869Y-88813865D01*
X177151530Y-88779740D01*
X177116488Y-88752773D01*
X177103675Y-88747391D01*
X177067281Y-88724756D01*
X177112165Y-88713673D01*
X177165558Y-88711430D01*
X177264276Y-88719068D01*
X177290531Y-88753821D01*
X177284799Y-88775932D01*
X177283790Y-88833435D01*
X177329610Y-88835853D01*
X177397618Y-88783187D01*
X177403830Y-88775932D01*
X177486626Y-88718666D01*
X177533422Y-88708950D01*
X177575718Y-88722201D01*
G37*
G36*
X178832486Y-89580491D02*
G01*
X178826293Y-89607312D01*
X178802409Y-89610568D01*
X178765274Y-89594061D01*
X178772332Y-89580491D01*
X178825874Y-89575092D01*
X178832486Y-89580491D01*
G37*
G36*
X172035091Y-89542895D02*
G01*
X172012533Y-89565453D01*
X171989976Y-89542895D01*
X172012533Y-89520337D01*
X172035091Y-89542895D01*
G37*
G36*
X177162982Y-89361130D02*
G01*
X177178253Y-89363616D01*
X177146081Y-89390257D01*
X177066496Y-89450586D01*
X177044160Y-89467161D01*
X176957729Y-89522787D01*
X176931479Y-89516158D01*
X176936198Y-89498204D01*
X176981919Y-89438205D01*
X177005280Y-89430106D01*
X177030633Y-89404212D01*
X177026324Y-89394658D01*
X177044531Y-89365999D01*
X177091334Y-89359211D01*
X177162982Y-89361130D01*
G37*
G36*
X173871051Y-89408965D02*
G01*
X173845308Y-89442137D01*
X173807374Y-89470647D01*
X173816840Y-89425441D01*
X173820052Y-89416882D01*
X173855792Y-89361636D01*
X173876112Y-89361239D01*
X173871051Y-89408965D01*
G37*
G36*
X177358715Y-89452664D02*
G01*
X177336157Y-89475222D01*
X177313599Y-89452664D01*
X177336157Y-89430106D01*
X177358715Y-89452664D01*
G37*
G36*
X178195437Y-89312317D02*
G01*
X178214417Y-89337721D01*
X178237768Y-89420683D01*
X178182372Y-89462039D01*
X178100712Y-89464677D01*
X177989988Y-89455513D01*
X178081876Y-89363858D01*
X178152506Y-89305158D01*
X178195437Y-89312317D01*
G37*
G36*
X178802409Y-89407549D02*
G01*
X178845449Y-89448090D01*
X178847525Y-89455327D01*
X178812619Y-89474704D01*
X178802409Y-89475222D01*
X178759027Y-89440539D01*
X178757294Y-89427444D01*
X178784933Y-89400499D01*
X178802409Y-89407549D01*
G37*
G36*
X174953299Y-89331416D02*
G01*
X174958678Y-89401926D01*
X174949737Y-89417887D01*
X174929232Y-89404432D01*
X174926042Y-89358673D01*
X174937060Y-89310534D01*
X174953299Y-89331416D01*
G37*
G36*
X177941018Y-89136820D02*
G01*
X177936685Y-89188604D01*
X177885537Y-89245983D01*
X177800705Y-89285288D01*
X177789275Y-89287598D01*
X177687330Y-89334511D01*
X177639304Y-89377829D01*
X177599987Y-89419036D01*
X177609466Y-89386552D01*
X177610216Y-89384991D01*
X177679316Y-89279213D01*
X177770499Y-89182395D01*
X177771098Y-89181971D01*
X177854985Y-89181971D01*
X177877542Y-89204529D01*
X177900100Y-89181971D01*
X177877542Y-89159414D01*
X177854985Y-89181971D01*
X177771098Y-89181971D01*
X177855706Y-89122139D01*
X177885407Y-89114298D01*
X177941018Y-89136820D01*
G37*
G36*
X174381095Y-89362433D02*
G01*
X174358537Y-89384991D01*
X174335979Y-89362433D01*
X174358537Y-89339875D01*
X174381095Y-89362433D01*
G37*
G36*
X177563104Y-89239388D02*
G01*
X177557024Y-89246041D01*
X177492696Y-89284803D01*
X177400390Y-89311623D01*
X177310357Y-89322286D01*
X177252844Y-89312578D01*
X177249566Y-89288870D01*
X177311863Y-89258608D01*
X177357398Y-89262372D01*
X177461238Y-89259226D01*
X177521490Y-89237688D01*
X177576960Y-89213371D01*
X177563104Y-89239388D01*
G37*
G36*
X177630397Y-88897276D02*
G01*
X177644527Y-88941666D01*
X177654422Y-89039499D01*
X177632016Y-89091905D01*
X177588592Y-89079177D01*
X177575218Y-89062720D01*
X177533460Y-89026365D01*
X177509600Y-89057378D01*
X177457704Y-89107028D01*
X177351131Y-89170689D01*
X177281722Y-89204003D01*
X177147354Y-89262330D01*
X177075685Y-89288755D01*
X177047361Y-89288923D01*
X177042906Y-89273643D01*
X177078063Y-89239879D01*
X177163049Y-89187358D01*
X177166974Y-89185218D01*
X177233874Y-89135705D01*
X177216446Y-89109168D01*
X177118455Y-89109066D01*
X177088022Y-89112723D01*
X177045850Y-89106660D01*
X177071899Y-89068774D01*
X177134804Y-89038529D01*
X177224792Y-89069944D01*
X177297441Y-89096819D01*
X177356830Y-89073254D01*
X177433713Y-88986716D01*
X177435925Y-88983893D01*
X177529108Y-88878818D01*
X177590219Y-88850698D01*
X177630397Y-88897276D01*
G37*
G36*
X174155517Y-89227087D02*
G01*
X174132960Y-89249644D01*
X174110402Y-89227087D01*
X174132960Y-89204529D01*
X174155517Y-89227087D01*
G37*
G36*
X178080562Y-89181971D02*
G01*
X178058004Y-89204529D01*
X178035446Y-89181971D01*
X178058004Y-89159414D01*
X178080562Y-89181971D01*
G37*
G36*
X177343676Y-88993990D02*
G01*
X177349076Y-89047532D01*
X177343676Y-89054144D01*
X177316855Y-89047951D01*
X177313599Y-89024067D01*
X177330106Y-88986932D01*
X177343676Y-88993990D01*
G37*
G36*
X175765900Y-88867580D02*
G01*
X175740157Y-88900752D01*
X175702223Y-88929262D01*
X175711689Y-88884055D01*
X175714901Y-88875496D01*
X175750641Y-88820250D01*
X175770961Y-88819854D01*
X175765900Y-88867580D01*
G37*
G36*
X175670911Y-88646356D02*
G01*
X175612926Y-88716012D01*
X175599212Y-88730817D01*
X175522023Y-88806695D01*
X175473422Y-88843061D01*
X175470695Y-88843605D01*
X175482397Y-88815278D01*
X175540383Y-88745622D01*
X175554096Y-88730817D01*
X175631285Y-88654938D01*
X175679886Y-88618572D01*
X175682614Y-88618028D01*
X175670911Y-88646356D01*
G37*
G36*
X176342524Y-88555261D02*
G01*
X176298501Y-88618028D01*
X176222306Y-88685427D01*
X176171728Y-88708259D01*
X176164248Y-88680795D01*
X176208271Y-88618028D01*
X176284466Y-88550629D01*
X176335044Y-88527797D01*
X176342524Y-88555261D01*
G37*
G36*
X176366175Y-88685701D02*
G01*
X176343617Y-88708259D01*
X176321059Y-88685701D01*
X176343617Y-88663144D01*
X176366175Y-88685701D01*
G37*
G36*
X176095482Y-88640586D02*
G01*
X176072924Y-88663144D01*
X176050366Y-88640586D01*
X176072924Y-88618028D01*
X176095482Y-88640586D01*
G37*
G36*
X175945097Y-88497720D02*
G01*
X175950497Y-88551262D01*
X175945097Y-88557874D01*
X175918276Y-88551681D01*
X175915020Y-88527797D01*
X175931527Y-88490662D01*
X175945097Y-88497720D01*
G37*
G36*
X176275944Y-88324778D02*
G01*
X176253386Y-88347335D01*
X176230828Y-88324778D01*
X176253386Y-88302220D01*
X176275944Y-88324778D01*
G37*
G36*
X173508863Y-95355269D02*
G01*
X173502670Y-95382090D01*
X173478786Y-95385346D01*
X173441651Y-95368839D01*
X173448709Y-95355269D01*
X173502250Y-95349870D01*
X173508863Y-95355269D01*
G37*
G36*
X173805787Y-94214409D02*
G01*
X173875611Y-94240970D01*
X173877496Y-94243502D01*
X173932907Y-94286797D01*
X174043221Y-94348439D01*
X174132960Y-94391478D01*
X174249015Y-94451785D01*
X174303614Y-94497604D01*
X174296925Y-94516172D01*
X174222452Y-94504309D01*
X174195415Y-94477257D01*
X174149284Y-94441893D01*
X174121681Y-94465496D01*
X174060394Y-94500559D01*
X173941766Y-94534214D01*
X173862267Y-94548590D01*
X173704279Y-94582184D01*
X173513970Y-94637950D01*
X173314678Y-94707126D01*
X173129739Y-94780950D01*
X172982489Y-94850659D01*
X172896265Y-94907491D01*
X172890882Y-94913324D01*
X172830454Y-94967954D01*
X172760885Y-94963599D01*
X172723102Y-94949428D01*
X172665326Y-94905616D01*
X172681191Y-94868028D01*
X172755161Y-94856661D01*
X172790775Y-94862319D01*
X172873152Y-94878047D01*
X172876876Y-94863091D01*
X172830421Y-94824401D01*
X172769429Y-94737221D01*
X172770216Y-94723653D01*
X172817092Y-94723653D01*
X172823285Y-94750474D01*
X172847169Y-94753730D01*
X172884304Y-94737223D01*
X172877246Y-94723653D01*
X172823705Y-94718253D01*
X172817092Y-94723653D01*
X172770216Y-94723653D01*
X172774886Y-94643247D01*
X172780756Y-94550497D01*
X172748965Y-94528152D01*
X172734095Y-94511788D01*
X172782716Y-94469639D01*
X172875673Y-94412125D01*
X172993808Y-94349664D01*
X173117963Y-94292676D01*
X173228981Y-94251580D01*
X173280657Y-94238990D01*
X173487599Y-94213263D01*
X173669546Y-94205121D01*
X173805787Y-94214409D01*
G37*
G36*
X174200633Y-94956749D02*
G01*
X174178075Y-94979307D01*
X174155517Y-94956749D01*
X174178075Y-94934192D01*
X174200633Y-94956749D01*
G37*
G36*
X174200633Y-94821403D02*
G01*
X174178075Y-94843961D01*
X174155517Y-94821403D01*
X174178075Y-94798845D01*
X174200633Y-94821403D01*
G37*
G36*
X174004663Y-94104637D02*
G01*
X173997613Y-94122113D01*
X173957072Y-94165153D01*
X173949835Y-94167229D01*
X173930457Y-94132323D01*
X173929940Y-94122113D01*
X173964623Y-94078732D01*
X173977718Y-94076998D01*
X174004663Y-94104637D01*
G37*
G36*
X174013200Y-93959901D02*
G01*
X174061254Y-94001840D01*
X174065287Y-94011987D01*
X174043876Y-94030530D01*
X173999299Y-93988980D01*
X173993305Y-93979796D01*
X173987988Y-93948924D01*
X174013200Y-93959901D01*
G37*
G36*
X175305642Y-88618545D02*
G01*
X175257388Y-88655944D01*
X175205677Y-88662220D01*
X175193173Y-88645413D01*
X175228562Y-88616438D01*
X175263189Y-88600814D01*
X175309761Y-88597661D01*
X175305642Y-88618545D01*
G37*
G36*
X175269249Y-88511824D02*
G01*
X175260846Y-88527797D01*
X175218338Y-88570883D01*
X175210405Y-88572913D01*
X175207327Y-88543770D01*
X175215731Y-88527797D01*
X175258239Y-88484712D01*
X175266171Y-88482682D01*
X175269249Y-88511824D01*
G37*
D10*
X249555000Y-91757500D02*
X247650000Y-91757500D01*
X247650000Y-91757500D02*
X247650000Y-93662500D01*
X261620000Y-105727500D02*
X261620000Y-103822500D01*
X259715000Y-105727500D02*
X261620000Y-105727500D01*
X259715000Y-91757500D02*
X261620000Y-91757500D01*
X261620000Y-91757500D02*
X261620000Y-93662500D01*
X249555000Y-105727500D02*
X247650000Y-105727500D01*
X247650000Y-105727500D02*
X247650000Y-103822500D01*
X256857500Y-86677500D02*
X256857500Y-84772500D01*
X254952500Y-86677500D02*
X256857500Y-86677500D01*
X242887500Y-72707500D02*
X242887500Y-74612500D01*
X244792500Y-72707500D02*
X242887500Y-72707500D01*
X254952500Y-72707500D02*
X256857500Y-72707500D01*
X256857500Y-72707500D02*
X256857500Y-74612500D01*
X244792500Y-86677500D02*
X242887500Y-86677500D01*
X242887500Y-86677500D02*
X242887500Y-84772500D01*
X261620000Y-58102500D02*
X261620000Y-56197500D01*
X259715000Y-58102500D02*
X261620000Y-58102500D01*
X247650000Y-44132500D02*
X247650000Y-46037500D01*
X249555000Y-44132500D02*
X247650000Y-44132500D01*
X259715000Y-44132500D02*
X261620000Y-44132500D01*
X261620000Y-44132500D02*
X261620000Y-46037500D01*
X249555000Y-58102500D02*
X247650000Y-58102500D01*
X247650000Y-58102500D02*
X247650000Y-56197500D01*
X152082500Y-105727500D02*
X152082500Y-103822500D01*
X150177500Y-105727500D02*
X152082500Y-105727500D01*
X138112500Y-91757500D02*
X138112500Y-93662500D01*
X140017500Y-91757500D02*
X138112500Y-91757500D01*
X150177500Y-91757500D02*
X152082500Y-91757500D01*
X152082500Y-91757500D02*
X152082500Y-93662500D01*
X140017500Y-105727500D02*
X138112500Y-105727500D01*
X138112500Y-105727500D02*
X138112500Y-103822500D01*
X30480000Y-91757500D02*
X28575000Y-91757500D01*
X28575000Y-91757500D02*
X28575000Y-93662500D01*
X42545000Y-105727500D02*
X42545000Y-103822500D01*
X40640000Y-105727500D02*
X42545000Y-105727500D01*
X40640000Y-91757500D02*
X42545000Y-91757500D01*
X42545000Y-91757500D02*
X42545000Y-93662500D01*
X30480000Y-105727500D02*
X28575000Y-105727500D01*
X28575000Y-105727500D02*
X28575000Y-103822500D01*
X30956250Y-53657500D02*
X30956250Y-55562500D01*
X32861250Y-53657500D02*
X30956250Y-53657500D01*
X44926250Y-67627500D02*
X44926250Y-65722500D01*
X43021250Y-67627500D02*
X44926250Y-67627500D01*
X43021250Y-53657500D02*
X44926250Y-53657500D01*
X44926250Y-53657500D02*
X44926250Y-55562500D01*
X32861250Y-67627500D02*
X30956250Y-67627500D01*
X30956250Y-67627500D02*
X30956250Y-65722500D01*
X226218750Y-91757500D02*
X226218750Y-93662500D01*
X228123750Y-91757500D02*
X226218750Y-91757500D01*
X238283750Y-105727500D02*
X240188750Y-105727500D01*
X240188750Y-105727500D02*
X240188750Y-103822500D01*
X238283750Y-91757500D02*
X240188750Y-91757500D01*
X240188750Y-91757500D02*
X240188750Y-93662500D01*
X228123750Y-105727500D02*
X226218750Y-105727500D01*
X226218750Y-105727500D02*
X226218750Y-103822500D01*
X216693750Y-72707500D02*
X216693750Y-74612500D01*
X218598750Y-72707500D02*
X216693750Y-72707500D01*
X228758750Y-86677500D02*
X230663750Y-86677500D01*
X230663750Y-86677500D02*
X230663750Y-84772500D01*
X228758750Y-72707500D02*
X230663750Y-72707500D01*
X230663750Y-72707500D02*
X230663750Y-74612500D01*
X218598750Y-86677500D02*
X216693750Y-86677500D01*
X216693750Y-86677500D02*
X216693750Y-84772500D01*
X226218750Y-53657500D02*
X226218750Y-55562500D01*
X228123750Y-53657500D02*
X226218750Y-53657500D01*
X238283750Y-67627500D02*
X240188750Y-67627500D01*
X240188750Y-67627500D02*
X240188750Y-65722500D01*
X238283750Y-53657500D02*
X240188750Y-53657500D01*
X240188750Y-53657500D02*
X240188750Y-55562500D01*
X228123750Y-67627500D02*
X226218750Y-67627500D01*
X226218750Y-67627500D02*
X226218750Y-65722500D01*
X221456250Y-34607500D02*
X221456250Y-36512500D01*
X223361250Y-34607500D02*
X221456250Y-34607500D01*
X233521250Y-48577500D02*
X235426250Y-48577500D01*
X235426250Y-48577500D02*
X235426250Y-46672500D01*
X233521250Y-34607500D02*
X235426250Y-34607500D01*
X235426250Y-34607500D02*
X235426250Y-36512500D01*
X223361250Y-48577500D02*
X221456250Y-48577500D01*
X221456250Y-48577500D02*
X221456250Y-46672500D01*
X207168750Y-91757500D02*
X207168750Y-93662500D01*
X209073750Y-91757500D02*
X207168750Y-91757500D01*
X219233750Y-105727500D02*
X221138750Y-105727500D01*
X221138750Y-105727500D02*
X221138750Y-103822500D01*
X219233750Y-91757500D02*
X221138750Y-91757500D01*
X221138750Y-91757500D02*
X221138750Y-93662500D01*
X209073750Y-105727500D02*
X207168750Y-105727500D01*
X207168750Y-105727500D02*
X207168750Y-103822500D01*
X197643750Y-72707500D02*
X197643750Y-74612500D01*
X199548750Y-72707500D02*
X197643750Y-72707500D01*
X209708750Y-86677500D02*
X211613750Y-86677500D01*
X211613750Y-86677500D02*
X211613750Y-84772500D01*
X209708750Y-72707500D02*
X211613750Y-72707500D01*
X211613750Y-72707500D02*
X211613750Y-74612500D01*
X199548750Y-86677500D02*
X197643750Y-86677500D01*
X197643750Y-86677500D02*
X197643750Y-84772500D01*
X207168750Y-53657500D02*
X207168750Y-55562500D01*
X209073750Y-53657500D02*
X207168750Y-53657500D01*
X219233750Y-67627500D02*
X221138750Y-67627500D01*
X221138750Y-67627500D02*
X221138750Y-65722500D01*
X219233750Y-53657500D02*
X221138750Y-53657500D01*
X221138750Y-53657500D02*
X221138750Y-55562500D01*
X209073750Y-67627500D02*
X207168750Y-67627500D01*
X207168750Y-67627500D02*
X207168750Y-65722500D01*
X202406250Y-34607500D02*
X202406250Y-36512500D01*
X204311250Y-34607500D02*
X202406250Y-34607500D01*
X214471250Y-48577500D02*
X216376250Y-48577500D01*
X216376250Y-48577500D02*
X216376250Y-46672500D01*
X214471250Y-34607500D02*
X216376250Y-34607500D01*
X216376250Y-34607500D02*
X216376250Y-36512500D01*
X204311250Y-48577500D02*
X202406250Y-48577500D01*
X202406250Y-48577500D02*
X202406250Y-46672500D01*
X178593750Y-72707500D02*
X178593750Y-74612500D01*
X180498750Y-72707500D02*
X178593750Y-72707500D01*
X190658750Y-86677500D02*
X192563750Y-86677500D01*
X192563750Y-86677500D02*
X192563750Y-84772500D01*
X190658750Y-72707500D02*
X192563750Y-72707500D01*
X192563750Y-72707500D02*
X192563750Y-74612500D01*
X180498750Y-86677500D02*
X178593750Y-86677500D01*
X178593750Y-86677500D02*
X178593750Y-84772500D01*
X188118750Y-53657500D02*
X188118750Y-55562500D01*
X190023750Y-53657500D02*
X188118750Y-53657500D01*
X200183750Y-67627500D02*
X202088750Y-67627500D01*
X202088750Y-67627500D02*
X202088750Y-65722500D01*
X200183750Y-53657500D02*
X202088750Y-53657500D01*
X202088750Y-53657500D02*
X202088750Y-55562500D01*
X190023750Y-67627500D02*
X188118750Y-67627500D01*
X188118750Y-67627500D02*
X188118750Y-65722500D01*
X183356250Y-34607500D02*
X183356250Y-36512500D01*
X185261250Y-34607500D02*
X183356250Y-34607500D01*
X195421250Y-48577500D02*
X197326250Y-48577500D01*
X197326250Y-48577500D02*
X197326250Y-46672500D01*
X195421250Y-34607500D02*
X197326250Y-34607500D01*
X197326250Y-34607500D02*
X197326250Y-36512500D01*
X185261250Y-48577500D02*
X183356250Y-48577500D01*
X183356250Y-48577500D02*
X183356250Y-46672500D01*
X159543750Y-72707500D02*
X159543750Y-74612500D01*
X161448750Y-72707500D02*
X159543750Y-72707500D01*
X171608750Y-86677500D02*
X173513750Y-86677500D01*
X173513750Y-86677500D02*
X173513750Y-84772500D01*
X171608750Y-72707500D02*
X173513750Y-72707500D01*
X173513750Y-72707500D02*
X173513750Y-74612500D01*
X161448750Y-86677500D02*
X159543750Y-86677500D01*
X159543750Y-86677500D02*
X159543750Y-84772500D01*
X169068750Y-53657500D02*
X169068750Y-55562500D01*
X170973750Y-53657500D02*
X169068750Y-53657500D01*
X181133750Y-67627500D02*
X183038750Y-67627500D01*
X183038750Y-67627500D02*
X183038750Y-65722500D01*
X181133750Y-53657500D02*
X183038750Y-53657500D01*
X183038750Y-53657500D02*
X183038750Y-55562500D01*
X170973750Y-67627500D02*
X169068750Y-67627500D01*
X169068750Y-67627500D02*
X169068750Y-65722500D01*
X164306250Y-34607500D02*
X164306250Y-36512500D01*
X166211250Y-34607500D02*
X164306250Y-34607500D01*
X176371250Y-48577500D02*
X178276250Y-48577500D01*
X178276250Y-48577500D02*
X178276250Y-46672500D01*
X176371250Y-34607500D02*
X178276250Y-34607500D01*
X178276250Y-34607500D02*
X178276250Y-36512500D01*
X166211250Y-48577500D02*
X164306250Y-48577500D01*
X164306250Y-48577500D02*
X164306250Y-46672500D01*
X140493750Y-72707500D02*
X140493750Y-74612500D01*
X142398750Y-72707500D02*
X140493750Y-72707500D01*
X152558750Y-86677500D02*
X154463750Y-86677500D01*
X154463750Y-86677500D02*
X154463750Y-84772500D01*
X152558750Y-72707500D02*
X154463750Y-72707500D01*
X154463750Y-72707500D02*
X154463750Y-74612500D01*
X142398750Y-86677500D02*
X140493750Y-86677500D01*
X140493750Y-86677500D02*
X140493750Y-84772500D01*
X150018750Y-53657500D02*
X150018750Y-55562500D01*
X151923750Y-53657500D02*
X150018750Y-53657500D01*
X162083750Y-67627500D02*
X163988750Y-67627500D01*
X163988750Y-67627500D02*
X163988750Y-65722500D01*
X162083750Y-53657500D02*
X163988750Y-53657500D01*
X163988750Y-53657500D02*
X163988750Y-55562500D01*
X151923750Y-67627500D02*
X150018750Y-67627500D01*
X150018750Y-67627500D02*
X150018750Y-65722500D01*
X145256250Y-34607500D02*
X145256250Y-36512500D01*
X147161250Y-34607500D02*
X145256250Y-34607500D01*
X157321250Y-48577500D02*
X159226250Y-48577500D01*
X159226250Y-48577500D02*
X159226250Y-46672500D01*
X157321250Y-34607500D02*
X159226250Y-34607500D01*
X159226250Y-34607500D02*
X159226250Y-36512500D01*
X147161250Y-48577500D02*
X145256250Y-48577500D01*
X145256250Y-48577500D02*
X145256250Y-46672500D01*
X121443750Y-72707500D02*
X121443750Y-74612500D01*
X123348750Y-72707500D02*
X121443750Y-72707500D01*
X133508750Y-86677500D02*
X135413750Y-86677500D01*
X135413750Y-86677500D02*
X135413750Y-84772500D01*
X133508750Y-72707500D02*
X135413750Y-72707500D01*
X135413750Y-72707500D02*
X135413750Y-74612500D01*
X123348750Y-86677500D02*
X121443750Y-86677500D01*
X121443750Y-86677500D02*
X121443750Y-84772500D01*
X130968750Y-53657500D02*
X130968750Y-55562500D01*
X132873750Y-53657500D02*
X130968750Y-53657500D01*
X143033750Y-67627500D02*
X144938750Y-67627500D01*
X144938750Y-67627500D02*
X144938750Y-65722500D01*
X143033750Y-53657500D02*
X144938750Y-53657500D01*
X144938750Y-53657500D02*
X144938750Y-55562500D01*
X132873750Y-67627500D02*
X130968750Y-67627500D01*
X130968750Y-67627500D02*
X130968750Y-65722500D01*
X126206250Y-34607500D02*
X126206250Y-36512500D01*
X128111250Y-34607500D02*
X126206250Y-34607500D01*
X138271250Y-48577500D02*
X140176250Y-48577500D01*
X140176250Y-48577500D02*
X140176250Y-46672500D01*
X138271250Y-34607500D02*
X140176250Y-34607500D01*
X140176250Y-34607500D02*
X140176250Y-36512500D01*
X128111250Y-48577500D02*
X126206250Y-48577500D01*
X126206250Y-48577500D02*
X126206250Y-46672500D01*
X102393750Y-72707500D02*
X102393750Y-74612500D01*
X104298750Y-72707500D02*
X102393750Y-72707500D01*
X114458750Y-86677500D02*
X116363750Y-86677500D01*
X116363750Y-86677500D02*
X116363750Y-84772500D01*
X114458750Y-72707500D02*
X116363750Y-72707500D01*
X116363750Y-72707500D02*
X116363750Y-74612500D01*
X104298750Y-86677500D02*
X102393750Y-86677500D01*
X102393750Y-86677500D02*
X102393750Y-84772500D01*
X111918750Y-53657500D02*
X111918750Y-55562500D01*
X113823750Y-53657500D02*
X111918750Y-53657500D01*
X123983750Y-67627500D02*
X125888750Y-67627500D01*
X125888750Y-67627500D02*
X125888750Y-65722500D01*
X123983750Y-53657500D02*
X125888750Y-53657500D01*
X125888750Y-53657500D02*
X125888750Y-55562500D01*
X113823750Y-67627500D02*
X111918750Y-67627500D01*
X111918750Y-67627500D02*
X111918750Y-65722500D01*
X107156250Y-34607500D02*
X107156250Y-36512500D01*
X109061250Y-34607500D02*
X107156250Y-34607500D01*
X119221250Y-48577500D02*
X121126250Y-48577500D01*
X121126250Y-48577500D02*
X121126250Y-46672500D01*
X119221250Y-34607500D02*
X121126250Y-34607500D01*
X121126250Y-34607500D02*
X121126250Y-36512500D01*
X109061250Y-48577500D02*
X107156250Y-48577500D01*
X107156250Y-48577500D02*
X107156250Y-46672500D01*
X83343750Y-72707500D02*
X83343750Y-74612500D01*
X85248750Y-72707500D02*
X83343750Y-72707500D01*
X95408750Y-86677500D02*
X97313750Y-86677500D01*
X97313750Y-86677500D02*
X97313750Y-84772500D01*
X95408750Y-72707500D02*
X97313750Y-72707500D01*
X97313750Y-72707500D02*
X97313750Y-74612500D01*
X85248750Y-86677500D02*
X83343750Y-86677500D01*
X83343750Y-86677500D02*
X83343750Y-84772500D01*
X92868750Y-53657500D02*
X92868750Y-55562500D01*
X94773750Y-53657500D02*
X92868750Y-53657500D01*
X104933750Y-67627500D02*
X106838750Y-67627500D01*
X106838750Y-67627500D02*
X106838750Y-65722500D01*
X104933750Y-53657500D02*
X106838750Y-53657500D01*
X106838750Y-53657500D02*
X106838750Y-55562500D01*
X94773750Y-67627500D02*
X92868750Y-67627500D01*
X92868750Y-67627500D02*
X92868750Y-65722500D01*
X88106250Y-34607500D02*
X88106250Y-36512500D01*
X90011250Y-34607500D02*
X88106250Y-34607500D01*
X100171250Y-48577500D02*
X102076250Y-48577500D01*
X102076250Y-48577500D02*
X102076250Y-46672500D01*
X100171250Y-34607500D02*
X102076250Y-34607500D01*
X102076250Y-34607500D02*
X102076250Y-36512500D01*
X90011250Y-48577500D02*
X88106250Y-48577500D01*
X88106250Y-48577500D02*
X88106250Y-46672500D01*
X69056250Y-91757500D02*
X69056250Y-93662500D01*
X70961250Y-91757500D02*
X69056250Y-91757500D01*
X81121250Y-105727500D02*
X83026250Y-105727500D01*
X83026250Y-105727500D02*
X83026250Y-103822500D01*
X81121250Y-91757500D02*
X83026250Y-91757500D01*
X83026250Y-91757500D02*
X83026250Y-93662500D01*
X70961250Y-105727500D02*
X69056250Y-105727500D01*
X69056250Y-105727500D02*
X69056250Y-103822500D01*
X64293750Y-72707500D02*
X64293750Y-74612500D01*
X66198750Y-72707500D02*
X64293750Y-72707500D01*
X76358750Y-86677500D02*
X78263750Y-86677500D01*
X78263750Y-86677500D02*
X78263750Y-84772500D01*
X76358750Y-72707500D02*
X78263750Y-72707500D01*
X78263750Y-72707500D02*
X78263750Y-74612500D01*
X66198750Y-86677500D02*
X64293750Y-86677500D01*
X64293750Y-86677500D02*
X64293750Y-84772500D01*
X73818750Y-53657500D02*
X73818750Y-55562500D01*
X75723750Y-53657500D02*
X73818750Y-53657500D01*
X85883750Y-67627500D02*
X87788750Y-67627500D01*
X87788750Y-67627500D02*
X87788750Y-65722500D01*
X85883750Y-53657500D02*
X87788750Y-53657500D01*
X87788750Y-53657500D02*
X87788750Y-55562500D01*
X75723750Y-67627500D02*
X73818750Y-67627500D01*
X73818750Y-67627500D02*
X73818750Y-65722500D01*
X69056250Y-34607500D02*
X69056250Y-36512500D01*
X70961250Y-34607500D02*
X69056250Y-34607500D01*
X81121250Y-48577500D02*
X83026250Y-48577500D01*
X83026250Y-48577500D02*
X83026250Y-46672500D01*
X81121250Y-34607500D02*
X83026250Y-34607500D01*
X83026250Y-34607500D02*
X83026250Y-36512500D01*
X70961250Y-48577500D02*
X69056250Y-48577500D01*
X69056250Y-48577500D02*
X69056250Y-46672500D01*
X50006250Y-91757500D02*
X50006250Y-93662500D01*
X51911250Y-91757500D02*
X50006250Y-91757500D01*
X62071250Y-105727500D02*
X63976250Y-105727500D01*
X63976250Y-105727500D02*
X63976250Y-103822500D01*
X62071250Y-91757500D02*
X63976250Y-91757500D01*
X63976250Y-91757500D02*
X63976250Y-93662500D01*
X51911250Y-105727500D02*
X50006250Y-105727500D01*
X50006250Y-105727500D02*
X50006250Y-103822500D01*
X45243750Y-72707500D02*
X45243750Y-74612500D01*
X47148750Y-72707500D02*
X45243750Y-72707500D01*
X57308750Y-86677500D02*
X59213750Y-86677500D01*
X59213750Y-86677500D02*
X59213750Y-84772500D01*
X57308750Y-72707500D02*
X59213750Y-72707500D01*
X59213750Y-72707500D02*
X59213750Y-74612500D01*
X47148750Y-86677500D02*
X45243750Y-86677500D01*
X45243750Y-86677500D02*
X45243750Y-84772500D01*
X54768750Y-53657500D02*
X54768750Y-55562500D01*
X56673750Y-53657500D02*
X54768750Y-53657500D01*
X66833750Y-67627500D02*
X68738750Y-67627500D01*
X68738750Y-67627500D02*
X68738750Y-65722500D01*
X66833750Y-53657500D02*
X68738750Y-53657500D01*
X68738750Y-53657500D02*
X68738750Y-55562500D01*
X56673750Y-67627500D02*
X54768750Y-67627500D01*
X54768750Y-67627500D02*
X54768750Y-65722500D01*
X50006250Y-34607500D02*
X50006250Y-36512500D01*
X51911250Y-34607500D02*
X50006250Y-34607500D01*
X62071250Y-48577500D02*
X63976250Y-48577500D01*
X63976250Y-48577500D02*
X63976250Y-46672500D01*
X62071250Y-34607500D02*
X63976250Y-34607500D01*
X63976250Y-34607500D02*
X63976250Y-36512500D01*
X51911250Y-48577500D02*
X50006250Y-48577500D01*
X50006250Y-48577500D02*
X50006250Y-46672500D01*
X26193750Y-72707500D02*
X26193750Y-74612500D01*
X28098750Y-72707500D02*
X26193750Y-72707500D01*
X38258750Y-86677500D02*
X40163750Y-86677500D01*
X40163750Y-86677500D02*
X40163750Y-84772500D01*
X38258750Y-72707500D02*
X40163750Y-72707500D01*
X40163750Y-72707500D02*
X40163750Y-74612500D01*
X28098750Y-86677500D02*
X26193750Y-86677500D01*
X26193750Y-86677500D02*
X26193750Y-84772500D01*
X26193750Y-34607500D02*
X26193750Y-36512500D01*
X28098750Y-34607500D02*
X26193750Y-34607500D01*
X38258750Y-48577500D02*
X40163750Y-48577500D01*
X40163750Y-48577500D02*
X40163750Y-46672500D01*
X38258750Y-34607500D02*
X40163750Y-34607500D01*
X40163750Y-34607500D02*
X40163750Y-36512500D01*
X28098750Y-48577500D02*
X26193750Y-48577500D01*
X26193750Y-48577500D02*
X26193750Y-46672500D01*
M02*
