G04 #@! TF.GenerationSoftware,KiCad,Pcbnew,(5.1.9)-1*
G04 #@! TF.CreationDate,2021-04-17T14:31:48+02:00*
G04 #@! TF.ProjectId,isio42_pcb,6973696f-3432-45f7-9063-622e6b696361,rev?*
G04 #@! TF.SameCoordinates,Original*
G04 #@! TF.FileFunction,Legend,Bot*
G04 #@! TF.FilePolarity,Positive*
%FSLAX46Y46*%
G04 Gerber Fmt 4.6, Leading zero omitted, Abs format (unit mm)*
G04 Created by KiCad (PCBNEW (5.1.9)-1) date 2021-04-17 14:31:48*
%MOMM*%
%LPD*%
G01*
G04 APERTURE LIST*
%ADD10C,0.120000*%
%ADD11C,0.150000*%
%ADD12C,0.250000*%
G04 APERTURE END LIST*
D10*
X134444998Y-34047500D02*
X134967502Y-34047500D01*
X134444998Y-32627500D02*
X134967502Y-32627500D01*
D11*
X143731250Y-46056250D02*
X142431250Y-46056250D01*
X143731250Y-43156250D02*
X143731250Y-46056250D01*
X142431250Y-43156250D02*
X143731250Y-43156250D01*
X142431250Y-43156250D02*
X142431250Y-46056250D01*
D10*
X109082500Y-94702500D02*
X109082500Y-92622500D01*
X104912500Y-90942500D02*
X104422500Y-91432500D01*
X103642500Y-94702500D02*
X103642500Y-92622500D01*
X107812500Y-90942500D02*
X108302500Y-91432500D01*
X107812500Y-90942500D02*
X104912500Y-90942500D01*
X107812500Y-96382500D02*
X108302500Y-95892500D01*
X107812500Y-96382500D02*
X104912500Y-96382500D01*
X104912500Y-96382500D02*
X104422500Y-95892500D01*
X140927064Y-38952500D02*
X140472936Y-38952500D01*
X140927064Y-40422500D02*
X140472936Y-40422500D01*
X152341250Y-37533314D02*
X152341250Y-37079186D01*
X150871250Y-37533314D02*
X150871250Y-37079186D01*
X165533314Y-103246250D02*
X165079186Y-103246250D01*
X165533314Y-104716250D02*
X165079186Y-104716250D01*
X161866250Y-100445814D02*
X161866250Y-99991686D01*
X160396250Y-100445814D02*
X160396250Y-99991686D01*
X176153750Y-82983314D02*
X176153750Y-82529186D01*
X174683750Y-82983314D02*
X174683750Y-82529186D01*
X173772500Y-82983314D02*
X173772500Y-82529186D01*
X172302500Y-82983314D02*
X172302500Y-82529186D01*
D12*
X112931250Y-96162500D02*
X115431250Y-96162500D01*
X112931250Y-91162500D02*
X112931250Y-96162500D01*
X115431250Y-91162500D02*
X112931250Y-91162500D01*
X115431250Y-96162500D02*
X115431250Y-91162500D01*
D10*
X179892502Y-84196250D02*
X179369998Y-84196250D01*
X179892502Y-85666250D02*
X179369998Y-85666250D01*
X190368750Y-99537500D02*
X185868750Y-99537500D01*
X185868750Y-99537500D02*
X185868750Y-94137500D01*
D11*
X169450000Y-90075000D02*
X170025000Y-90075000D01*
X169450000Y-100425000D02*
X170125000Y-100425000D01*
X179800000Y-100425000D02*
X179125000Y-100425000D01*
X179800000Y-90075000D02*
X179125000Y-90075000D01*
X169450000Y-90075000D02*
X169450000Y-90750000D01*
X179800000Y-90075000D02*
X179800000Y-90750000D01*
X179800000Y-100425000D02*
X179800000Y-99750000D01*
X169450000Y-100425000D02*
X169450000Y-99750000D01*
X170025000Y-90075000D02*
X170025000Y-88800000D01*
D10*
X139022500Y-48127064D02*
X139022500Y-46922936D01*
X137202500Y-48127064D02*
X137202500Y-46922936D01*
X179369998Y-83285000D02*
X179892502Y-83285000D01*
X179369998Y-81815000D02*
X179892502Y-81815000D01*
X165605002Y-86577500D02*
X165082498Y-86577500D01*
X165605002Y-88047500D02*
X165082498Y-88047500D01*
X194180002Y-94515000D02*
X193657498Y-94515000D01*
X194180002Y-95985000D02*
X193657498Y-95985000D01*
X193657498Y-99160000D02*
X194180002Y-99160000D01*
X193657498Y-97690000D02*
X194180002Y-97690000D01*
X165835000Y-100517502D02*
X165835000Y-99994998D01*
X164365000Y-100517502D02*
X164365000Y-99994998D01*
X185719998Y-91222500D02*
X186242502Y-91222500D01*
X185719998Y-89752500D02*
X186242502Y-89752500D01*
X179369998Y-104716250D02*
X179892502Y-104716250D01*
X179369998Y-103246250D02*
X179892502Y-103246250D01*
X246268750Y-104643750D02*
X244268750Y-104643750D01*
X244268750Y-104643750D02*
X244268750Y-100743750D01*
X246268750Y-104643750D02*
X246268750Y-100743750D01*
X241506250Y-85593750D02*
X239506250Y-85593750D01*
X239506250Y-85593750D02*
X239506250Y-81693750D01*
X241506250Y-85593750D02*
X241506250Y-81693750D01*
X241431250Y-47831250D02*
X241431250Y-45831250D01*
X241431250Y-45831250D02*
X245331250Y-45831250D01*
X241431250Y-47831250D02*
X245331250Y-47831250D01*
X224837500Y-104643750D02*
X222837500Y-104643750D01*
X222837500Y-104643750D02*
X222837500Y-100743750D01*
X224837500Y-104643750D02*
X224837500Y-100743750D01*
X215312500Y-85593750D02*
X213312500Y-85593750D01*
X213312500Y-85593750D02*
X213312500Y-81693750D01*
X215312500Y-85593750D02*
X215312500Y-81693750D01*
X224837500Y-66543750D02*
X222837500Y-66543750D01*
X222837500Y-66543750D02*
X222837500Y-62643750D01*
X224837500Y-66543750D02*
X224837500Y-62643750D01*
X220075000Y-47493750D02*
X218075000Y-47493750D01*
X218075000Y-47493750D02*
X218075000Y-43593750D01*
X220075000Y-47493750D02*
X220075000Y-43593750D01*
X205787500Y-104643750D02*
X203787500Y-104643750D01*
X203787500Y-104643750D02*
X203787500Y-100743750D01*
X205787500Y-104643750D02*
X205787500Y-100743750D01*
X196262500Y-85593750D02*
X194262500Y-85593750D01*
X194262500Y-85593750D02*
X194262500Y-81693750D01*
X196262500Y-85593750D02*
X196262500Y-81693750D01*
X205787500Y-66543750D02*
X203787500Y-66543750D01*
X203787500Y-66543750D02*
X203787500Y-62643750D01*
X205787500Y-66543750D02*
X205787500Y-62643750D01*
X201025000Y-47493750D02*
X199025000Y-47493750D01*
X199025000Y-47493750D02*
X199025000Y-43593750D01*
X201025000Y-47493750D02*
X201025000Y-43593750D01*
X183150000Y-69981250D02*
X185150000Y-69981250D01*
X185150000Y-69981250D02*
X185150000Y-73881250D01*
X183150000Y-69981250D02*
X183150000Y-73881250D01*
X186737500Y-66543750D02*
X184737500Y-66543750D01*
X184737500Y-66543750D02*
X184737500Y-62643750D01*
X186737500Y-66543750D02*
X186737500Y-62643750D01*
X181975000Y-47493750D02*
X179975000Y-47493750D01*
X179975000Y-47493750D02*
X179975000Y-43593750D01*
X181975000Y-47493750D02*
X181975000Y-43593750D01*
X158943750Y-73231250D02*
X158943750Y-71231250D01*
X158943750Y-71231250D02*
X162843750Y-71231250D01*
X158943750Y-73231250D02*
X162843750Y-73231250D01*
X167687500Y-66543750D02*
X165687500Y-66543750D01*
X165687500Y-66543750D02*
X165687500Y-62643750D01*
X167687500Y-66543750D02*
X167687500Y-62643750D01*
X162925000Y-47493750D02*
X160925000Y-47493750D01*
X160925000Y-47493750D02*
X160925000Y-43593750D01*
X162925000Y-47493750D02*
X162925000Y-43593750D01*
X142287500Y-85593750D02*
X140287500Y-85593750D01*
X140287500Y-85593750D02*
X140287500Y-81693750D01*
X142287500Y-85593750D02*
X142287500Y-81693750D01*
X148637500Y-66543750D02*
X146637500Y-66543750D01*
X146637500Y-66543750D02*
X146637500Y-62643750D01*
X148637500Y-66543750D02*
X148637500Y-62643750D01*
X148637500Y-47493750D02*
X146637500Y-47493750D01*
X146637500Y-47493750D02*
X146637500Y-43593750D01*
X148637500Y-47493750D02*
X148637500Y-43593750D01*
X136731250Y-104643750D02*
X134731250Y-104643750D01*
X134731250Y-104643750D02*
X134731250Y-100743750D01*
X136731250Y-104643750D02*
X136731250Y-100743750D01*
X124031250Y-85593750D02*
X122031250Y-85593750D01*
X122031250Y-85593750D02*
X122031250Y-81693750D01*
X124031250Y-85593750D02*
X124031250Y-81693750D01*
X129587500Y-66543750D02*
X127587500Y-66543750D01*
X127587500Y-66543750D02*
X127587500Y-62643750D01*
X129587500Y-66543750D02*
X129587500Y-62643750D01*
X124825000Y-47493750D02*
X122825000Y-47493750D01*
X122825000Y-47493750D02*
X122825000Y-43593750D01*
X124825000Y-47493750D02*
X124825000Y-43593750D01*
X101806250Y-85593750D02*
X99806250Y-85593750D01*
X99806250Y-85593750D02*
X99806250Y-81693750D01*
X101806250Y-85593750D02*
X101806250Y-81693750D01*
X110537500Y-66543750D02*
X108537500Y-66543750D01*
X108537500Y-66543750D02*
X108537500Y-62643750D01*
X110537500Y-66543750D02*
X110537500Y-62643750D01*
X105775000Y-47493750D02*
X103775000Y-47493750D01*
X103775000Y-47493750D02*
X103775000Y-43593750D01*
X105775000Y-47493750D02*
X105775000Y-43593750D01*
X81962500Y-85593750D02*
X79962500Y-85593750D01*
X79962500Y-85593750D02*
X79962500Y-81693750D01*
X81962500Y-85593750D02*
X81962500Y-81693750D01*
X91487500Y-66543750D02*
X89487500Y-66543750D01*
X89487500Y-66543750D02*
X89487500Y-62643750D01*
X91487500Y-66543750D02*
X91487500Y-62643750D01*
X86725000Y-47493750D02*
X84725000Y-47493750D01*
X84725000Y-47493750D02*
X84725000Y-43593750D01*
X86725000Y-47493750D02*
X86725000Y-43593750D01*
X67675000Y-104643750D02*
X65675000Y-104643750D01*
X65675000Y-104643750D02*
X65675000Y-100743750D01*
X67675000Y-104643750D02*
X67675000Y-100743750D01*
X62912500Y-85593750D02*
X60912500Y-85593750D01*
X60912500Y-85593750D02*
X60912500Y-81693750D01*
X62912500Y-85593750D02*
X62912500Y-81693750D01*
X72437500Y-66543750D02*
X70437500Y-66543750D01*
X70437500Y-66543750D02*
X70437500Y-62643750D01*
X72437500Y-66543750D02*
X72437500Y-62643750D01*
X67675000Y-47431250D02*
X65675000Y-47431250D01*
X65675000Y-47431250D02*
X65675000Y-43531250D01*
X67675000Y-47431250D02*
X67675000Y-43531250D01*
X48625000Y-104643750D02*
X46625000Y-104643750D01*
X46625000Y-104643750D02*
X46625000Y-100743750D01*
X48625000Y-104643750D02*
X48625000Y-100743750D01*
X43862500Y-85531250D02*
X41862500Y-85531250D01*
X41862500Y-85531250D02*
X41862500Y-81631250D01*
X43862500Y-85531250D02*
X43862500Y-81631250D01*
X53387500Y-66543750D02*
X51387500Y-66543750D01*
X51387500Y-66543750D02*
X51387500Y-62643750D01*
X53387500Y-66543750D02*
X53387500Y-62643750D01*
X48625000Y-47431250D02*
X46625000Y-47431250D01*
X46625000Y-47431250D02*
X46625000Y-43531250D01*
X48625000Y-47431250D02*
X48625000Y-43531250D01*
X27193750Y-104581250D02*
X25193750Y-104581250D01*
X25193750Y-104581250D02*
X25193750Y-100681250D01*
X27193750Y-104581250D02*
X27193750Y-100681250D01*
X34062500Y-83931250D02*
X34062500Y-85931250D01*
X34062500Y-85931250D02*
X30162500Y-85931250D01*
X34062500Y-83931250D02*
X30162500Y-83931250D01*
X29575000Y-66543750D02*
X27575000Y-66543750D01*
X27575000Y-66543750D02*
X27575000Y-62643750D01*
X29575000Y-66543750D02*
X29575000Y-62643750D01*
X27193750Y-47493750D02*
X25193750Y-47493750D01*
X25193750Y-47493750D02*
X25193750Y-43593750D01*
X27193750Y-47493750D02*
X27193750Y-43593750D01*
D11*
X135539583Y-34916071D02*
X135872916Y-34916071D01*
X135872916Y-35439880D02*
X135872916Y-34439880D01*
X135396726Y-34439880D01*
X134682440Y-34916071D02*
X134539583Y-34963690D01*
X134491964Y-35011309D01*
X134444345Y-35106547D01*
X134444345Y-35249404D01*
X134491964Y-35344642D01*
X134539583Y-35392261D01*
X134634821Y-35439880D01*
X135015773Y-35439880D01*
X135015773Y-34439880D01*
X134682440Y-34439880D01*
X134587202Y-34487500D01*
X134539583Y-34535119D01*
X134491964Y-34630357D01*
X134491964Y-34725595D01*
X134539583Y-34820833D01*
X134587202Y-34868452D01*
X134682440Y-34916071D01*
X135015773Y-34916071D01*
X133491964Y-35439880D02*
X134063392Y-35439880D01*
X133777678Y-35439880D02*
X133777678Y-34439880D01*
X133872916Y-34582738D01*
X133968154Y-34677976D01*
X134063392Y-34725595D01*
X145406845Y-35846130D02*
X145406845Y-36655654D01*
X145359226Y-36750892D01*
X145311607Y-36798511D01*
X145216369Y-36846130D01*
X145025892Y-36846130D01*
X144930654Y-36798511D01*
X144883035Y-36750892D01*
X144835416Y-36655654D01*
X144835416Y-35846130D01*
X144406845Y-36798511D02*
X144263988Y-36846130D01*
X144025892Y-36846130D01*
X143930654Y-36798511D01*
X143883035Y-36750892D01*
X143835416Y-36655654D01*
X143835416Y-36560416D01*
X143883035Y-36465178D01*
X143930654Y-36417559D01*
X144025892Y-36369940D01*
X144216369Y-36322321D01*
X144311607Y-36274702D01*
X144359226Y-36227083D01*
X144406845Y-36131845D01*
X144406845Y-36036607D01*
X144359226Y-35941369D01*
X144311607Y-35893750D01*
X144216369Y-35846130D01*
X143978273Y-35846130D01*
X143835416Y-35893750D01*
X143073511Y-36322321D02*
X142930654Y-36369940D01*
X142883035Y-36417559D01*
X142835416Y-36512797D01*
X142835416Y-36655654D01*
X142883035Y-36750892D01*
X142930654Y-36798511D01*
X143025892Y-36846130D01*
X143406845Y-36846130D01*
X143406845Y-35846130D01*
X143073511Y-35846130D01*
X142978273Y-35893750D01*
X142930654Y-35941369D01*
X142883035Y-36036607D01*
X142883035Y-36131845D01*
X142930654Y-36227083D01*
X142978273Y-36274702D01*
X143073511Y-36322321D01*
X143406845Y-36322321D01*
X141883035Y-36846130D02*
X142454464Y-36846130D01*
X142168750Y-36846130D02*
X142168750Y-35846130D01*
X142263988Y-35988988D01*
X142359226Y-36084226D01*
X142454464Y-36131845D01*
X143843154Y-46508630D02*
X143843154Y-47318154D01*
X143795535Y-47413392D01*
X143747916Y-47461011D01*
X143652678Y-47508630D01*
X143462202Y-47508630D01*
X143366964Y-47461011D01*
X143319345Y-47413392D01*
X143271726Y-47318154D01*
X143271726Y-46508630D01*
X142843154Y-46603869D02*
X142795535Y-46556250D01*
X142700297Y-46508630D01*
X142462202Y-46508630D01*
X142366964Y-46556250D01*
X142319345Y-46603869D01*
X142271726Y-46699107D01*
X142271726Y-46794345D01*
X142319345Y-46937202D01*
X142890773Y-47508630D01*
X142271726Y-47508630D01*
X107695833Y-90467261D02*
X107552976Y-90514880D01*
X107314880Y-90514880D01*
X107219642Y-90467261D01*
X107172023Y-90419642D01*
X107124404Y-90324404D01*
X107124404Y-90229166D01*
X107172023Y-90133928D01*
X107219642Y-90086309D01*
X107314880Y-90038690D01*
X107505357Y-89991071D01*
X107600595Y-89943452D01*
X107648214Y-89895833D01*
X107695833Y-89800595D01*
X107695833Y-89705357D01*
X107648214Y-89610119D01*
X107600595Y-89562500D01*
X107505357Y-89514880D01*
X107267261Y-89514880D01*
X107124404Y-89562500D01*
X106791071Y-89514880D02*
X106552976Y-90514880D01*
X106362500Y-89800595D01*
X106172023Y-90514880D01*
X105933928Y-89514880D01*
X105029166Y-90514880D02*
X105600595Y-90514880D01*
X105314880Y-90514880D02*
X105314880Y-89514880D01*
X105410119Y-89657738D01*
X105505357Y-89752976D01*
X105600595Y-89800595D01*
X140866666Y-38489880D02*
X141200000Y-38013690D01*
X141438095Y-38489880D02*
X141438095Y-37489880D01*
X141057142Y-37489880D01*
X140961904Y-37537500D01*
X140914285Y-37585119D01*
X140866666Y-37680357D01*
X140866666Y-37823214D01*
X140914285Y-37918452D01*
X140961904Y-37966071D01*
X141057142Y-38013690D01*
X141438095Y-38013690D01*
X140009523Y-37489880D02*
X140200000Y-37489880D01*
X140295238Y-37537500D01*
X140342857Y-37585119D01*
X140438095Y-37727976D01*
X140485714Y-37918452D01*
X140485714Y-38299404D01*
X140438095Y-38394642D01*
X140390476Y-38442261D01*
X140295238Y-38489880D01*
X140104761Y-38489880D01*
X140009523Y-38442261D01*
X139961904Y-38394642D01*
X139914285Y-38299404D01*
X139914285Y-38061309D01*
X139961904Y-37966071D01*
X140009523Y-37918452D01*
X140104761Y-37870833D01*
X140295238Y-37870833D01*
X140390476Y-37918452D01*
X140438095Y-37966071D01*
X140485714Y-38061309D01*
X153708630Y-37139583D02*
X153232440Y-36806250D01*
X153708630Y-36568154D02*
X152708630Y-36568154D01*
X152708630Y-36949107D01*
X152756250Y-37044345D01*
X152803869Y-37091964D01*
X152899107Y-37139583D01*
X153041964Y-37139583D01*
X153137202Y-37091964D01*
X153184821Y-37044345D01*
X153232440Y-36949107D01*
X153232440Y-36568154D01*
X152708630Y-38044345D02*
X152708630Y-37568154D01*
X153184821Y-37520535D01*
X153137202Y-37568154D01*
X153089583Y-37663392D01*
X153089583Y-37901488D01*
X153137202Y-37996726D01*
X153184821Y-38044345D01*
X153280059Y-38091964D01*
X153518154Y-38091964D01*
X153613392Y-38044345D01*
X153661011Y-37996726D01*
X153708630Y-37901488D01*
X153708630Y-37663392D01*
X153661011Y-37568154D01*
X153613392Y-37520535D01*
X165472916Y-102783630D02*
X165806250Y-102307440D01*
X166044345Y-102783630D02*
X166044345Y-101783630D01*
X165663392Y-101783630D01*
X165568154Y-101831250D01*
X165520535Y-101878869D01*
X165472916Y-101974107D01*
X165472916Y-102116964D01*
X165520535Y-102212202D01*
X165568154Y-102259821D01*
X165663392Y-102307440D01*
X166044345Y-102307440D01*
X164615773Y-102116964D02*
X164615773Y-102783630D01*
X164853869Y-101736011D02*
X165091964Y-102450297D01*
X164472916Y-102450297D01*
X159996130Y-100052083D02*
X159519940Y-99718750D01*
X159996130Y-99480654D02*
X158996130Y-99480654D01*
X158996130Y-99861607D01*
X159043750Y-99956845D01*
X159091369Y-100004464D01*
X159186607Y-100052083D01*
X159329464Y-100052083D01*
X159424702Y-100004464D01*
X159472321Y-99956845D01*
X159519940Y-99861607D01*
X159519940Y-99480654D01*
X158996130Y-100385416D02*
X158996130Y-101004464D01*
X159377083Y-100671130D01*
X159377083Y-100813988D01*
X159424702Y-100909226D01*
X159472321Y-100956845D01*
X159567559Y-101004464D01*
X159805654Y-101004464D01*
X159900892Y-100956845D01*
X159948511Y-100909226D01*
X159996130Y-100813988D01*
X159996130Y-100528273D01*
X159948511Y-100433035D01*
X159900892Y-100385416D01*
X177521130Y-82589583D02*
X177044940Y-82256250D01*
X177521130Y-82018154D02*
X176521130Y-82018154D01*
X176521130Y-82399107D01*
X176568750Y-82494345D01*
X176616369Y-82541964D01*
X176711607Y-82589583D01*
X176854464Y-82589583D01*
X176949702Y-82541964D01*
X176997321Y-82494345D01*
X177044940Y-82399107D01*
X177044940Y-82018154D01*
X176616369Y-82970535D02*
X176568750Y-83018154D01*
X176521130Y-83113392D01*
X176521130Y-83351488D01*
X176568750Y-83446726D01*
X176616369Y-83494345D01*
X176711607Y-83541964D01*
X176806845Y-83541964D01*
X176949702Y-83494345D01*
X177521130Y-82922916D01*
X177521130Y-83541964D01*
X171902380Y-82589583D02*
X171426190Y-82256250D01*
X171902380Y-82018154D02*
X170902380Y-82018154D01*
X170902380Y-82399107D01*
X170950000Y-82494345D01*
X170997619Y-82541964D01*
X171092857Y-82589583D01*
X171235714Y-82589583D01*
X171330952Y-82541964D01*
X171378571Y-82494345D01*
X171426190Y-82399107D01*
X171426190Y-82018154D01*
X171902380Y-83541964D02*
X171902380Y-82970535D01*
X171902380Y-83256250D02*
X170902380Y-83256250D01*
X171045238Y-83161011D01*
X171140476Y-83065773D01*
X171188095Y-82970535D01*
X119633630Y-96341071D02*
X118633630Y-96341071D01*
X119347916Y-96674404D01*
X118633630Y-97007738D01*
X119633630Y-97007738D01*
X119633630Y-97483928D02*
X118633630Y-97483928D01*
X119586011Y-97912500D02*
X119633630Y-98055357D01*
X119633630Y-98293452D01*
X119586011Y-98388690D01*
X119538392Y-98436309D01*
X119443154Y-98483928D01*
X119347916Y-98483928D01*
X119252678Y-98436309D01*
X119205059Y-98388690D01*
X119157440Y-98293452D01*
X119109821Y-98102976D01*
X119062202Y-98007738D01*
X119014583Y-97960119D01*
X118919345Y-97912500D01*
X118824107Y-97912500D01*
X118728869Y-97960119D01*
X118681250Y-98007738D01*
X118633630Y-98102976D01*
X118633630Y-98341071D01*
X118681250Y-98483928D01*
X118633630Y-99102976D02*
X118633630Y-99293452D01*
X118681250Y-99388690D01*
X118776488Y-99483928D01*
X118966964Y-99531547D01*
X119300297Y-99531547D01*
X119490773Y-99483928D01*
X119586011Y-99388690D01*
X119633630Y-99293452D01*
X119633630Y-99102976D01*
X119586011Y-99007738D01*
X119490773Y-98912500D01*
X119300297Y-98864880D01*
X118966964Y-98864880D01*
X118776488Y-98912500D01*
X118681250Y-99007738D01*
X118633630Y-99102976D01*
X118633630Y-88329166D02*
X119633630Y-88662500D01*
X118633630Y-88995833D01*
X119538392Y-89900595D02*
X119586011Y-89852976D01*
X119633630Y-89710119D01*
X119633630Y-89614880D01*
X119586011Y-89472023D01*
X119490773Y-89376785D01*
X119395535Y-89329166D01*
X119205059Y-89281547D01*
X119062202Y-89281547D01*
X118871726Y-89329166D01*
X118776488Y-89376785D01*
X118681250Y-89472023D01*
X118633630Y-89614880D01*
X118633630Y-89710119D01*
X118681250Y-89852976D01*
X118728869Y-89900595D01*
X119538392Y-90900595D02*
X119586011Y-90852976D01*
X119633630Y-90710119D01*
X119633630Y-90614880D01*
X119586011Y-90472023D01*
X119490773Y-90376785D01*
X119395535Y-90329166D01*
X119205059Y-90281547D01*
X119062202Y-90281547D01*
X118871726Y-90329166D01*
X118776488Y-90376785D01*
X118681250Y-90472023D01*
X118633630Y-90614880D01*
X118633630Y-90710119D01*
X118681250Y-90852976D01*
X118728869Y-90900595D01*
X117086011Y-96376785D02*
X117133630Y-96519642D01*
X117133630Y-96757738D01*
X117086011Y-96852976D01*
X117038392Y-96900595D01*
X116943154Y-96948214D01*
X116847916Y-96948214D01*
X116752678Y-96900595D01*
X116705059Y-96852976D01*
X116657440Y-96757738D01*
X116609821Y-96567261D01*
X116562202Y-96472023D01*
X116514583Y-96424404D01*
X116419345Y-96376785D01*
X116324107Y-96376785D01*
X116228869Y-96424404D01*
X116181250Y-96472023D01*
X116133630Y-96567261D01*
X116133630Y-96805357D01*
X116181250Y-96948214D01*
X117038392Y-97948214D02*
X117086011Y-97900595D01*
X117133630Y-97757738D01*
X117133630Y-97662500D01*
X117086011Y-97519642D01*
X116990773Y-97424404D01*
X116895535Y-97376785D01*
X116705059Y-97329166D01*
X116562202Y-97329166D01*
X116371726Y-97376785D01*
X116276488Y-97424404D01*
X116181250Y-97519642D01*
X116133630Y-97662500D01*
X116133630Y-97757738D01*
X116181250Y-97900595D01*
X116228869Y-97948214D01*
X117133630Y-98376785D02*
X116133630Y-98376785D01*
X117133630Y-98948214D02*
X116562202Y-98519642D01*
X116133630Y-98948214D02*
X116705059Y-98376785D01*
X117133630Y-87841071D02*
X116133630Y-87841071D01*
X116847916Y-88174404D01*
X116133630Y-88507738D01*
X117133630Y-88507738D01*
X116133630Y-89174404D02*
X116133630Y-89364880D01*
X116181250Y-89460119D01*
X116276488Y-89555357D01*
X116466964Y-89602976D01*
X116800297Y-89602976D01*
X116990773Y-89555357D01*
X117086011Y-89460119D01*
X117133630Y-89364880D01*
X117133630Y-89174404D01*
X117086011Y-89079166D01*
X116990773Y-88983928D01*
X116800297Y-88936309D01*
X116466964Y-88936309D01*
X116276488Y-88983928D01*
X116181250Y-89079166D01*
X116133630Y-89174404D01*
X117086011Y-89983928D02*
X117133630Y-90126785D01*
X117133630Y-90364880D01*
X117086011Y-90460119D01*
X117038392Y-90507738D01*
X116943154Y-90555357D01*
X116847916Y-90555357D01*
X116752678Y-90507738D01*
X116705059Y-90460119D01*
X116657440Y-90364880D01*
X116609821Y-90174404D01*
X116562202Y-90079166D01*
X116514583Y-90031547D01*
X116419345Y-89983928D01*
X116324107Y-89983928D01*
X116228869Y-90031547D01*
X116181250Y-90079166D01*
X116133630Y-90174404D01*
X116133630Y-90412500D01*
X116181250Y-90555357D01*
X117133630Y-90983928D02*
X116133630Y-90983928D01*
X114633630Y-97364880D02*
X114157440Y-97031547D01*
X114633630Y-96793452D02*
X113633630Y-96793452D01*
X113633630Y-97174404D01*
X113681250Y-97269642D01*
X113728869Y-97317261D01*
X113824107Y-97364880D01*
X113966964Y-97364880D01*
X114062202Y-97317261D01*
X114109821Y-97269642D01*
X114157440Y-97174404D01*
X114157440Y-96793452D01*
X114586011Y-97745833D02*
X114633630Y-97888690D01*
X114633630Y-98126785D01*
X114586011Y-98222023D01*
X114538392Y-98269642D01*
X114443154Y-98317261D01*
X114347916Y-98317261D01*
X114252678Y-98269642D01*
X114205059Y-98222023D01*
X114157440Y-98126785D01*
X114109821Y-97936309D01*
X114062202Y-97841071D01*
X114014583Y-97793452D01*
X113919345Y-97745833D01*
X113824107Y-97745833D01*
X113728869Y-97793452D01*
X113681250Y-97841071D01*
X113633630Y-97936309D01*
X113633630Y-98174404D01*
X113681250Y-98317261D01*
X113633630Y-98602976D02*
X113633630Y-99174404D01*
X114633630Y-98888690D02*
X113633630Y-98888690D01*
X113681250Y-88650595D02*
X113633630Y-88555357D01*
X113633630Y-88412500D01*
X113681250Y-88269642D01*
X113776488Y-88174404D01*
X113871726Y-88126785D01*
X114062202Y-88079166D01*
X114205059Y-88079166D01*
X114395535Y-88126785D01*
X114490773Y-88174404D01*
X114586011Y-88269642D01*
X114633630Y-88412500D01*
X114633630Y-88507738D01*
X114586011Y-88650595D01*
X114538392Y-88698214D01*
X114205059Y-88698214D01*
X114205059Y-88507738D01*
X114633630Y-89126785D02*
X113633630Y-89126785D01*
X114633630Y-89698214D01*
X113633630Y-89698214D01*
X114633630Y-90174404D02*
X113633630Y-90174404D01*
X113633630Y-90412500D01*
X113681250Y-90555357D01*
X113776488Y-90650595D01*
X113871726Y-90698214D01*
X114062202Y-90745833D01*
X114205059Y-90745833D01*
X114395535Y-90698214D01*
X114490773Y-90650595D01*
X114586011Y-90555357D01*
X114633630Y-90412500D01*
X114633630Y-90174404D01*
X177172916Y-85288392D02*
X177220535Y-85336011D01*
X177363392Y-85383630D01*
X177458630Y-85383630D01*
X177601488Y-85336011D01*
X177696726Y-85240773D01*
X177744345Y-85145535D01*
X177791964Y-84955059D01*
X177791964Y-84812202D01*
X177744345Y-84621726D01*
X177696726Y-84526488D01*
X177601488Y-84431250D01*
X177458630Y-84383630D01*
X177363392Y-84383630D01*
X177220535Y-84431250D01*
X177172916Y-84478869D01*
X176601488Y-84812202D02*
X176696726Y-84764583D01*
X176744345Y-84716964D01*
X176791964Y-84621726D01*
X176791964Y-84574107D01*
X176744345Y-84478869D01*
X176696726Y-84431250D01*
X176601488Y-84383630D01*
X176411011Y-84383630D01*
X176315773Y-84431250D01*
X176268154Y-84478869D01*
X176220535Y-84574107D01*
X176220535Y-84621726D01*
X176268154Y-84716964D01*
X176315773Y-84764583D01*
X176411011Y-84812202D01*
X176601488Y-84812202D01*
X176696726Y-84859821D01*
X176744345Y-84907440D01*
X176791964Y-85002678D01*
X176791964Y-85193154D01*
X176744345Y-85288392D01*
X176696726Y-85336011D01*
X176601488Y-85383630D01*
X176411011Y-85383630D01*
X176315773Y-85336011D01*
X176268154Y-85288392D01*
X176220535Y-85193154D01*
X176220535Y-85002678D01*
X176268154Y-84907440D01*
X176315773Y-84859821D01*
X176411011Y-84812202D01*
X191144940Y-96361309D02*
X191621130Y-96361309D01*
X190621130Y-96027976D02*
X191144940Y-96361309D01*
X190621130Y-96694642D01*
X191621130Y-97551785D02*
X191621130Y-96980357D01*
X191621130Y-97266071D02*
X190621130Y-97266071D01*
X190763988Y-97170833D01*
X190859226Y-97075595D01*
X190906845Y-96980357D01*
X166627380Y-94488095D02*
X167436904Y-94488095D01*
X167532142Y-94535714D01*
X167579761Y-94583333D01*
X167627380Y-94678571D01*
X167627380Y-94869047D01*
X167579761Y-94964285D01*
X167532142Y-95011904D01*
X167436904Y-95059523D01*
X166627380Y-95059523D01*
X167627380Y-96059523D02*
X167627380Y-95488095D01*
X167627380Y-95773809D02*
X166627380Y-95773809D01*
X166770238Y-95678571D01*
X166865476Y-95583333D01*
X166913095Y-95488095D01*
X139861071Y-47191666D02*
X139861071Y-46858333D01*
X140384880Y-46858333D02*
X139384880Y-46858333D01*
X139384880Y-47334523D01*
X140384880Y-48239285D02*
X140384880Y-47667857D01*
X140384880Y-47953571D02*
X139384880Y-47953571D01*
X139527738Y-47858333D01*
X139622976Y-47763095D01*
X139670595Y-47667857D01*
X182729166Y-82907142D02*
X182776785Y-82954761D01*
X182919642Y-83002380D01*
X183014880Y-83002380D01*
X183157738Y-82954761D01*
X183252976Y-82859523D01*
X183300595Y-82764285D01*
X183348214Y-82573809D01*
X183348214Y-82430952D01*
X183300595Y-82240476D01*
X183252976Y-82145238D01*
X183157738Y-82050000D01*
X183014880Y-82002380D01*
X182919642Y-82002380D01*
X182776785Y-82050000D01*
X182729166Y-82097619D01*
X182395833Y-82002380D02*
X181729166Y-82002380D01*
X182157738Y-83002380D01*
X165510416Y-85989642D02*
X165558035Y-86037261D01*
X165700892Y-86084880D01*
X165796130Y-86084880D01*
X165938988Y-86037261D01*
X166034226Y-85942023D01*
X166081845Y-85846785D01*
X166129464Y-85656309D01*
X166129464Y-85513452D01*
X166081845Y-85322976D01*
X166034226Y-85227738D01*
X165938988Y-85132500D01*
X165796130Y-85084880D01*
X165700892Y-85084880D01*
X165558035Y-85132500D01*
X165510416Y-85180119D01*
X164653273Y-85084880D02*
X164843750Y-85084880D01*
X164938988Y-85132500D01*
X164986607Y-85180119D01*
X165081845Y-85322976D01*
X165129464Y-85513452D01*
X165129464Y-85894404D01*
X165081845Y-85989642D01*
X165034226Y-86037261D01*
X164938988Y-86084880D01*
X164748511Y-86084880D01*
X164653273Y-86037261D01*
X164605654Y-85989642D01*
X164558035Y-85894404D01*
X164558035Y-85656309D01*
X164605654Y-85561071D01*
X164653273Y-85513452D01*
X164748511Y-85465833D01*
X164938988Y-85465833D01*
X165034226Y-85513452D01*
X165081845Y-85561071D01*
X165129464Y-85656309D01*
X194085416Y-93927142D02*
X194133035Y-93974761D01*
X194275892Y-94022380D01*
X194371130Y-94022380D01*
X194513988Y-93974761D01*
X194609226Y-93879523D01*
X194656845Y-93784285D01*
X194704464Y-93593809D01*
X194704464Y-93450952D01*
X194656845Y-93260476D01*
X194609226Y-93165238D01*
X194513988Y-93070000D01*
X194371130Y-93022380D01*
X194275892Y-93022380D01*
X194133035Y-93070000D01*
X194085416Y-93117619D01*
X193180654Y-93022380D02*
X193656845Y-93022380D01*
X193704464Y-93498571D01*
X193656845Y-93450952D01*
X193561607Y-93403333D01*
X193323511Y-93403333D01*
X193228273Y-93450952D01*
X193180654Y-93498571D01*
X193133035Y-93593809D01*
X193133035Y-93831904D01*
X193180654Y-93927142D01*
X193228273Y-93974761D01*
X193323511Y-94022380D01*
X193561607Y-94022380D01*
X193656845Y-93974761D01*
X193704464Y-93927142D01*
X194085416Y-100462142D02*
X194133035Y-100509761D01*
X194275892Y-100557380D01*
X194371130Y-100557380D01*
X194513988Y-100509761D01*
X194609226Y-100414523D01*
X194656845Y-100319285D01*
X194704464Y-100128809D01*
X194704464Y-99985952D01*
X194656845Y-99795476D01*
X194609226Y-99700238D01*
X194513988Y-99605000D01*
X194371130Y-99557380D01*
X194275892Y-99557380D01*
X194133035Y-99605000D01*
X194085416Y-99652619D01*
X193228273Y-99890714D02*
X193228273Y-100557380D01*
X193466369Y-99509761D02*
X193704464Y-100224047D01*
X193085416Y-100224047D01*
X167137142Y-100089583D02*
X167184761Y-100041964D01*
X167232380Y-99899107D01*
X167232380Y-99803869D01*
X167184761Y-99661011D01*
X167089523Y-99565773D01*
X166994285Y-99518154D01*
X166803809Y-99470535D01*
X166660952Y-99470535D01*
X166470476Y-99518154D01*
X166375238Y-99565773D01*
X166280000Y-99661011D01*
X166232380Y-99803869D01*
X166232380Y-99899107D01*
X166280000Y-100041964D01*
X166327619Y-100089583D01*
X166232380Y-100422916D02*
X166232380Y-101041964D01*
X166613333Y-100708630D01*
X166613333Y-100851488D01*
X166660952Y-100946726D01*
X166708571Y-100994345D01*
X166803809Y-101041964D01*
X167041904Y-101041964D01*
X167137142Y-100994345D01*
X167184761Y-100946726D01*
X167232380Y-100851488D01*
X167232380Y-100565773D01*
X167184761Y-100470535D01*
X167137142Y-100422916D01*
X186147916Y-92524642D02*
X186195535Y-92572261D01*
X186338392Y-92619880D01*
X186433630Y-92619880D01*
X186576488Y-92572261D01*
X186671726Y-92477023D01*
X186719345Y-92381785D01*
X186766964Y-92191309D01*
X186766964Y-92048452D01*
X186719345Y-91857976D01*
X186671726Y-91762738D01*
X186576488Y-91667500D01*
X186433630Y-91619880D01*
X186338392Y-91619880D01*
X186195535Y-91667500D01*
X186147916Y-91715119D01*
X185766964Y-91715119D02*
X185719345Y-91667500D01*
X185624107Y-91619880D01*
X185386011Y-91619880D01*
X185290773Y-91667500D01*
X185243154Y-91715119D01*
X185195535Y-91810357D01*
X185195535Y-91905595D01*
X185243154Y-92048452D01*
X185814583Y-92619880D01*
X185195535Y-92619880D01*
X179797916Y-106018392D02*
X179845535Y-106066011D01*
X179988392Y-106113630D01*
X180083630Y-106113630D01*
X180226488Y-106066011D01*
X180321726Y-105970773D01*
X180369345Y-105875535D01*
X180416964Y-105685059D01*
X180416964Y-105542202D01*
X180369345Y-105351726D01*
X180321726Y-105256488D01*
X180226488Y-105161250D01*
X180083630Y-105113630D01*
X179988392Y-105113630D01*
X179845535Y-105161250D01*
X179797916Y-105208869D01*
X178845535Y-106113630D02*
X179416964Y-106113630D01*
X179131250Y-106113630D02*
X179131250Y-105113630D01*
X179226488Y-105256488D01*
X179321726Y-105351726D01*
X179416964Y-105399345D01*
X247721130Y-101179464D02*
X246721130Y-101179464D01*
X246721130Y-101417559D01*
X246768750Y-101560416D01*
X246863988Y-101655654D01*
X246959226Y-101703273D01*
X247149702Y-101750892D01*
X247292559Y-101750892D01*
X247483035Y-101703273D01*
X247578273Y-101655654D01*
X247673511Y-101560416D01*
X247721130Y-101417559D01*
X247721130Y-101179464D01*
X247054464Y-102608035D02*
X247721130Y-102608035D01*
X246673511Y-102369940D02*
X247387797Y-102131845D01*
X247387797Y-102750892D01*
X246816369Y-103084226D02*
X246768750Y-103131845D01*
X246721130Y-103227083D01*
X246721130Y-103465178D01*
X246768750Y-103560416D01*
X246816369Y-103608035D01*
X246911607Y-103655654D01*
X247006845Y-103655654D01*
X247149702Y-103608035D01*
X247721130Y-103036607D01*
X247721130Y-103655654D01*
X242958630Y-82129464D02*
X241958630Y-82129464D01*
X241958630Y-82367559D01*
X242006250Y-82510416D01*
X242101488Y-82605654D01*
X242196726Y-82653273D01*
X242387202Y-82700892D01*
X242530059Y-82700892D01*
X242720535Y-82653273D01*
X242815773Y-82605654D01*
X242911011Y-82510416D01*
X242958630Y-82367559D01*
X242958630Y-82129464D01*
X242291964Y-83558035D02*
X242958630Y-83558035D01*
X241911011Y-83319940D02*
X242625297Y-83081845D01*
X242625297Y-83700892D01*
X242958630Y-84605654D02*
X242958630Y-84034226D01*
X242958630Y-84319940D02*
X241958630Y-84319940D01*
X242101488Y-84224702D01*
X242196726Y-84129464D01*
X242244345Y-84034226D01*
X244895535Y-49283630D02*
X244895535Y-48283630D01*
X244657440Y-48283630D01*
X244514583Y-48331250D01*
X244419345Y-48426488D01*
X244371726Y-48521726D01*
X244324107Y-48712202D01*
X244324107Y-48855059D01*
X244371726Y-49045535D01*
X244419345Y-49140773D01*
X244514583Y-49236011D01*
X244657440Y-49283630D01*
X244895535Y-49283630D01*
X243466964Y-48616964D02*
X243466964Y-49283630D01*
X243705059Y-48236011D02*
X243943154Y-48950297D01*
X243324107Y-48950297D01*
X242752678Y-48283630D02*
X242657440Y-48283630D01*
X242562202Y-48331250D01*
X242514583Y-48378869D01*
X242466964Y-48474107D01*
X242419345Y-48664583D01*
X242419345Y-48902678D01*
X242466964Y-49093154D01*
X242514583Y-49188392D01*
X242562202Y-49236011D01*
X242657440Y-49283630D01*
X242752678Y-49283630D01*
X242847916Y-49236011D01*
X242895535Y-49188392D01*
X242943154Y-49093154D01*
X242990773Y-48902678D01*
X242990773Y-48664583D01*
X242943154Y-48474107D01*
X242895535Y-48378869D01*
X242847916Y-48331250D01*
X242752678Y-48283630D01*
X226289880Y-101179464D02*
X225289880Y-101179464D01*
X225289880Y-101417559D01*
X225337500Y-101560416D01*
X225432738Y-101655654D01*
X225527976Y-101703273D01*
X225718452Y-101750892D01*
X225861309Y-101750892D01*
X226051785Y-101703273D01*
X226147023Y-101655654D01*
X226242261Y-101560416D01*
X226289880Y-101417559D01*
X226289880Y-101179464D01*
X225289880Y-102084226D02*
X225289880Y-102703273D01*
X225670833Y-102369940D01*
X225670833Y-102512797D01*
X225718452Y-102608035D01*
X225766071Y-102655654D01*
X225861309Y-102703273D01*
X226099404Y-102703273D01*
X226194642Y-102655654D01*
X226242261Y-102608035D01*
X226289880Y-102512797D01*
X226289880Y-102227083D01*
X226242261Y-102131845D01*
X226194642Y-102084226D01*
X226289880Y-103179464D02*
X226289880Y-103369940D01*
X226242261Y-103465178D01*
X226194642Y-103512797D01*
X226051785Y-103608035D01*
X225861309Y-103655654D01*
X225480357Y-103655654D01*
X225385119Y-103608035D01*
X225337500Y-103560416D01*
X225289880Y-103465178D01*
X225289880Y-103274702D01*
X225337500Y-103179464D01*
X225385119Y-103131845D01*
X225480357Y-103084226D01*
X225718452Y-103084226D01*
X225813690Y-103131845D01*
X225861309Y-103179464D01*
X225908928Y-103274702D01*
X225908928Y-103465178D01*
X225861309Y-103560416D01*
X225813690Y-103608035D01*
X225718452Y-103655654D01*
X216764880Y-82129464D02*
X215764880Y-82129464D01*
X215764880Y-82367559D01*
X215812500Y-82510416D01*
X215907738Y-82605654D01*
X216002976Y-82653273D01*
X216193452Y-82700892D01*
X216336309Y-82700892D01*
X216526785Y-82653273D01*
X216622023Y-82605654D01*
X216717261Y-82510416D01*
X216764880Y-82367559D01*
X216764880Y-82129464D01*
X215764880Y-83034226D02*
X215764880Y-83653273D01*
X216145833Y-83319940D01*
X216145833Y-83462797D01*
X216193452Y-83558035D01*
X216241071Y-83605654D01*
X216336309Y-83653273D01*
X216574404Y-83653273D01*
X216669642Y-83605654D01*
X216717261Y-83558035D01*
X216764880Y-83462797D01*
X216764880Y-83177083D01*
X216717261Y-83081845D01*
X216669642Y-83034226D01*
X216193452Y-84224702D02*
X216145833Y-84129464D01*
X216098214Y-84081845D01*
X216002976Y-84034226D01*
X215955357Y-84034226D01*
X215860119Y-84081845D01*
X215812500Y-84129464D01*
X215764880Y-84224702D01*
X215764880Y-84415178D01*
X215812500Y-84510416D01*
X215860119Y-84558035D01*
X215955357Y-84605654D01*
X216002976Y-84605654D01*
X216098214Y-84558035D01*
X216145833Y-84510416D01*
X216193452Y-84415178D01*
X216193452Y-84224702D01*
X216241071Y-84129464D01*
X216288690Y-84081845D01*
X216383928Y-84034226D01*
X216574404Y-84034226D01*
X216669642Y-84081845D01*
X216717261Y-84129464D01*
X216764880Y-84224702D01*
X216764880Y-84415178D01*
X216717261Y-84510416D01*
X216669642Y-84558035D01*
X216574404Y-84605654D01*
X216383928Y-84605654D01*
X216288690Y-84558035D01*
X216241071Y-84510416D01*
X216193452Y-84415178D01*
X226289880Y-63079464D02*
X225289880Y-63079464D01*
X225289880Y-63317559D01*
X225337500Y-63460416D01*
X225432738Y-63555654D01*
X225527976Y-63603273D01*
X225718452Y-63650892D01*
X225861309Y-63650892D01*
X226051785Y-63603273D01*
X226147023Y-63555654D01*
X226242261Y-63460416D01*
X226289880Y-63317559D01*
X226289880Y-63079464D01*
X225289880Y-63984226D02*
X225289880Y-64603273D01*
X225670833Y-64269940D01*
X225670833Y-64412797D01*
X225718452Y-64508035D01*
X225766071Y-64555654D01*
X225861309Y-64603273D01*
X226099404Y-64603273D01*
X226194642Y-64555654D01*
X226242261Y-64508035D01*
X226289880Y-64412797D01*
X226289880Y-64127083D01*
X226242261Y-64031845D01*
X226194642Y-63984226D01*
X225289880Y-64936607D02*
X225289880Y-65603273D01*
X226289880Y-65174702D01*
X221527380Y-44029464D02*
X220527380Y-44029464D01*
X220527380Y-44267559D01*
X220575000Y-44410416D01*
X220670238Y-44505654D01*
X220765476Y-44553273D01*
X220955952Y-44600892D01*
X221098809Y-44600892D01*
X221289285Y-44553273D01*
X221384523Y-44505654D01*
X221479761Y-44410416D01*
X221527380Y-44267559D01*
X221527380Y-44029464D01*
X220527380Y-44934226D02*
X220527380Y-45553273D01*
X220908333Y-45219940D01*
X220908333Y-45362797D01*
X220955952Y-45458035D01*
X221003571Y-45505654D01*
X221098809Y-45553273D01*
X221336904Y-45553273D01*
X221432142Y-45505654D01*
X221479761Y-45458035D01*
X221527380Y-45362797D01*
X221527380Y-45077083D01*
X221479761Y-44981845D01*
X221432142Y-44934226D01*
X220527380Y-46410416D02*
X220527380Y-46219940D01*
X220575000Y-46124702D01*
X220622619Y-46077083D01*
X220765476Y-45981845D01*
X220955952Y-45934226D01*
X221336904Y-45934226D01*
X221432142Y-45981845D01*
X221479761Y-46029464D01*
X221527380Y-46124702D01*
X221527380Y-46315178D01*
X221479761Y-46410416D01*
X221432142Y-46458035D01*
X221336904Y-46505654D01*
X221098809Y-46505654D01*
X221003571Y-46458035D01*
X220955952Y-46410416D01*
X220908333Y-46315178D01*
X220908333Y-46124702D01*
X220955952Y-46029464D01*
X221003571Y-45981845D01*
X221098809Y-45934226D01*
X207239880Y-101179464D02*
X206239880Y-101179464D01*
X206239880Y-101417559D01*
X206287500Y-101560416D01*
X206382738Y-101655654D01*
X206477976Y-101703273D01*
X206668452Y-101750892D01*
X206811309Y-101750892D01*
X207001785Y-101703273D01*
X207097023Y-101655654D01*
X207192261Y-101560416D01*
X207239880Y-101417559D01*
X207239880Y-101179464D01*
X206239880Y-102084226D02*
X206239880Y-102703273D01*
X206620833Y-102369940D01*
X206620833Y-102512797D01*
X206668452Y-102608035D01*
X206716071Y-102655654D01*
X206811309Y-102703273D01*
X207049404Y-102703273D01*
X207144642Y-102655654D01*
X207192261Y-102608035D01*
X207239880Y-102512797D01*
X207239880Y-102227083D01*
X207192261Y-102131845D01*
X207144642Y-102084226D01*
X206239880Y-103608035D02*
X206239880Y-103131845D01*
X206716071Y-103084226D01*
X206668452Y-103131845D01*
X206620833Y-103227083D01*
X206620833Y-103465178D01*
X206668452Y-103560416D01*
X206716071Y-103608035D01*
X206811309Y-103655654D01*
X207049404Y-103655654D01*
X207144642Y-103608035D01*
X207192261Y-103560416D01*
X207239880Y-103465178D01*
X207239880Y-103227083D01*
X207192261Y-103131845D01*
X207144642Y-103084226D01*
X197714880Y-82129464D02*
X196714880Y-82129464D01*
X196714880Y-82367559D01*
X196762500Y-82510416D01*
X196857738Y-82605654D01*
X196952976Y-82653273D01*
X197143452Y-82700892D01*
X197286309Y-82700892D01*
X197476785Y-82653273D01*
X197572023Y-82605654D01*
X197667261Y-82510416D01*
X197714880Y-82367559D01*
X197714880Y-82129464D01*
X196714880Y-83034226D02*
X196714880Y-83653273D01*
X197095833Y-83319940D01*
X197095833Y-83462797D01*
X197143452Y-83558035D01*
X197191071Y-83605654D01*
X197286309Y-83653273D01*
X197524404Y-83653273D01*
X197619642Y-83605654D01*
X197667261Y-83558035D01*
X197714880Y-83462797D01*
X197714880Y-83177083D01*
X197667261Y-83081845D01*
X197619642Y-83034226D01*
X197048214Y-84510416D02*
X197714880Y-84510416D01*
X196667261Y-84272321D02*
X197381547Y-84034226D01*
X197381547Y-84653273D01*
X207239880Y-63079464D02*
X206239880Y-63079464D01*
X206239880Y-63317559D01*
X206287500Y-63460416D01*
X206382738Y-63555654D01*
X206477976Y-63603273D01*
X206668452Y-63650892D01*
X206811309Y-63650892D01*
X207001785Y-63603273D01*
X207097023Y-63555654D01*
X207192261Y-63460416D01*
X207239880Y-63317559D01*
X207239880Y-63079464D01*
X206239880Y-63984226D02*
X206239880Y-64603273D01*
X206620833Y-64269940D01*
X206620833Y-64412797D01*
X206668452Y-64508035D01*
X206716071Y-64555654D01*
X206811309Y-64603273D01*
X207049404Y-64603273D01*
X207144642Y-64555654D01*
X207192261Y-64508035D01*
X207239880Y-64412797D01*
X207239880Y-64127083D01*
X207192261Y-64031845D01*
X207144642Y-63984226D01*
X206239880Y-64936607D02*
X206239880Y-65555654D01*
X206620833Y-65222321D01*
X206620833Y-65365178D01*
X206668452Y-65460416D01*
X206716071Y-65508035D01*
X206811309Y-65555654D01*
X207049404Y-65555654D01*
X207144642Y-65508035D01*
X207192261Y-65460416D01*
X207239880Y-65365178D01*
X207239880Y-65079464D01*
X207192261Y-64984226D01*
X207144642Y-64936607D01*
X202477380Y-44029464D02*
X201477380Y-44029464D01*
X201477380Y-44267559D01*
X201525000Y-44410416D01*
X201620238Y-44505654D01*
X201715476Y-44553273D01*
X201905952Y-44600892D01*
X202048809Y-44600892D01*
X202239285Y-44553273D01*
X202334523Y-44505654D01*
X202429761Y-44410416D01*
X202477380Y-44267559D01*
X202477380Y-44029464D01*
X201477380Y-44934226D02*
X201477380Y-45553273D01*
X201858333Y-45219940D01*
X201858333Y-45362797D01*
X201905952Y-45458035D01*
X201953571Y-45505654D01*
X202048809Y-45553273D01*
X202286904Y-45553273D01*
X202382142Y-45505654D01*
X202429761Y-45458035D01*
X202477380Y-45362797D01*
X202477380Y-45077083D01*
X202429761Y-44981845D01*
X202382142Y-44934226D01*
X201572619Y-45934226D02*
X201525000Y-45981845D01*
X201477380Y-46077083D01*
X201477380Y-46315178D01*
X201525000Y-46410416D01*
X201572619Y-46458035D01*
X201667857Y-46505654D01*
X201763095Y-46505654D01*
X201905952Y-46458035D01*
X202477380Y-45886607D01*
X202477380Y-46505654D01*
X182602380Y-71016964D02*
X181602380Y-71016964D01*
X181602380Y-71255059D01*
X181650000Y-71397916D01*
X181745238Y-71493154D01*
X181840476Y-71540773D01*
X182030952Y-71588392D01*
X182173809Y-71588392D01*
X182364285Y-71540773D01*
X182459523Y-71493154D01*
X182554761Y-71397916D01*
X182602380Y-71255059D01*
X182602380Y-71016964D01*
X181602380Y-71921726D02*
X181602380Y-72540773D01*
X181983333Y-72207440D01*
X181983333Y-72350297D01*
X182030952Y-72445535D01*
X182078571Y-72493154D01*
X182173809Y-72540773D01*
X182411904Y-72540773D01*
X182507142Y-72493154D01*
X182554761Y-72445535D01*
X182602380Y-72350297D01*
X182602380Y-72064583D01*
X182554761Y-71969345D01*
X182507142Y-71921726D01*
X182602380Y-73493154D02*
X182602380Y-72921726D01*
X182602380Y-73207440D02*
X181602380Y-73207440D01*
X181745238Y-73112202D01*
X181840476Y-73016964D01*
X181888095Y-72921726D01*
X188189880Y-63079464D02*
X187189880Y-63079464D01*
X187189880Y-63317559D01*
X187237500Y-63460416D01*
X187332738Y-63555654D01*
X187427976Y-63603273D01*
X187618452Y-63650892D01*
X187761309Y-63650892D01*
X187951785Y-63603273D01*
X188047023Y-63555654D01*
X188142261Y-63460416D01*
X188189880Y-63317559D01*
X188189880Y-63079464D01*
X187189880Y-63984226D02*
X187189880Y-64603273D01*
X187570833Y-64269940D01*
X187570833Y-64412797D01*
X187618452Y-64508035D01*
X187666071Y-64555654D01*
X187761309Y-64603273D01*
X187999404Y-64603273D01*
X188094642Y-64555654D01*
X188142261Y-64508035D01*
X188189880Y-64412797D01*
X188189880Y-64127083D01*
X188142261Y-64031845D01*
X188094642Y-63984226D01*
X187189880Y-65222321D02*
X187189880Y-65317559D01*
X187237500Y-65412797D01*
X187285119Y-65460416D01*
X187380357Y-65508035D01*
X187570833Y-65555654D01*
X187808928Y-65555654D01*
X187999404Y-65508035D01*
X188094642Y-65460416D01*
X188142261Y-65412797D01*
X188189880Y-65317559D01*
X188189880Y-65222321D01*
X188142261Y-65127083D01*
X188094642Y-65079464D01*
X187999404Y-65031845D01*
X187808928Y-64984226D01*
X187570833Y-64984226D01*
X187380357Y-65031845D01*
X187285119Y-65079464D01*
X187237500Y-65127083D01*
X187189880Y-65222321D01*
X183427380Y-44029464D02*
X182427380Y-44029464D01*
X182427380Y-44267559D01*
X182475000Y-44410416D01*
X182570238Y-44505654D01*
X182665476Y-44553273D01*
X182855952Y-44600892D01*
X182998809Y-44600892D01*
X183189285Y-44553273D01*
X183284523Y-44505654D01*
X183379761Y-44410416D01*
X183427380Y-44267559D01*
X183427380Y-44029464D01*
X182522619Y-44981845D02*
X182475000Y-45029464D01*
X182427380Y-45124702D01*
X182427380Y-45362797D01*
X182475000Y-45458035D01*
X182522619Y-45505654D01*
X182617857Y-45553273D01*
X182713095Y-45553273D01*
X182855952Y-45505654D01*
X183427380Y-44934226D01*
X183427380Y-45553273D01*
X183427380Y-46029464D02*
X183427380Y-46219940D01*
X183379761Y-46315178D01*
X183332142Y-46362797D01*
X183189285Y-46458035D01*
X182998809Y-46505654D01*
X182617857Y-46505654D01*
X182522619Y-46458035D01*
X182475000Y-46410416D01*
X182427380Y-46315178D01*
X182427380Y-46124702D01*
X182475000Y-46029464D01*
X182522619Y-45981845D01*
X182617857Y-45934226D01*
X182855952Y-45934226D01*
X182951190Y-45981845D01*
X182998809Y-46029464D01*
X183046428Y-46124702D01*
X183046428Y-46315178D01*
X182998809Y-46410416D01*
X182951190Y-46458035D01*
X182855952Y-46505654D01*
X162408035Y-74683630D02*
X162408035Y-73683630D01*
X162169940Y-73683630D01*
X162027083Y-73731250D01*
X161931845Y-73826488D01*
X161884226Y-73921726D01*
X161836607Y-74112202D01*
X161836607Y-74255059D01*
X161884226Y-74445535D01*
X161931845Y-74540773D01*
X162027083Y-74636011D01*
X162169940Y-74683630D01*
X162408035Y-74683630D01*
X161455654Y-73778869D02*
X161408035Y-73731250D01*
X161312797Y-73683630D01*
X161074702Y-73683630D01*
X160979464Y-73731250D01*
X160931845Y-73778869D01*
X160884226Y-73874107D01*
X160884226Y-73969345D01*
X160931845Y-74112202D01*
X161503273Y-74683630D01*
X160884226Y-74683630D01*
X160312797Y-74112202D02*
X160408035Y-74064583D01*
X160455654Y-74016964D01*
X160503273Y-73921726D01*
X160503273Y-73874107D01*
X160455654Y-73778869D01*
X160408035Y-73731250D01*
X160312797Y-73683630D01*
X160122321Y-73683630D01*
X160027083Y-73731250D01*
X159979464Y-73778869D01*
X159931845Y-73874107D01*
X159931845Y-73921726D01*
X159979464Y-74016964D01*
X160027083Y-74064583D01*
X160122321Y-74112202D01*
X160312797Y-74112202D01*
X160408035Y-74159821D01*
X160455654Y-74207440D01*
X160503273Y-74302678D01*
X160503273Y-74493154D01*
X160455654Y-74588392D01*
X160408035Y-74636011D01*
X160312797Y-74683630D01*
X160122321Y-74683630D01*
X160027083Y-74636011D01*
X159979464Y-74588392D01*
X159931845Y-74493154D01*
X159931845Y-74302678D01*
X159979464Y-74207440D01*
X160027083Y-74159821D01*
X160122321Y-74112202D01*
X169139880Y-63079464D02*
X168139880Y-63079464D01*
X168139880Y-63317559D01*
X168187500Y-63460416D01*
X168282738Y-63555654D01*
X168377976Y-63603273D01*
X168568452Y-63650892D01*
X168711309Y-63650892D01*
X168901785Y-63603273D01*
X168997023Y-63555654D01*
X169092261Y-63460416D01*
X169139880Y-63317559D01*
X169139880Y-63079464D01*
X168235119Y-64031845D02*
X168187500Y-64079464D01*
X168139880Y-64174702D01*
X168139880Y-64412797D01*
X168187500Y-64508035D01*
X168235119Y-64555654D01*
X168330357Y-64603273D01*
X168425595Y-64603273D01*
X168568452Y-64555654D01*
X169139880Y-63984226D01*
X169139880Y-64603273D01*
X168139880Y-64936607D02*
X168139880Y-65603273D01*
X169139880Y-65174702D01*
X164377380Y-44029464D02*
X163377380Y-44029464D01*
X163377380Y-44267559D01*
X163425000Y-44410416D01*
X163520238Y-44505654D01*
X163615476Y-44553273D01*
X163805952Y-44600892D01*
X163948809Y-44600892D01*
X164139285Y-44553273D01*
X164234523Y-44505654D01*
X164329761Y-44410416D01*
X164377380Y-44267559D01*
X164377380Y-44029464D01*
X163472619Y-44981845D02*
X163425000Y-45029464D01*
X163377380Y-45124702D01*
X163377380Y-45362797D01*
X163425000Y-45458035D01*
X163472619Y-45505654D01*
X163567857Y-45553273D01*
X163663095Y-45553273D01*
X163805952Y-45505654D01*
X164377380Y-44934226D01*
X164377380Y-45553273D01*
X163377380Y-46410416D02*
X163377380Y-46219940D01*
X163425000Y-46124702D01*
X163472619Y-46077083D01*
X163615476Y-45981845D01*
X163805952Y-45934226D01*
X164186904Y-45934226D01*
X164282142Y-45981845D01*
X164329761Y-46029464D01*
X164377380Y-46124702D01*
X164377380Y-46315178D01*
X164329761Y-46410416D01*
X164282142Y-46458035D01*
X164186904Y-46505654D01*
X163948809Y-46505654D01*
X163853571Y-46458035D01*
X163805952Y-46410416D01*
X163758333Y-46315178D01*
X163758333Y-46124702D01*
X163805952Y-46029464D01*
X163853571Y-45981845D01*
X163948809Y-45934226D01*
X143739880Y-82129464D02*
X142739880Y-82129464D01*
X142739880Y-82367559D01*
X142787500Y-82510416D01*
X142882738Y-82605654D01*
X142977976Y-82653273D01*
X143168452Y-82700892D01*
X143311309Y-82700892D01*
X143501785Y-82653273D01*
X143597023Y-82605654D01*
X143692261Y-82510416D01*
X143739880Y-82367559D01*
X143739880Y-82129464D01*
X142835119Y-83081845D02*
X142787500Y-83129464D01*
X142739880Y-83224702D01*
X142739880Y-83462797D01*
X142787500Y-83558035D01*
X142835119Y-83605654D01*
X142930357Y-83653273D01*
X143025595Y-83653273D01*
X143168452Y-83605654D01*
X143739880Y-83034226D01*
X143739880Y-83653273D01*
X142739880Y-84558035D02*
X142739880Y-84081845D01*
X143216071Y-84034226D01*
X143168452Y-84081845D01*
X143120833Y-84177083D01*
X143120833Y-84415178D01*
X143168452Y-84510416D01*
X143216071Y-84558035D01*
X143311309Y-84605654D01*
X143549404Y-84605654D01*
X143644642Y-84558035D01*
X143692261Y-84510416D01*
X143739880Y-84415178D01*
X143739880Y-84177083D01*
X143692261Y-84081845D01*
X143644642Y-84034226D01*
X150089880Y-63079464D02*
X149089880Y-63079464D01*
X149089880Y-63317559D01*
X149137500Y-63460416D01*
X149232738Y-63555654D01*
X149327976Y-63603273D01*
X149518452Y-63650892D01*
X149661309Y-63650892D01*
X149851785Y-63603273D01*
X149947023Y-63555654D01*
X150042261Y-63460416D01*
X150089880Y-63317559D01*
X150089880Y-63079464D01*
X149185119Y-64031845D02*
X149137500Y-64079464D01*
X149089880Y-64174702D01*
X149089880Y-64412797D01*
X149137500Y-64508035D01*
X149185119Y-64555654D01*
X149280357Y-64603273D01*
X149375595Y-64603273D01*
X149518452Y-64555654D01*
X150089880Y-63984226D01*
X150089880Y-64603273D01*
X149423214Y-65460416D02*
X150089880Y-65460416D01*
X149042261Y-65222321D02*
X149756547Y-64984226D01*
X149756547Y-65603273D01*
X150089880Y-44029464D02*
X149089880Y-44029464D01*
X149089880Y-44267559D01*
X149137500Y-44410416D01*
X149232738Y-44505654D01*
X149327976Y-44553273D01*
X149518452Y-44600892D01*
X149661309Y-44600892D01*
X149851785Y-44553273D01*
X149947023Y-44505654D01*
X150042261Y-44410416D01*
X150089880Y-44267559D01*
X150089880Y-44029464D01*
X149185119Y-44981845D02*
X149137500Y-45029464D01*
X149089880Y-45124702D01*
X149089880Y-45362797D01*
X149137500Y-45458035D01*
X149185119Y-45505654D01*
X149280357Y-45553273D01*
X149375595Y-45553273D01*
X149518452Y-45505654D01*
X150089880Y-44934226D01*
X150089880Y-45553273D01*
X149089880Y-45886607D02*
X149089880Y-46505654D01*
X149470833Y-46172321D01*
X149470833Y-46315178D01*
X149518452Y-46410416D01*
X149566071Y-46458035D01*
X149661309Y-46505654D01*
X149899404Y-46505654D01*
X149994642Y-46458035D01*
X150042261Y-46410416D01*
X150089880Y-46315178D01*
X150089880Y-46029464D01*
X150042261Y-45934226D01*
X149994642Y-45886607D01*
X138183630Y-101179464D02*
X137183630Y-101179464D01*
X137183630Y-101417559D01*
X137231250Y-101560416D01*
X137326488Y-101655654D01*
X137421726Y-101703273D01*
X137612202Y-101750892D01*
X137755059Y-101750892D01*
X137945535Y-101703273D01*
X138040773Y-101655654D01*
X138136011Y-101560416D01*
X138183630Y-101417559D01*
X138183630Y-101179464D01*
X137278869Y-102131845D02*
X137231250Y-102179464D01*
X137183630Y-102274702D01*
X137183630Y-102512797D01*
X137231250Y-102608035D01*
X137278869Y-102655654D01*
X137374107Y-102703273D01*
X137469345Y-102703273D01*
X137612202Y-102655654D01*
X138183630Y-102084226D01*
X138183630Y-102703273D01*
X137278869Y-103084226D02*
X137231250Y-103131845D01*
X137183630Y-103227083D01*
X137183630Y-103465178D01*
X137231250Y-103560416D01*
X137278869Y-103608035D01*
X137374107Y-103655654D01*
X137469345Y-103655654D01*
X137612202Y-103608035D01*
X138183630Y-103036607D01*
X138183630Y-103655654D01*
X125483630Y-82129464D02*
X124483630Y-82129464D01*
X124483630Y-82367559D01*
X124531250Y-82510416D01*
X124626488Y-82605654D01*
X124721726Y-82653273D01*
X124912202Y-82700892D01*
X125055059Y-82700892D01*
X125245535Y-82653273D01*
X125340773Y-82605654D01*
X125436011Y-82510416D01*
X125483630Y-82367559D01*
X125483630Y-82129464D01*
X124578869Y-83081845D02*
X124531250Y-83129464D01*
X124483630Y-83224702D01*
X124483630Y-83462797D01*
X124531250Y-83558035D01*
X124578869Y-83605654D01*
X124674107Y-83653273D01*
X124769345Y-83653273D01*
X124912202Y-83605654D01*
X125483630Y-83034226D01*
X125483630Y-83653273D01*
X125483630Y-84605654D02*
X125483630Y-84034226D01*
X125483630Y-84319940D02*
X124483630Y-84319940D01*
X124626488Y-84224702D01*
X124721726Y-84129464D01*
X124769345Y-84034226D01*
X131039880Y-63079464D02*
X130039880Y-63079464D01*
X130039880Y-63317559D01*
X130087500Y-63460416D01*
X130182738Y-63555654D01*
X130277976Y-63603273D01*
X130468452Y-63650892D01*
X130611309Y-63650892D01*
X130801785Y-63603273D01*
X130897023Y-63555654D01*
X130992261Y-63460416D01*
X131039880Y-63317559D01*
X131039880Y-63079464D01*
X130135119Y-64031845D02*
X130087500Y-64079464D01*
X130039880Y-64174702D01*
X130039880Y-64412797D01*
X130087500Y-64508035D01*
X130135119Y-64555654D01*
X130230357Y-64603273D01*
X130325595Y-64603273D01*
X130468452Y-64555654D01*
X131039880Y-63984226D01*
X131039880Y-64603273D01*
X130039880Y-65222321D02*
X130039880Y-65317559D01*
X130087500Y-65412797D01*
X130135119Y-65460416D01*
X130230357Y-65508035D01*
X130420833Y-65555654D01*
X130658928Y-65555654D01*
X130849404Y-65508035D01*
X130944642Y-65460416D01*
X130992261Y-65412797D01*
X131039880Y-65317559D01*
X131039880Y-65222321D01*
X130992261Y-65127083D01*
X130944642Y-65079464D01*
X130849404Y-65031845D01*
X130658928Y-64984226D01*
X130420833Y-64984226D01*
X130230357Y-65031845D01*
X130135119Y-65079464D01*
X130087500Y-65127083D01*
X130039880Y-65222321D01*
X126277380Y-44029464D02*
X125277380Y-44029464D01*
X125277380Y-44267559D01*
X125325000Y-44410416D01*
X125420238Y-44505654D01*
X125515476Y-44553273D01*
X125705952Y-44600892D01*
X125848809Y-44600892D01*
X126039285Y-44553273D01*
X126134523Y-44505654D01*
X126229761Y-44410416D01*
X126277380Y-44267559D01*
X126277380Y-44029464D01*
X126277380Y-45553273D02*
X126277380Y-44981845D01*
X126277380Y-45267559D02*
X125277380Y-45267559D01*
X125420238Y-45172321D01*
X125515476Y-45077083D01*
X125563095Y-44981845D01*
X126277380Y-46029464D02*
X126277380Y-46219940D01*
X126229761Y-46315178D01*
X126182142Y-46362797D01*
X126039285Y-46458035D01*
X125848809Y-46505654D01*
X125467857Y-46505654D01*
X125372619Y-46458035D01*
X125325000Y-46410416D01*
X125277380Y-46315178D01*
X125277380Y-46124702D01*
X125325000Y-46029464D01*
X125372619Y-45981845D01*
X125467857Y-45934226D01*
X125705952Y-45934226D01*
X125801190Y-45981845D01*
X125848809Y-46029464D01*
X125896428Y-46124702D01*
X125896428Y-46315178D01*
X125848809Y-46410416D01*
X125801190Y-46458035D01*
X125705952Y-46505654D01*
X103258630Y-82129464D02*
X102258630Y-82129464D01*
X102258630Y-82367559D01*
X102306250Y-82510416D01*
X102401488Y-82605654D01*
X102496726Y-82653273D01*
X102687202Y-82700892D01*
X102830059Y-82700892D01*
X103020535Y-82653273D01*
X103115773Y-82605654D01*
X103211011Y-82510416D01*
X103258630Y-82367559D01*
X103258630Y-82129464D01*
X103258630Y-83653273D02*
X103258630Y-83081845D01*
X103258630Y-83367559D02*
X102258630Y-83367559D01*
X102401488Y-83272321D01*
X102496726Y-83177083D01*
X102544345Y-83081845D01*
X102687202Y-84224702D02*
X102639583Y-84129464D01*
X102591964Y-84081845D01*
X102496726Y-84034226D01*
X102449107Y-84034226D01*
X102353869Y-84081845D01*
X102306250Y-84129464D01*
X102258630Y-84224702D01*
X102258630Y-84415178D01*
X102306250Y-84510416D01*
X102353869Y-84558035D01*
X102449107Y-84605654D01*
X102496726Y-84605654D01*
X102591964Y-84558035D01*
X102639583Y-84510416D01*
X102687202Y-84415178D01*
X102687202Y-84224702D01*
X102734821Y-84129464D01*
X102782440Y-84081845D01*
X102877678Y-84034226D01*
X103068154Y-84034226D01*
X103163392Y-84081845D01*
X103211011Y-84129464D01*
X103258630Y-84224702D01*
X103258630Y-84415178D01*
X103211011Y-84510416D01*
X103163392Y-84558035D01*
X103068154Y-84605654D01*
X102877678Y-84605654D01*
X102782440Y-84558035D01*
X102734821Y-84510416D01*
X102687202Y-84415178D01*
X111989880Y-63079464D02*
X110989880Y-63079464D01*
X110989880Y-63317559D01*
X111037500Y-63460416D01*
X111132738Y-63555654D01*
X111227976Y-63603273D01*
X111418452Y-63650892D01*
X111561309Y-63650892D01*
X111751785Y-63603273D01*
X111847023Y-63555654D01*
X111942261Y-63460416D01*
X111989880Y-63317559D01*
X111989880Y-63079464D01*
X111989880Y-64603273D02*
X111989880Y-64031845D01*
X111989880Y-64317559D02*
X110989880Y-64317559D01*
X111132738Y-64222321D01*
X111227976Y-64127083D01*
X111275595Y-64031845D01*
X110989880Y-64936607D02*
X110989880Y-65603273D01*
X111989880Y-65174702D01*
X107227380Y-44029464D02*
X106227380Y-44029464D01*
X106227380Y-44267559D01*
X106275000Y-44410416D01*
X106370238Y-44505654D01*
X106465476Y-44553273D01*
X106655952Y-44600892D01*
X106798809Y-44600892D01*
X106989285Y-44553273D01*
X107084523Y-44505654D01*
X107179761Y-44410416D01*
X107227380Y-44267559D01*
X107227380Y-44029464D01*
X107227380Y-45553273D02*
X107227380Y-44981845D01*
X107227380Y-45267559D02*
X106227380Y-45267559D01*
X106370238Y-45172321D01*
X106465476Y-45077083D01*
X106513095Y-44981845D01*
X106227380Y-46410416D02*
X106227380Y-46219940D01*
X106275000Y-46124702D01*
X106322619Y-46077083D01*
X106465476Y-45981845D01*
X106655952Y-45934226D01*
X107036904Y-45934226D01*
X107132142Y-45981845D01*
X107179761Y-46029464D01*
X107227380Y-46124702D01*
X107227380Y-46315178D01*
X107179761Y-46410416D01*
X107132142Y-46458035D01*
X107036904Y-46505654D01*
X106798809Y-46505654D01*
X106703571Y-46458035D01*
X106655952Y-46410416D01*
X106608333Y-46315178D01*
X106608333Y-46124702D01*
X106655952Y-46029464D01*
X106703571Y-45981845D01*
X106798809Y-45934226D01*
X83414880Y-82129464D02*
X82414880Y-82129464D01*
X82414880Y-82367559D01*
X82462500Y-82510416D01*
X82557738Y-82605654D01*
X82652976Y-82653273D01*
X82843452Y-82700892D01*
X82986309Y-82700892D01*
X83176785Y-82653273D01*
X83272023Y-82605654D01*
X83367261Y-82510416D01*
X83414880Y-82367559D01*
X83414880Y-82129464D01*
X83414880Y-83653273D02*
X83414880Y-83081845D01*
X83414880Y-83367559D02*
X82414880Y-83367559D01*
X82557738Y-83272321D01*
X82652976Y-83177083D01*
X82700595Y-83081845D01*
X82414880Y-84558035D02*
X82414880Y-84081845D01*
X82891071Y-84034226D01*
X82843452Y-84081845D01*
X82795833Y-84177083D01*
X82795833Y-84415178D01*
X82843452Y-84510416D01*
X82891071Y-84558035D01*
X82986309Y-84605654D01*
X83224404Y-84605654D01*
X83319642Y-84558035D01*
X83367261Y-84510416D01*
X83414880Y-84415178D01*
X83414880Y-84177083D01*
X83367261Y-84081845D01*
X83319642Y-84034226D01*
X92939880Y-63079464D02*
X91939880Y-63079464D01*
X91939880Y-63317559D01*
X91987500Y-63460416D01*
X92082738Y-63555654D01*
X92177976Y-63603273D01*
X92368452Y-63650892D01*
X92511309Y-63650892D01*
X92701785Y-63603273D01*
X92797023Y-63555654D01*
X92892261Y-63460416D01*
X92939880Y-63317559D01*
X92939880Y-63079464D01*
X92939880Y-64603273D02*
X92939880Y-64031845D01*
X92939880Y-64317559D02*
X91939880Y-64317559D01*
X92082738Y-64222321D01*
X92177976Y-64127083D01*
X92225595Y-64031845D01*
X92273214Y-65460416D02*
X92939880Y-65460416D01*
X91892261Y-65222321D02*
X92606547Y-64984226D01*
X92606547Y-65603273D01*
X88177380Y-44029464D02*
X87177380Y-44029464D01*
X87177380Y-44267559D01*
X87225000Y-44410416D01*
X87320238Y-44505654D01*
X87415476Y-44553273D01*
X87605952Y-44600892D01*
X87748809Y-44600892D01*
X87939285Y-44553273D01*
X88034523Y-44505654D01*
X88129761Y-44410416D01*
X88177380Y-44267559D01*
X88177380Y-44029464D01*
X88177380Y-45553273D02*
X88177380Y-44981845D01*
X88177380Y-45267559D02*
X87177380Y-45267559D01*
X87320238Y-45172321D01*
X87415476Y-45077083D01*
X87463095Y-44981845D01*
X87177380Y-45886607D02*
X87177380Y-46505654D01*
X87558333Y-46172321D01*
X87558333Y-46315178D01*
X87605952Y-46410416D01*
X87653571Y-46458035D01*
X87748809Y-46505654D01*
X87986904Y-46505654D01*
X88082142Y-46458035D01*
X88129761Y-46410416D01*
X88177380Y-46315178D01*
X88177380Y-46029464D01*
X88129761Y-45934226D01*
X88082142Y-45886607D01*
X69127380Y-101179464D02*
X68127380Y-101179464D01*
X68127380Y-101417559D01*
X68175000Y-101560416D01*
X68270238Y-101655654D01*
X68365476Y-101703273D01*
X68555952Y-101750892D01*
X68698809Y-101750892D01*
X68889285Y-101703273D01*
X68984523Y-101655654D01*
X69079761Y-101560416D01*
X69127380Y-101417559D01*
X69127380Y-101179464D01*
X69127380Y-102703273D02*
X69127380Y-102131845D01*
X69127380Y-102417559D02*
X68127380Y-102417559D01*
X68270238Y-102322321D01*
X68365476Y-102227083D01*
X68413095Y-102131845D01*
X68222619Y-103084226D02*
X68175000Y-103131845D01*
X68127380Y-103227083D01*
X68127380Y-103465178D01*
X68175000Y-103560416D01*
X68222619Y-103608035D01*
X68317857Y-103655654D01*
X68413095Y-103655654D01*
X68555952Y-103608035D01*
X69127380Y-103036607D01*
X69127380Y-103655654D01*
X64364880Y-82129464D02*
X63364880Y-82129464D01*
X63364880Y-82367559D01*
X63412500Y-82510416D01*
X63507738Y-82605654D01*
X63602976Y-82653273D01*
X63793452Y-82700892D01*
X63936309Y-82700892D01*
X64126785Y-82653273D01*
X64222023Y-82605654D01*
X64317261Y-82510416D01*
X64364880Y-82367559D01*
X64364880Y-82129464D01*
X64364880Y-83653273D02*
X64364880Y-83081845D01*
X64364880Y-83367559D02*
X63364880Y-83367559D01*
X63507738Y-83272321D01*
X63602976Y-83177083D01*
X63650595Y-83081845D01*
X64364880Y-84605654D02*
X64364880Y-84034226D01*
X64364880Y-84319940D02*
X63364880Y-84319940D01*
X63507738Y-84224702D01*
X63602976Y-84129464D01*
X63650595Y-84034226D01*
X73889880Y-63079464D02*
X72889880Y-63079464D01*
X72889880Y-63317559D01*
X72937500Y-63460416D01*
X73032738Y-63555654D01*
X73127976Y-63603273D01*
X73318452Y-63650892D01*
X73461309Y-63650892D01*
X73651785Y-63603273D01*
X73747023Y-63555654D01*
X73842261Y-63460416D01*
X73889880Y-63317559D01*
X73889880Y-63079464D01*
X73889880Y-64603273D02*
X73889880Y-64031845D01*
X73889880Y-64317559D02*
X72889880Y-64317559D01*
X73032738Y-64222321D01*
X73127976Y-64127083D01*
X73175595Y-64031845D01*
X72889880Y-65222321D02*
X72889880Y-65317559D01*
X72937500Y-65412797D01*
X72985119Y-65460416D01*
X73080357Y-65508035D01*
X73270833Y-65555654D01*
X73508928Y-65555654D01*
X73699404Y-65508035D01*
X73794642Y-65460416D01*
X73842261Y-65412797D01*
X73889880Y-65317559D01*
X73889880Y-65222321D01*
X73842261Y-65127083D01*
X73794642Y-65079464D01*
X73699404Y-65031845D01*
X73508928Y-64984226D01*
X73270833Y-64984226D01*
X73080357Y-65031845D01*
X72985119Y-65079464D01*
X72937500Y-65127083D01*
X72889880Y-65222321D01*
X69127380Y-44443154D02*
X68127380Y-44443154D01*
X68127380Y-44681250D01*
X68175000Y-44824107D01*
X68270238Y-44919345D01*
X68365476Y-44966964D01*
X68555952Y-45014583D01*
X68698809Y-45014583D01*
X68889285Y-44966964D01*
X68984523Y-44919345D01*
X69079761Y-44824107D01*
X69127380Y-44681250D01*
X69127380Y-44443154D01*
X69127380Y-45490773D02*
X69127380Y-45681250D01*
X69079761Y-45776488D01*
X69032142Y-45824107D01*
X68889285Y-45919345D01*
X68698809Y-45966964D01*
X68317857Y-45966964D01*
X68222619Y-45919345D01*
X68175000Y-45871726D01*
X68127380Y-45776488D01*
X68127380Y-45586011D01*
X68175000Y-45490773D01*
X68222619Y-45443154D01*
X68317857Y-45395535D01*
X68555952Y-45395535D01*
X68651190Y-45443154D01*
X68698809Y-45490773D01*
X68746428Y-45586011D01*
X68746428Y-45776488D01*
X68698809Y-45871726D01*
X68651190Y-45919345D01*
X68555952Y-45966964D01*
X50077380Y-101655654D02*
X49077380Y-101655654D01*
X49077380Y-101893750D01*
X49125000Y-102036607D01*
X49220238Y-102131845D01*
X49315476Y-102179464D01*
X49505952Y-102227083D01*
X49648809Y-102227083D01*
X49839285Y-102179464D01*
X49934523Y-102131845D01*
X50029761Y-102036607D01*
X50077380Y-101893750D01*
X50077380Y-101655654D01*
X49505952Y-102798511D02*
X49458333Y-102703273D01*
X49410714Y-102655654D01*
X49315476Y-102608035D01*
X49267857Y-102608035D01*
X49172619Y-102655654D01*
X49125000Y-102703273D01*
X49077380Y-102798511D01*
X49077380Y-102988988D01*
X49125000Y-103084226D01*
X49172619Y-103131845D01*
X49267857Y-103179464D01*
X49315476Y-103179464D01*
X49410714Y-103131845D01*
X49458333Y-103084226D01*
X49505952Y-102988988D01*
X49505952Y-102798511D01*
X49553571Y-102703273D01*
X49601190Y-102655654D01*
X49696428Y-102608035D01*
X49886904Y-102608035D01*
X49982142Y-102655654D01*
X50029761Y-102703273D01*
X50077380Y-102798511D01*
X50077380Y-102988988D01*
X50029761Y-103084226D01*
X49982142Y-103131845D01*
X49886904Y-103179464D01*
X49696428Y-103179464D01*
X49601190Y-103131845D01*
X49553571Y-103084226D01*
X49505952Y-102988988D01*
X45314880Y-82543154D02*
X44314880Y-82543154D01*
X44314880Y-82781250D01*
X44362500Y-82924107D01*
X44457738Y-83019345D01*
X44552976Y-83066964D01*
X44743452Y-83114583D01*
X44886309Y-83114583D01*
X45076785Y-83066964D01*
X45172023Y-83019345D01*
X45267261Y-82924107D01*
X45314880Y-82781250D01*
X45314880Y-82543154D01*
X44314880Y-83447916D02*
X44314880Y-84114583D01*
X45314880Y-83686011D01*
X54839880Y-63555654D02*
X53839880Y-63555654D01*
X53839880Y-63793750D01*
X53887500Y-63936607D01*
X53982738Y-64031845D01*
X54077976Y-64079464D01*
X54268452Y-64127083D01*
X54411309Y-64127083D01*
X54601785Y-64079464D01*
X54697023Y-64031845D01*
X54792261Y-63936607D01*
X54839880Y-63793750D01*
X54839880Y-63555654D01*
X53839880Y-64984226D02*
X53839880Y-64793750D01*
X53887500Y-64698511D01*
X53935119Y-64650892D01*
X54077976Y-64555654D01*
X54268452Y-64508035D01*
X54649404Y-64508035D01*
X54744642Y-64555654D01*
X54792261Y-64603273D01*
X54839880Y-64698511D01*
X54839880Y-64888988D01*
X54792261Y-64984226D01*
X54744642Y-65031845D01*
X54649404Y-65079464D01*
X54411309Y-65079464D01*
X54316071Y-65031845D01*
X54268452Y-64984226D01*
X54220833Y-64888988D01*
X54220833Y-64698511D01*
X54268452Y-64603273D01*
X54316071Y-64555654D01*
X54411309Y-64508035D01*
X50077380Y-44443154D02*
X49077380Y-44443154D01*
X49077380Y-44681250D01*
X49125000Y-44824107D01*
X49220238Y-44919345D01*
X49315476Y-44966964D01*
X49505952Y-45014583D01*
X49648809Y-45014583D01*
X49839285Y-44966964D01*
X49934523Y-44919345D01*
X50029761Y-44824107D01*
X50077380Y-44681250D01*
X50077380Y-44443154D01*
X49077380Y-45919345D02*
X49077380Y-45443154D01*
X49553571Y-45395535D01*
X49505952Y-45443154D01*
X49458333Y-45538392D01*
X49458333Y-45776488D01*
X49505952Y-45871726D01*
X49553571Y-45919345D01*
X49648809Y-45966964D01*
X49886904Y-45966964D01*
X49982142Y-45919345D01*
X50029761Y-45871726D01*
X50077380Y-45776488D01*
X50077380Y-45538392D01*
X50029761Y-45443154D01*
X49982142Y-45395535D01*
X28646130Y-101593154D02*
X27646130Y-101593154D01*
X27646130Y-101831250D01*
X27693750Y-101974107D01*
X27788988Y-102069345D01*
X27884226Y-102116964D01*
X28074702Y-102164583D01*
X28217559Y-102164583D01*
X28408035Y-102116964D01*
X28503273Y-102069345D01*
X28598511Y-101974107D01*
X28646130Y-101831250D01*
X28646130Y-101593154D01*
X27979464Y-103021726D02*
X28646130Y-103021726D01*
X27598511Y-102783630D02*
X28312797Y-102545535D01*
X28312797Y-103164583D01*
X32550595Y-83383630D02*
X32550595Y-82383630D01*
X32312500Y-82383630D01*
X32169642Y-82431250D01*
X32074404Y-82526488D01*
X32026785Y-82621726D01*
X31979166Y-82812202D01*
X31979166Y-82955059D01*
X32026785Y-83145535D01*
X32074404Y-83240773D01*
X32169642Y-83336011D01*
X32312500Y-83383630D01*
X32550595Y-83383630D01*
X31645833Y-82383630D02*
X31026785Y-82383630D01*
X31360119Y-82764583D01*
X31217261Y-82764583D01*
X31122023Y-82812202D01*
X31074404Y-82859821D01*
X31026785Y-82955059D01*
X31026785Y-83193154D01*
X31074404Y-83288392D01*
X31122023Y-83336011D01*
X31217261Y-83383630D01*
X31502976Y-83383630D01*
X31598214Y-83336011D01*
X31645833Y-83288392D01*
X31027380Y-63555654D02*
X30027380Y-63555654D01*
X30027380Y-63793750D01*
X30075000Y-63936607D01*
X30170238Y-64031845D01*
X30265476Y-64079464D01*
X30455952Y-64127083D01*
X30598809Y-64127083D01*
X30789285Y-64079464D01*
X30884523Y-64031845D01*
X30979761Y-63936607D01*
X31027380Y-63793750D01*
X31027380Y-63555654D01*
X30122619Y-64508035D02*
X30075000Y-64555654D01*
X30027380Y-64650892D01*
X30027380Y-64888988D01*
X30075000Y-64984226D01*
X30122619Y-65031845D01*
X30217857Y-65079464D01*
X30313095Y-65079464D01*
X30455952Y-65031845D01*
X31027380Y-64460416D01*
X31027380Y-65079464D01*
X28646130Y-44505654D02*
X27646130Y-44505654D01*
X27646130Y-44743750D01*
X27693750Y-44886607D01*
X27788988Y-44981845D01*
X27884226Y-45029464D01*
X28074702Y-45077083D01*
X28217559Y-45077083D01*
X28408035Y-45029464D01*
X28503273Y-44981845D01*
X28598511Y-44886607D01*
X28646130Y-44743750D01*
X28646130Y-44505654D01*
X28646130Y-46029464D02*
X28646130Y-45458035D01*
X28646130Y-45743750D02*
X27646130Y-45743750D01*
X27788988Y-45648511D01*
X27884226Y-45553273D01*
X27931845Y-45458035D01*
M02*
