G04 #@! TF.GenerationSoftware,KiCad,Pcbnew,(5.1.9)-1*
G04 #@! TF.CreationDate,2021-04-17T19:28:57+02:00*
G04 #@! TF.ProjectId,isio42_pcb,6973696f-3432-45f7-9063-622e6b696361,rev?*
G04 #@! TF.SameCoordinates,Original*
G04 #@! TF.FileFunction,Soldermask,Top*
G04 #@! TF.FilePolarity,Negative*
%FSLAX46Y46*%
G04 Gerber Fmt 4.6, Leading zero omitted, Abs format (unit mm)*
G04 Created by KiCad (PCBNEW (5.1.9)-1) date 2021-04-17 19:28:57*
%MOMM*%
%LPD*%
G01*
G04 APERTURE LIST*
%ADD10C,1.700000*%
%ADD11C,4.000000*%
%ADD12C,2.200000*%
%ADD13C,3.050000*%
%ADD14C,0.650000*%
%ADD15O,1.000000X2.100000*%
%ADD16O,1.000000X1.600000*%
G04 APERTURE END LIST*
D10*
X259715000Y-98742500D03*
X249555000Y-98742500D03*
D11*
X254635000Y-98742500D03*
D12*
X250825000Y-96202500D03*
X257175000Y-93662500D03*
D10*
X254952500Y-79692500D03*
X244792500Y-79692500D03*
D11*
X249872500Y-79692500D03*
D12*
X246062500Y-77152500D03*
X252412500Y-74612500D03*
D13*
X247635000Y-39217500D03*
X247635000Y-63017500D03*
D11*
X262875000Y-63017500D03*
X262875000Y-39217500D03*
D10*
X259715000Y-51117500D03*
X249555000Y-51117500D03*
D11*
X254635000Y-51117500D03*
D12*
X250825000Y-48577500D03*
X257175000Y-46037500D03*
D13*
X195097500Y-91742500D03*
X95097500Y-91742500D03*
D11*
X95097500Y-106982500D03*
X195097500Y-106982500D03*
D10*
X150177500Y-98742500D03*
X140017500Y-98742500D03*
D11*
X145097500Y-98742500D03*
D12*
X141287500Y-96202500D03*
X147637500Y-93662500D03*
D10*
X40640000Y-98742500D03*
X30480000Y-98742500D03*
D11*
X35560000Y-98742500D03*
D12*
X31750000Y-96202500D03*
X38100000Y-93662500D03*
D10*
X43021250Y-60642500D03*
X32861250Y-60642500D03*
D11*
X37941250Y-60642500D03*
D12*
X34131250Y-58102500D03*
X40481250Y-55562500D03*
D10*
X238283750Y-98742500D03*
X228123750Y-98742500D03*
D11*
X233203750Y-98742500D03*
D12*
X229393750Y-96202500D03*
X235743750Y-93662500D03*
D10*
X228758750Y-79692500D03*
X218598750Y-79692500D03*
D11*
X223678750Y-79692500D03*
D12*
X219868750Y-77152500D03*
X226218750Y-74612500D03*
D10*
X238283750Y-60642500D03*
X228123750Y-60642500D03*
D11*
X233203750Y-60642500D03*
D12*
X229393750Y-58102500D03*
X235743750Y-55562500D03*
D10*
X233521250Y-41592500D03*
X223361250Y-41592500D03*
D11*
X228441250Y-41592500D03*
D12*
X224631250Y-39052500D03*
X230981250Y-36512500D03*
D10*
X219233750Y-98742500D03*
X209073750Y-98742500D03*
D11*
X214153750Y-98742500D03*
D12*
X210343750Y-96202500D03*
X216693750Y-93662500D03*
D10*
X209708750Y-79692500D03*
X199548750Y-79692500D03*
D11*
X204628750Y-79692500D03*
D12*
X200818750Y-77152500D03*
X207168750Y-74612500D03*
D10*
X219233750Y-60642500D03*
X209073750Y-60642500D03*
D11*
X214153750Y-60642500D03*
D12*
X210343750Y-58102500D03*
X216693750Y-55562500D03*
D10*
X214471250Y-41592500D03*
X204311250Y-41592500D03*
D11*
X209391250Y-41592500D03*
D12*
X205581250Y-39052500D03*
X211931250Y-36512500D03*
D10*
X190658750Y-79692500D03*
X180498750Y-79692500D03*
D11*
X185578750Y-79692500D03*
D12*
X181768750Y-77152500D03*
X188118750Y-74612500D03*
D10*
X200183750Y-60642500D03*
X190023750Y-60642500D03*
D11*
X195103750Y-60642500D03*
D12*
X191293750Y-58102500D03*
X197643750Y-55562500D03*
D10*
X195421250Y-41592500D03*
X185261250Y-41592500D03*
D11*
X190341250Y-41592500D03*
D12*
X186531250Y-39052500D03*
X192881250Y-36512500D03*
D10*
X171608750Y-79692500D03*
X161448750Y-79692500D03*
D11*
X166528750Y-79692500D03*
D12*
X162718750Y-77152500D03*
X169068750Y-74612500D03*
D10*
X181133750Y-60642500D03*
X170973750Y-60642500D03*
D11*
X176053750Y-60642500D03*
D12*
X172243750Y-58102500D03*
X178593750Y-55562500D03*
D10*
X176371250Y-41592500D03*
X166211250Y-41592500D03*
D11*
X171291250Y-41592500D03*
D12*
X167481250Y-39052500D03*
X173831250Y-36512500D03*
D10*
X152558750Y-79692500D03*
X142398750Y-79692500D03*
D11*
X147478750Y-79692500D03*
D12*
X143668750Y-77152500D03*
X150018750Y-74612500D03*
D10*
X162083750Y-60642500D03*
X151923750Y-60642500D03*
D11*
X157003750Y-60642500D03*
D12*
X153193750Y-58102500D03*
X159543750Y-55562500D03*
D10*
X157321250Y-41592500D03*
X147161250Y-41592500D03*
D11*
X152241250Y-41592500D03*
D12*
X148431250Y-39052500D03*
X154781250Y-36512500D03*
D10*
X133508750Y-79692500D03*
X123348750Y-79692500D03*
D11*
X128428750Y-79692500D03*
D12*
X124618750Y-77152500D03*
X130968750Y-74612500D03*
D10*
X143033750Y-60642500D03*
X132873750Y-60642500D03*
D11*
X137953750Y-60642500D03*
D12*
X134143750Y-58102500D03*
X140493750Y-55562500D03*
D10*
X138271250Y-41592500D03*
X128111250Y-41592500D03*
D11*
X133191250Y-41592500D03*
D12*
X129381250Y-39052500D03*
X135731250Y-36512500D03*
D10*
X114458750Y-79692500D03*
X104298750Y-79692500D03*
D11*
X109378750Y-79692500D03*
D12*
X105568750Y-77152500D03*
X111918750Y-74612500D03*
D10*
X123983750Y-60642500D03*
X113823750Y-60642500D03*
D11*
X118903750Y-60642500D03*
D12*
X115093750Y-58102500D03*
X121443750Y-55562500D03*
D10*
X119221250Y-41592500D03*
X109061250Y-41592500D03*
D11*
X114141250Y-41592500D03*
D12*
X110331250Y-39052500D03*
X116681250Y-36512500D03*
D10*
X95408750Y-79692500D03*
X85248750Y-79692500D03*
D11*
X90328750Y-79692500D03*
D12*
X86518750Y-77152500D03*
X92868750Y-74612500D03*
D10*
X104933750Y-60642500D03*
X94773750Y-60642500D03*
D11*
X99853750Y-60642500D03*
D12*
X96043750Y-58102500D03*
X102393750Y-55562500D03*
D10*
X100171250Y-41592500D03*
X90011250Y-41592500D03*
D11*
X95091250Y-41592500D03*
D12*
X91281250Y-39052500D03*
X97631250Y-36512500D03*
D10*
X81121250Y-98742500D03*
X70961250Y-98742500D03*
D11*
X76041250Y-98742500D03*
D12*
X72231250Y-96202500D03*
X78581250Y-93662500D03*
D10*
X76358750Y-79692500D03*
X66198750Y-79692500D03*
D11*
X71278750Y-79692500D03*
D12*
X67468750Y-77152500D03*
X73818750Y-74612500D03*
D10*
X85883750Y-60642500D03*
X75723750Y-60642500D03*
D11*
X80803750Y-60642500D03*
D12*
X76993750Y-58102500D03*
X83343750Y-55562500D03*
D10*
X81121250Y-41592500D03*
X70961250Y-41592500D03*
D11*
X76041250Y-41592500D03*
D12*
X72231250Y-39052500D03*
X78581250Y-36512500D03*
D10*
X62071250Y-98742500D03*
X51911250Y-98742500D03*
D11*
X56991250Y-98742500D03*
D12*
X53181250Y-96202500D03*
X59531250Y-93662500D03*
D10*
X57308750Y-79692500D03*
X47148750Y-79692500D03*
D11*
X52228750Y-79692500D03*
D12*
X48418750Y-77152500D03*
X54768750Y-74612500D03*
D10*
X66833750Y-60642500D03*
X56673750Y-60642500D03*
D11*
X61753750Y-60642500D03*
D12*
X57943750Y-58102500D03*
X64293750Y-55562500D03*
D10*
X62071250Y-41592500D03*
X51911250Y-41592500D03*
D11*
X56991250Y-41592500D03*
D12*
X53181250Y-39052500D03*
X59531250Y-36512500D03*
D10*
X38258750Y-79692500D03*
X28098750Y-79692500D03*
D11*
X33178750Y-79692500D03*
D12*
X29368750Y-77152500D03*
X35718750Y-74612500D03*
D10*
X38258750Y-41592500D03*
X28098750Y-41592500D03*
D11*
X33178750Y-41592500D03*
D12*
X29368750Y-39052500D03*
X35718750Y-36512500D03*
D14*
X146558750Y-32443750D03*
X140778750Y-32443750D03*
D15*
X139348750Y-32973750D03*
X147988750Y-32973750D03*
D16*
X139348750Y-28793750D03*
X147988750Y-28793750D03*
M02*
