M48
; DRILL file {KiCad (5.1.9)-1} date 04/17/21 14:31:53
; FORMAT={-:-/ absolute / inch / decimal}
; #@! TF.CreationDate,2021-04-17T14:31:53+02:00
; #@! TF.GenerationSoftware,Kicad,Pcbnew,(5.1.9)-1
; #@! TF.FileFunction,NonPlated,1,2,NPTH
FMAT,2
INCH
T1C0.0256
T2C0.0669
T3C0.1201
T4C0.1575
%
G90
G05
T1
X5.5425Y-1.2773
X5.77Y-1.2773
T2
X1.1062Y-1.6375
X1.1062Y-3.1375
X1.2Y-3.8875
X1.2937Y-2.3875
X1.5062Y-1.6375
X1.5062Y-3.1375
X1.6Y-3.8875
X1.6937Y-2.3875
X1.8562Y-3.1375
X2.0437Y-1.6375
X2.0437Y-3.8875
X2.2312Y-2.3875
X2.2563Y-3.1375
X2.4438Y-1.6375
X2.4438Y-3.8875
X2.6062Y-3.1375
X2.6313Y-2.3875
X2.7937Y-1.6375
X2.7937Y-3.8875
X2.9812Y-2.3875
X3.0063Y-3.1375
X3.1938Y-1.6375
X3.1938Y-3.8875
X3.3562Y-3.1375
X3.3813Y-2.3875
X3.5437Y-1.6375
X3.7312Y-2.3875
X3.7563Y-3.1375
X3.9438Y-1.6375
X4.1063Y-3.1375
X4.1312Y-2.3875
X4.2938Y-1.6375
X4.4813Y-2.3875
X4.5062Y-3.1375
X4.6937Y-1.6375
X4.8563Y-3.1375
X4.8812Y-2.3875
X5.0438Y-1.6375
X5.2313Y-2.3875
X5.2562Y-3.1375
X5.4437Y-1.6375
X5.5125Y-3.8875
X5.6063Y-3.1375
X5.6312Y-2.3875
X5.7938Y-1.6375
X5.9125Y-3.8875
X5.9813Y-2.3875
X6.0062Y-3.1375
X6.1937Y-1.6375
X6.3563Y-3.1375
X6.3812Y-2.3875
X6.5438Y-1.6375
X6.7313Y-2.3875
X6.7562Y-3.1375
X6.9437Y-1.6375
X7.1063Y-3.1375
X7.1312Y-2.3875
X7.2938Y-1.6375
X7.4813Y-2.3875
X7.5062Y-3.1375
X7.6937Y-1.6375
X7.8563Y-3.1375
X7.8812Y-2.3875
X8.0437Y-1.6375
X8.2312Y-2.3875
X8.2312Y-3.8875
X8.2562Y-3.1375
X8.4437Y-1.6375
X8.6062Y-3.1375
X8.6312Y-2.3875
X8.6312Y-3.8875
X8.7937Y-1.6375
X8.9812Y-2.3875
X8.9812Y-3.8875
X9.0062Y-3.1375
X9.1937Y-1.6375
X9.3812Y-2.3875
X9.3812Y-3.8875
X9.6375Y-3.1375
X9.825Y-2.0125
X9.825Y-3.8875
X10.0375Y-3.1375
X10.225Y-2.0125
X10.225Y-3.8875
T3
X3.744Y-3.6119
X7.681Y-3.6119
X9.7494Y-1.544
X9.7494Y-2.481
T4
X1.3062Y-1.6375
X1.3062Y-3.1375
X1.4Y-3.8875
X1.4937Y-2.3875
X2.0562Y-3.1375
X2.2437Y-1.6375
X2.2437Y-3.8875
X2.4312Y-2.3875
X2.8062Y-3.1375
X2.9937Y-1.6375
X2.9937Y-3.8875
X3.1812Y-2.3875
X3.5562Y-3.1375
X3.7437Y-1.6375
X3.744Y-4.2119
X3.9312Y-2.3875
X4.3062Y-3.1375
X4.4937Y-1.6375
X4.6812Y-2.3875
X5.0562Y-3.1375
X5.2437Y-1.6375
X5.4312Y-2.3875
X5.7125Y-3.8875
X5.8062Y-3.1375
X5.9937Y-1.6375
X6.1812Y-2.3875
X6.5562Y-3.1375
X6.7437Y-1.6375
X6.9312Y-2.3875
X7.3062Y-3.1375
X7.4937Y-1.6375
X7.681Y-4.2119
X7.6812Y-2.3875
X8.0563Y-3.1375
X8.2438Y-1.6375
X8.4313Y-2.3875
X8.4313Y-3.8875
X8.8063Y-3.1375
X8.9938Y-1.6375
X9.1813Y-2.3875
X9.1813Y-3.8875
X9.8375Y-3.1375
X10.025Y-2.0125
X10.025Y-3.8875
X10.3494Y-1.544
X10.3494Y-2.481
T0
M30
