M48
; DRILL file {KiCad (5.1.9)-1} date 04/18/21 15:42:01
; FORMAT={-:-/ absolute / inch / decimal}
; #@! TF.CreationDate,2021-04-18T15:42:01+02:00
; #@! TF.GenerationSoftware,Kicad,Pcbnew,(5.1.9)-1
; #@! TF.FileFunction,Plated,1,2,PTH
FMAT,2
INCH
T1C0.0157
T2C0.0236
T3C0.0394
T4C0.0591
%
G90
G05
T1
X4.0625Y-4.2188
X4.5625Y-4.1875
X4.625Y-4.1875
X4.6875Y-4.1875
X4.75Y-3.5625
X4.875Y-1.4375
X4.875Y-2.0625
X5.0625Y-2.875
X5.3125Y-3.5
X5.3125Y-3.5625
X5.3125Y-3.625
X5.3125Y-3.6875
X5.4062Y-2.125
X5.4062Y-2.875
X5.4688Y-2.0625
X5.5312Y-2.4375
X5.5312Y-2.8125
X5.5598Y-1.466
X5.5625Y-3.5625
X5.5938Y-3.9375
X5.6562Y-2.3125
X5.7188Y-1.5312
X5.75Y-2.9062
X5.7812Y-1.4375
X5.8125Y-1.9062
X5.8125Y-2.6875
X5.8125Y-2.8125
X5.8438Y-1.4375
X5.9062Y-1.2812
X5.9375Y-3.5
X6.0312Y-2.5
X6.0312Y-2.6875
X6.1562Y-2.6875
X6.1562Y-2.8438
X6.1562Y-3.0938
X6.1562Y-3.9062
X6.1562Y-3.9688
X6.1562Y-4.0312
X6.1562Y-4.0938
X6.1562Y-4.1562
X6.2812Y-3.8438
X6.3438Y-3.4375
X6.375Y-1.4375
X6.375Y-1.9688
X6.4062Y-4.0312
X6.4375Y-3.8438
X6.5Y-2.8438
X6.5312Y-3.2812
X6.625Y-3.4688
X6.625Y-3.5312
X6.7188Y-3.4062
X6.7812Y-3.4062
X6.875Y-4.0938
X6.9375Y-3.4062
X7.0312Y-4.1562
X7.125Y-3.5312
X7.1875Y-3.3438
X7.1875Y-4.0
X7.2188Y-3.625
X7.25Y-3.3438
X7.25Y-3.75
X7.25Y-3.875
X7.2812Y-3.25
X7.2812Y-3.625
X7.311Y-3.4688
X7.3125Y-3.3438
X7.3125Y-3.4062
X7.5625Y-3.2188
X7.5625Y-3.5938
X7.5625Y-3.9062
X7.8125Y-3.5938
X7.9712Y-4.0962
X7.9712Y-4.2163
T3
X4.4937Y-3.6375
X4.4937Y-3.7375
X4.5938Y-3.6375
X4.5938Y-3.7375
X4.6937Y-3.6375
X4.6937Y-3.7375
T4
X1.1562Y-1.5375
X1.1562Y-3.0375
X1.25Y-3.7875
X1.3438Y-2.2875
X1.4062Y-1.4375
X1.4062Y-2.9375
X1.5Y-3.6875
X1.5938Y-2.1875
X1.9062Y-3.0375
X2.0938Y-1.5375
X2.0938Y-3.7875
X2.1562Y-2.9375
X2.2812Y-2.2875
X2.3438Y-1.4375
X2.3438Y-3.6875
X2.5312Y-2.1875
X2.6562Y-3.0375
X2.8438Y-1.5375
X2.8438Y-3.7875
X2.9062Y-2.9375
X3.0312Y-2.2875
X3.0938Y-1.4375
X3.0938Y-3.6875
X3.2812Y-2.1875
X3.4062Y-3.0375
X3.5938Y-1.5375
X3.6562Y-2.9375
X3.7812Y-2.2875
X3.8438Y-1.4375
X4.0312Y-2.1875
X4.1562Y-3.0375
X4.3438Y-1.5375
X4.4062Y-2.9375
X4.5312Y-2.2875
X4.5938Y-1.4375
X4.7812Y-2.1875
X4.9062Y-3.0375
X5.0938Y-1.5375
X5.1562Y-2.9375
X5.2812Y-2.2875
X5.3438Y-1.4375
X5.5312Y-2.1875
X5.5625Y-3.7875
X5.6562Y-3.0375
X5.8125Y-3.6875
X5.8438Y-1.5375
X5.9062Y-2.9375
X6.0312Y-2.2875
X6.0938Y-1.4375
X6.2812Y-2.1875
X6.4062Y-3.0375
X6.5938Y-1.5375
X6.6562Y-2.9375
X6.7812Y-2.2875
X6.8438Y-1.4375
X7.0312Y-2.1875
X7.1562Y-3.0375
X7.3438Y-1.5375
X7.4062Y-2.9375
X7.5312Y-2.2875
X7.5938Y-1.4375
X7.7812Y-2.1875
X7.9062Y-3.0375
X8.0938Y-1.5375
X8.1562Y-2.9375
X8.2812Y-2.2875
X8.2812Y-3.7875
X8.3438Y-1.4375
X8.5312Y-2.1875
X8.5312Y-3.6875
X8.6562Y-3.0375
X8.8438Y-1.5375
X8.9062Y-2.9375
X9.0312Y-2.2875
X9.0312Y-3.7875
X9.0938Y-1.4375
X9.2812Y-2.1875
X9.2812Y-3.6875
X9.6875Y-3.0375
X9.875Y-1.9125
X9.875Y-3.7875
X9.9375Y-2.9375
X10.125Y-1.8125
X10.125Y-3.6875
T2
G00X5.4862Y-1.1218
M15
G01X5.4862Y-1.1454
M16
G05
G00X5.4862Y-1.2765
M15
G01X5.4862Y-1.3198
M16
G05
G00X5.8263Y-1.1218
M15
G01X5.8263Y-1.1454
M16
G05
G00X5.8263Y-1.2765
M15
G01X5.8263Y-1.3198
M16
G05
T0
M30
